<svg xmlns="http://www.w3.org/2000/svg" viewBox="7.353 2.812 1279.495 364.076">
  <path fill="#737373" stroke="#737373" stroke-width=".094" d="M720.2 210c8.3-.3 16.5-.1 24.8-.1v154.3c-8.3 0-16.6.3-24.8-.2.1-51.3 0-102.6 0-154zm163.9 8.2c8.5.1 17 0 25.4.1-.1 41.3.1 82.7-.1 124.1 18.9.6 37.8 0 56.7.3 0 7.2.1 14.3 0 21.5-27.4.1-54.7 0-82.1 0 0-48.7-.1-97.3.1-146zm-237 39.2c14.7-1.2 30.7 1.5 41.9 11.7 11.9 10.3 16.8 26.5 16.5 41.9.4 15.2-4.4 31.2-15.7 41.8-10.4 10.3-25.5 14.4-39.8 14-14.6.1-29.8-5-39.6-16.3-11.2-12.4-13.7-30.3-11.9-46.4 1.4-14 7.9-27.8 19.2-36.4 8.4-6.5 19-9.6 29.4-10.3m-1.7 21.2c-9.1 1.6-16.4 8.8-19.2 17.4-3.1 9.8-3.2 20.5-.8 30.4 2.2 8.6 8.7 16.4 17.5 18.6 9.6 2.5 21.1 1.6 28.4-5.7 6.9-7.2 8.5-17.7 8.5-27.3 0-9.6-1.7-20.1-8.8-27-6.6-6.7-16.8-8-25.6-6.4zm162.8-21.2c14.7-1.3 30.7 1.3 42.1 11.3 12.1 10.4 17.1 26.8 16.9 42.3.3 15.4-4.6 31.4-16 42.1-10.6 10.2-25.8 14.2-40.2 13.7-14.3 0-29.2-5.1-38.8-16.1-10.9-11.9-13.7-29-12.3-44.6 1.1-14.5 7.4-29 19.1-38.1 8.3-6.5 18.8-9.8 29.2-10.6m-.8 21.2c-9.6 1.5-17.3 9.3-19.9 18.4-2.8 10.1-3 21 0 31 2.5 8.1 9.1 15.2 17.5 17.1 9.3 2.3 20.4 1.5 27.6-5.5 6.9-6.9 8.7-17.2 8.8-26.6.1-9.7-1.4-20.5-8.5-27.8-6.5-6.7-16.7-8.2-25.5-6.6zm308.6-13.7c9.6-7.1 22.5-8.8 34.1-6.8 8.7 1.5 16.6 7.1 20.7 15 5.6 10.4 5.7 22.5 5.6 33.9-.1 19.1 0 38.1-.1 57.2-8.2.1-16.4.1-24.6 0-.2-15.7 0-31.5-.1-47.2-.2-10.6 1.2-22-4.2-31.6-4.7-8-15.5-9.4-23.6-6.7-10.3 3.6-16.4 14.7-16.3 25.3.1 19.9-.2 39.9.1 59.8-8.2.9-16.5.3-24.8.4-.1-34.8-.1-69.7 0-104.5 8.2-.1 16.4-.1 24.6 0 .2 4.4.1 8.8 0 13.3 3.2-2.4 5.2-5.9 8.6-8.1zm95.7-3.2c14.3-7 31.4-5.7 46.1-.5.1 7.9.1 15.8 0 23.6-8.2-5.2-18-8.9-27.9-7.7-4.1.5-8.6 2.3-10.4 6.3-1.898 4.6-.2 10.4 4 13 6.8 4.4 14.7 6.5 21.8 10.3 5.6 3 11.2 6.9 14.5 12.5 4.6 7.9 4.9 18 1.802 26.5-3.9 9.8-13.3 16.3-23.2 19-13 3.5-26.8 2.4-39.6-1.5-1.7-.7-3.6-1-5-2.2-.1-8-.3-16 .2-24 9.398 6.3 20.6 10.9 32.1 9.9 3.6-.3 7.5-.9 10.2-3.6 3.5-4.1 2.6-10.8-1.3-14.3-3.8-3.4-8.7-5.4-13.4-7.5-7.7-3.1-15.5-6.7-21.2-12.8-6.4-7-7.7-17.2-6-26.1 1.898-9.3 8.898-16.8 17.298-20.9zm-215.4 2.5c11.4-7.1 25.7-8.2 38.6-5.4 11.7 2.5 21.9 10.6 27 21.3 6.2 12.1 6.1 26.1 5.5 39.3-23.8-.1-47.5.1-71.3-.1.5 7.6 2.8 15.7 8.7 20.9 6.6 5.7 15.7 7.6 24.2 7.3 10.7 0 21.1-3.8 30-9.6.1 6.8.3 13.5 0 20.2-11.5 7.1-25.6 8.8-38.9 8.7-13.7-.102-28-5-36.8-15.9-10.9-12.8-13-30.7-11.2-46.9 1.7-16 10.5-31.3 24.2-39.8M1008 281c-6.4 4.7-10.1 12.5-11.3 20.2 15.5.1 31 .1 46.5 0 .2-7.7-1.9-16.2-8.4-21-7.8-5.5-19.2-5-26.8.8zM1203 4c8.1-1.7 16.6-1.5 24.5.6.3 7.1 0 14.2.2 21.3-5-1.9-10.4-3.4-15.7-2.1-5 .9-9 4.8-10.5 9.6-2.2 6.9-.9 14.3-1.3 21.5 12.3.2 24.5.1 36.8.1.1-7.9-.2-15.8.1-23.7 8.3-2.1 16.4-5.1 24.7-7.2-.1 10.3-.1 20.6 0 30.9 8.3.1 16.7-.1 25 .1-.1 6.6-.1 13.3 0 19.9-8.2.6-16.4 0-24.6.3l-.4.5c-.1 16.1 0 32.1 0 48.2.1 5.5.5 12.2 5.6 15.5 6 3.7 13.6 2.1 19.4-1.3-.1 6.9 0 13.8-.1 20.6-9 3.5-19.2 4.4-28.7 2.4-7.3-1.6-14.1-6.3-17.3-13.2-4.6-9-3.6-19.3-3.7-29-.1-14.6.2-29.2-.1-43.8-12.2.2-24.4 0-36.6.1-.1 26.9-.1 53.8 0 80.7-.1 1.3-.2 2.5-.3 3.7-8.3-.1-16.5-.1-24.8 0-.302-28.2.198-56.4-.302-84.5-5.7.1-11.5.1-17.2 0-.1-6.7-.1-13.5 0-20.2h17.4c.3-9-.9-18.3 1.9-27 3.502-11.9 13.9-21.3 26.002-24zm-550.9 7.3c8.6-3.4 19.6 2.3 20.4 11.8 1.4 8.4-6.2 16.1-14.5 15.9-7.8.7-15.8-5.9-15.5-14-.4-6.1 4-11.7 9.6-13.7z"/>
  <path fill="#F25022" stroke="#F25022" stroke-width=".094" d="M7.5 19c0-1.7 0-3.5.1-5.3 55.5.1 111 0 166.5.1v166.5c-55.5.2-111 0-166.5.1-.3-53.8 0-107.6-.1-161.4z"/>
  <path fill="#7FBA00" stroke="#7FBA00" stroke-width=".094" d="M191.3 14.1c1.2-.3 2.4-.4 3.7-.4 54.3.1 108.7 0 163 .1v166.5c-55.5.2-111 0-166.5.1-.4-55.4.1-110.9-.2-166.3z"/>
  <path fill="#737373" stroke="#737373" stroke-width=".094" d="M463.1 13.8c12.2-.2 24.4-.4 36.6.1 13.7 36.1 28 72.1 41.8 108.2 4.8-10 8.5-20.5 12.8-30.6 10.6-26 21.3-51.8 31.8-77.8 11.6-.2 23.3-.1 35 0 .1 31.1 0 62.2 0 93.3-.2 17.6.4 35.2-.2 52.7-8.3-.2-16.5.1-24.7-.1l-.5-.5c-.1-37.7-.1-75.5 0-113.2-.6.7-1.1 1.4-1.4 2.1-14.4 36.4-28.8 72.7-43.1 109-.6.9-.7 2.9-2.2 2.6-5.3.1-10.5 0-15.8.1-15.2-37.3-30.3-74.7-45.4-112l-1.198-.5v112.4c-7.8.1-15.6-.1-23.4.1-.303-48.6.098-97.3-.1-145.9zm255.3 42.8c15.8-6 34.2-5.9 49.5 1.4 0 7.9.4 15.9-.1 23.7-5.2-3.3-10.7-6.6-16.8-7.8-10-2-21.2.2-28.8 7.3-6.4 5.8-9.7 14.3-10.2 22.8-.8 9.8.9 20.7 7.8 28.2 6.6 7.4 17.2 10.2 26.9 9.3 7.7-1 14.8-4.7 21.3-9-.1 7.8.2 15.5-.2 23.2-13.1 6.6-28.5 8-42.8 5.2-15.5-3.1-28.9-14.4-34.9-29-4.8-12-4.9-25.4-2.3-37.9 3.7-16.3 14.7-31.4 30.6-37.4zm272.7-1.7c13.2-4.3 27.6-2.8 40.6 1.6.4 7.8.1 15.7.2 23.6-7.6-4.4-16-8.1-25-7.8-4.6.1-9.7 1.2-12.6 5.1-3.2 4.7-1.3 12 3.8 14.8 9.6 5.8 21.2 8.1 29.9 15.7 12.6 10.2 12.8 31.4 1.4 42.6-6.5 6.6-15.7 10.1-24.9 11.2-12.3 1.6-24.9-.5-36.5-4.8-.5-8.1-.3-16.2-.1-24.3 11.2 7 24.9 12.5 38.2 8.6 4.9-1.1 7.4-6.6 6.1-11.2-1.3-5.9-7.2-8.7-12.2-11.1-8.8-4-18.5-7.3-25.3-14.5-6.7-7-8.1-17.6-6.2-26.7 2.4-11.2 12.1-19.4 22.6-22.8zM822 57.8c7.3-4.9 17.1-5.9 25.4-3-.1 8.1.1 16.3-.1 24.5-5.4-2.5-11.3-4.2-17.2-3.4-7.8 1-14.1 7.3-16.6 14.6-3.2 9.4-2.2 19.6-2.4 29.4-.1 13.3.3 26.6-.2 39.8-8.1-.3-16.3.2-24.5-.3.2-34.8-.1-69.6.2-104.4h24.5c.1 5.4-.1 10.8.1 16.2 2.8-5 5.8-10.2 10.8-13.4zm71.1-4.5c16-2.2 34-.1 46.5 11.1 12 10.5 16.9 27 16.5 42.6.3 15.5-4.9 31.8-16.8 42.3-12.8 11.8-31.5 14.5-48.2 12.2-13.6-1.7-26.5-9.1-34-20.6-8.5-12.8-9.7-29.1-7.6-44.1 1.9-13.9 9.2-27.3 21-35.2 6.7-4.6 14.6-7.2 22.6-8.3m1.3 21.1c-6.5 1.7-12 6.1-15.2 11.9-4.5 7.9-5.2 17.4-4.7 26.3.5 8.2 3.1 16.9 9.4 22.6 6.7 6.1 16.4 7.3 25.1 6 6.6-1.1 12.8-5 16.3-10.9 4.8-8.1 5.4-18 5-27.2-.5-8.4-2.8-17.3-9.2-23.2-7-6.6-17.7-7.7-26.7-5.5zm197.7-21.1c14.5-1.9 30.4-.6 42.7 7.9 11.4 7.9 18.2 21.1 19.9 34.7 2.1 16.3 0 34.1-10.5 47.3-8.1 10.7-20.9 17-34 18.5-15.4 1.8-32.1-.5-44.4-10.5-10.7-8.4-16.6-21.8-17.6-35.2-1.4-15.7 1.3-32.7 11.6-45.2 7.8-9.9 19.9-15.9 32.3-17.5m1.3 21.2c-5.3 1.4-9.9 4.6-13.1 9-5.6 7.5-6.9 17.4-6.6 26.5.198 8.6 2.198 17.7 8.198 24 5.6 6 14.2 8.1 22.2 7.6 7.3-.2 14.8-3.3 19.2-9.4 5.8-8.1 6.6-18.6 6.3-28.2-.4-8.8-2.7-18.2-9.4-24.3-7.198-6.5-17.8-7.5-26.8-5.2zM645 55c8.3.1 16.5-.1 24.8.1-.1 34.8 0 69.7-.1 104.5-8.2.1-16.4-.1-24.5.1-.4-34.9-.1-69.8-.2-104.7z"/>
  <path fill="#00A4EF" stroke="#00A4EF" stroke-width=".094" d="M7.4 363.9c.4-55.4-.2-110.9.3-166.3 55.4.1 110.9-.1 166.4.1v166.5c-53.4.1-106.7 0-160.1.1-2.2 0-4.4 0-6.6-.4z"/>
  <path fill="#FFB900" stroke="#FFB900" stroke-width=".094" d="M191.4 209.9c0-4.1-.2-8.2.1-12.3 55.5.1 111-.1 166.5.1v166.5c-54.3.1-108.7 0-163 .1-1.3-.1-2.5-.2-3.7-.3.2-51.4 0-102.7.1-154.1z"/>
  <path fill="#737373" stroke="#737373" stroke-width=".094" d="M463.2 218.2c8.5.3 17-.4 25.4.3-.3 20.1.1 40.2-.2 60.3 2.5.7 5.1.4 7.6.4h51c2.9.1 5.8.2 8.7-.3-.1-20.2-.2-40.5.1-60.7 8.4.1 16.8.1 25.2 0 .3 48.7.1 97.3.1 146-8.5.1-17 .1-25.4 0-.3-20.9.3-41.8-.3-62.6-22.3.1-44.5 0-66.8.1-.1 20.7-.2 41.4 0 62.1-8.4 1-17 .3-25.5.4.1-48.7-.1-97.3.1-146z"/>
</svg>
