<svg xmlns="http://www.w3.org/2000/svg" viewBox="0 0 46 40">
  <title>
    ios
  </title>
  <g fill="none" fill-rule="evenodd">
    <path fill="#0b51a7" d="M4.73 40C2.12 40 0 37.872 0 35.267V4.727C0 2.12 2.122 0 4.73 0h36.467C43.803 0 46 2.12 46 4.726v30.54C46 37.873 43.803 40 41.197 40H4.73z"/>
    <path fill="#136ddf" d="M41.198 39.098H4.728c-2.118 0-3.838-1.714-3.838-3.83V4.725C.89 2.61 2.61.89 4.73.89h36.467c2.12 0 3.834 1.72 3.834 3.835l.01 30.543c0 2.116-1.713 3.83-3.833 3.83z"/>
    <path fill="#fff" d="M30.128 19.784c-.03-3.223 2.64-4.79 2.76-4.864-1.51-2.203-3.852-2.504-4.675-2.528-1.967-.207-3.875 1.177-4.877 1.177-1.022 0-2.565-1.16-4.228-1.13-2.14.03-4.142 1.27-5.24 3.193-2.266 3.923-.576 9.69 1.595 12.86 1.086 1.552 2.355 3.286 4.016 3.225 1.62-.067 2.23-1.036 4.19-1.036 1.94 0 2.51 1.036 4.2.997 1.743-.028 2.84-1.56 3.89-3.127 1.254-1.78 1.76-3.53 1.78-3.62-.04-.014-3.388-1.29-3.42-5.154zm-3.2-9.478c.874-1.093 1.472-2.58 1.306-4.09-1.265.057-2.847.876-3.758 1.945-.806.95-1.526 2.49-1.34 3.94 1.42.11 2.88-.71 3.792-1.79z"/>
  </g>
</svg>
