<?xml version="1.0" encoding="UTF-8" standalone="no"?>
<svg width="300px" height="109px" viewBox="0 0 300 109" version="1.1" xmlns="http://www.w3.org/2000/svg" xmlns:xlink="http://www.w3.org/1999/xlink">
    <!-- Generator: Sketch 47.1 (45422) - http://www.bohemiancoding.com/sketch -->
    <title>unity-master-black</title>
    <desc>Created with Sketch.</desc>
    <defs>
        <polygon id="path-1" points="108.578 108.94 0 108.94 0 54.681 0 0.422 108.578 0.422"></polygon>
    </defs>
    <g id="Page-1" stroke="none" stroke-width="1" fill="none" fill-rule="evenodd">
        <g id="unity-master-black">
            <g>
                <g id="Group-3">
                    <mask id="mask-2" fill="white">
                        <use xlink:href="#path-1"></use>
                    </mask>
                    <g id="Clip-2"></g>
                    <path d="M96.698,0.422 L52.347,11.979 L45.783,23.243 L32.463,23.146 L0,54.717 L32.463,86.283 L45.776,86.186 L52.355,97.443 L96.698,108.999 L108.578,65.885 L101.828,54.717 L108.578,43.551 L96.698,0.422 Z M46.852,25.056 L80.777,16.576 L61.303,49.384 L22.348,49.384 L46.852,25.056 Z M46.852,84.372 L22.348,60.044 L61.303,60.044 L80.777,92.852 L46.852,84.372 Z M90.271,87.519 L70.79,54.717 L90.271,21.903 L99.679,54.717 L90.271,87.519 L90.271,87.519 Z" id="Fill-1" fill="#020000" mask="url(#mask-2)"></path>
                </g>
                <path d="M197.298,32.412 C191.37,32.412 187.393,34.867 184.429,39.523 L184.175,39.523 L184.175,33.597 L173.803,33.597 L173.803,77.028 L184.429,77.028 L184.429,52.391 C184.429,46.465 188.153,42.402 193.233,42.402 C198.059,42.402 201.656,45.263 201.656,50.36 L201.656,77.028 L212.282,77.028 L212.282,48.666 C212.282,39.184 206.271,32.412 197.298,32.412" id="Fill-4" fill="#020000"></path>
                <path d="M157.639,58.636 C157.639,64.394 154.337,68.457 148.919,68.457 C144.008,68.457 140.92,65.663 140.92,60.583 L140.92,33.577 L130.294,33.577 L130.294,62.53 C130.294,72.012 135.711,78.193 145.363,78.193 C151.458,78.193 154.845,75.908 157.808,71.928 L158.062,71.928 L158.062,77.007 L168.277,77.007 L168.277,33.577 L157.639,33.577 L157.639,58.636" id="Fill-5" fill="#020000"></path>
                <polygon id="Fill-6" fill="#020000" points="217.853 77.028 228.48 77.028 228.48 33.597 217.853 33.597"></polygon>
                <polygon id="Fill-7" fill="#020000" points="217.853 28.781 228.48 28.781 228.48 20.051 217.853 20.051"></polygon>
                <path d="M288.537,33.597 L282.224,53.153 C280.869,57.132 279.684,62.635 279.684,62.635 L279.415,62.635 C279.415,62.635 277.976,57.132 276.62,53.153 L269.49,33.597 L258.13,33.597 L269.814,64.497 C272.268,71.101 273.114,73.895 273.114,76.265 C273.114,79.822 271.252,82.192 266.681,82.192 L262.617,82.192 L262.617,91.25 L269.39,91.25 C278.194,91.25 281.251,87.779 284.553,78.128 L299.867,33.597 L288.537,33.597" id="Fill-8" fill="#020000"></path>
                <path d="M248.278,64.244 L248.278,41.217 L255.051,41.217 L255.051,33.597 L248.278,33.597 L248.278,20.051 L237.726,20.051 L237.726,33.597 L231.715,33.597 L231.715,41.217 L237.726,41.217 L237.726,66.699 C237.726,74.912 243.905,77.112 249.494,77.112 C254.065,77.112 255.306,76.943 255.306,76.943 L255.306,68.547 C255.306,68.547 254.035,68.562 252.596,68.562 C250.056,68.562 248.278,67.46 248.278,64.244" id="Fill-9" fill="#020000"></path>
            </g>
        </g>
    </g>
</svg>