<svg xmlns="http://www.w3.org/2000/svg" viewBox="0 0 166 40">
  <title>
    Daydream Logotype
  </title>
  <defs>
    <linearGradient id="a" x1="12.193%" x2="95.098%" y1="8.224%" y2="96.519%">
      <stop stop-color="#1DE9B6" offset="0%"/>
      <stop stop-color="#2979FF" offset="100%"/>
    </linearGradient>
  </defs>
  <g fill="none" fill-rule="evenodd">
    <path fill="#000" fill-opacity=".54" d="M145.45 29.676V16.22h2.415v1.868h.11c.383-.64.973-1.185 1.77-1.633.794-.45 1.585-.673 2.37-.673 2.086 0 3.503.86 4.253 2.58 1.098-1.72 2.66-2.58 4.69-2.58 1.593 0 2.79.508 3.595 1.524.805 1.016 1.207 2.393 1.207 4.132v8.238h-2.524v-7.853c0-1.355-.247-2.316-.74-2.883-.494-.568-1.244-.852-2.25-.852-.988 0-1.806.422-2.455 1.264-.65.842-.97 1.803-.97 2.883v7.44h-2.52v-7.852c0-1.355-.24-2.316-.74-2.883-.49-.568-1.24-.852-2.25-.852-.98 0-1.8.422-2.45 1.264-.65.842-.97 1.803-.97 2.883v7.44h-2.52zm-8.9-1.866c1.188 0 2.198-.44 3.03-1.32.832-.878 1.25-2.06 1.25-3.54 0-1.484-.418-2.665-1.25-3.544-.832-.878-1.842-1.318-3.03-1.318-1.17 0-2.177.444-3.018 1.332-.84.888-1.262 2.064-1.262 3.53 0 1.463.42 2.64 1.262 3.527.84.888 1.847 1.332 3.017 1.332m-.42 2.3c-1.74 0-3.24-.69-4.5-2.06-1.26-1.37-1.89-3.08-1.89-5.11 0-2.04.63-3.74 1.89-5.11 1.26-1.37 2.76-2.06 4.5-2.06 1.02 0 1.94.22 2.75.66.81.43 1.42.98 1.82 1.64h.11v-1.86h2.41v13.46h-2.42v-1.86h-.11c-.41.65-1.01 1.2-1.83 1.64-.82.44-1.73.66-2.76.66m-10.06-8.79c-.06-.77-.41-1.51-1.06-2.2-.65-.7-1.62-1.05-2.89-1.05-.93 0-1.74.29-2.42.88-.69.58-1.16 1.37-1.42 2.36h7.79zm-3.62 8.78c-2.03 0-3.68-.68-4.96-2.03-1.27-1.36-1.91-3.07-1.91-5.14 0-1.96.61-3.65 1.85-5.06 1.23-1.41 2.81-2.12 4.73-2.12 1.99 0 3.59.65 4.79 1.95 1.2 1.3 1.8 3.04 1.8 5.21l-.03.46h-10.6c.07 1.35.52 2.42 1.36 3.21.83.78 1.8 1.18 2.92 1.18 1.81 0 3.03-.77 3.67-2.31l2.25.93c-.44 1.045-1.16 1.92-2.17 2.62-1.01.71-2.24 1.06-3.71 1.06zm-12.1-13.9v2.2h.11c.29-.79.83-1.41 1.63-1.86.79-.45 1.67-.68 2.62-.68.27 0 .57.02.9.054v2.47c-.35-.037-.69-.055-1.02-.055-1.2 0-2.19.354-2.97 1.06-.78.7-1.16 1.67-1.16 2.893v7.36h-2.52V16.22h2.41zM98.78 27.8c1.19 0 2.2-.44 3.03-1.32.836-.88 1.25-2.06 1.25-3.54 0-1.485-.414-2.666-1.25-3.545-.83-.878-1.84-1.318-3.03-1.318-1.17 0-2.174.443-3.02 1.33-.85.888-1.27 2.064-1.27 3.53 0 1.463.42 2.64 1.26 3.527.84.89 1.84 1.334 3.01 1.334m-.41 2.3c-1.74 0-3.24-.69-4.5-2.06-1.26-1.37-1.89-3.08-1.89-5.11 0-2.04.63-3.74 1.89-5.11 1.26-1.37 2.76-2.06 4.5-2.06 1.027 0 1.94.22 2.76.66.813.43 1.42.98 1.823 1.64h.11l-.11-1.87V10h2.524v19.66h-2.414V27.8h-.11c-.4.658-1.01 1.207-1.82 1.646-.816.44-1.735.66-2.76.66m-6.1-13.896l-7 16.147c-.97 2.345-2.423 3.517-4.36 3.517-.64 0-1.263-.13-1.866-.384l.63-2.195c.4.19.81.28 1.23.28.477 0 .866-.13 1.168-.38.304-.256.6-.695.893-1.317l1.4-3.05-5.54-12.61h2.75l4.002 9.67h.058l3.897-9.667h2.743zm-21.17 11.6c1.19 0 2.2-.44 3.032-1.32.83-.878 1.246-2.06 1.246-3.54 0-1.484-.41-2.665-1.24-3.544-.83-.878-1.84-1.318-3.03-1.318-1.17 0-2.18.444-3.02 1.332-.84.888-1.26 2.064-1.26 3.53 0 1.463.42 2.64 1.26 3.527.84.888 1.85 1.332 3.02 1.332m-.41 2.3c-1.73 0-3.23-.69-4.5-2.06-1.26-1.37-1.89-3.08-1.89-5.11 0-2.04.63-3.74 1.9-5.11 1.26-1.37 2.76-2.06 4.5-2.06 1.03 0 1.94.22 2.76.66.82.43 1.42.98 1.83 1.64h.11v-1.86h2.41v13.46h-2.42v-1.86h-.11c-.4.65-1.01 1.2-1.82 1.64-.81.44-1.73.66-2.75.66m-20.95-2.85h3.488c2.267 0 4.064-.65 5.39-1.95 1.326-1.3 1.99-3.12 1.99-5.47 0-2.33-.664-4.14-1.99-5.45-1.326-1.31-3.123-1.97-5.39-1.97h-3.48v14.83zm-2.52 2.41V10.01h6.01c3.018 0 5.43.91 7.24 2.732 1.81 1.82 2.718 4.187 2.718 7.098 0 2.91-.9 5.276-2.71 7.098s-4.22 2.733-7.24 2.733h-6.01z"/>
    <path fill="url(#a)" d="M35.346 22.428c-.26-.265-.682-.306-.992-.1-3.563 2.368-6.965 2.356-8.582 2.166-.143-.017-.137-.22.006-.235 2.605-.26 5.17-1.2 7.404-2.88.09-.07.17-.15.256-.22l.038-.02h-.003l-.01-.01c1.825-1.49 2.93-3.56 3.236-5.75.32-2.3-.24-4.72-1.73-6.71-.95-1.26-2.31-2.02-3.75-2.22-.73-.1-1.48-.06-2.21.13-.37.09-.62.44-.59.81.26 4.23-1.42 7.16-2.39 8.48-.09.11-.26.01-.2-.12 1.07-2.38 1.53-5.06 1.2-7.82l-.06-.38c-.38-2.32-1.63-4.31-3.37-5.66C21.78.49 19.41-.24 16.94.06c-1.565.19-2.9.99-3.795 2.137-.45.58-.79 1.26-.992 1.98-.1.36.077.75.41.91 3.794 1.89 5.486 4.81 6.14 6.31.058.14-.122.24-.205.12-1.51-2.11-3.6-3.85-6.16-4.94-.11-.05-.23-.09-.35-.14-2.2-.83-4.54-.74-6.58.09-2.15.87-3.96 2.56-4.94 4.85-.613 1.45-.59 3-.05 4.35.276.67.69 1.3 1.21 1.84.266.26.686.3.997.1 3.565-2.37 6.966-2.35 8.58-2.16.14.01.136.22-.007.23-2.603.25-5.17 1.19-7.4 2.87l-.24.21-.056.02h.01l.01.01C1.686 20.34.58 22.41.274 24.592-.05 26.89.504 29.31 2 31.3c.948 1.26 2.307 2.015 3.746 2.22.72.102 1.47.06 2.198-.127.364-.094.616-.438.592-.814-.268-4.26 1.442-7.2 2.416-8.51.085-.12.26-.01.2.12-1.085 2.38-1.553 5.07-1.213 7.85.01.12.03.24.05.35v.01c.38 2.32 1.63 4.31 3.36 5.67 1.83 1.43 4.19 2.16 6.67 1.85 1.56-.19 2.89-.99 3.79-2.14.45-.58.79-1.25.99-1.98.1-.36-.08-.74-.41-.91-3.83-1.9-5.52-4.85-6.16-6.35-.06-.13.12-.23.2-.11 1.52 2.13 3.61 3.88 6.18 4.97.11.05.22.09.33.13l.01.003c2.2.835 4.55.75 6.59-.08 2.15-.87 3.96-2.557 4.94-4.85.61-1.45.59-3.004.05-4.35-.28-.68-.69-1.31-1.22-1.85"/>
  </g>
</svg>
