<svg xmlns="http://www.w3.org/2000/svg" id="daydream" viewBox="0 0 84 72">
  <g id="Page-1" fill="none" fill-rule="evenodd">
    <g id="headset" stroke="#111" stroke-width="1.5">
      <path id="Path-2" d="M1.023 39.788c0-3.853 2.418-5.248 2.418-5.248s7.42-4.01 10.67-6.697c3.25-2.688 6.19-6.343 8.05-6.343 1.86 0 2.498 5.17 12 10.51 9.505 5.35 15.728 6.89 20.46 11.39 4.735 4.5 3.6 11.083 0 13.884-2.27 1.764-9.575 6.56-15.655 10.374-3.57 2.237-5.204 3.77-8.9 3.176-4.518-.728-9.884-6.11-15.35-9.69C9.24 57.564 3.68 52.27 2.495 48.89c-1.195-3.39-1.47-5.246-1.47-9.1z"/>
      <path id="Path-2" d="M1.023 39.788c0-3.853 2.787-5.365 7.478-2.15 4.7 3.213 4 2.523 8.61 6.017 4.61 3.494 16.05 9.1 16.05 17.072 0 7.97.6 10.693-3.1 10.098-4.52-.726-9.88-6.107-15.35-9.688C9.24 57.557 3.68 52.263 2.5 48.882c-1.19-3.382-1.464-5.24-1.464-9.094z"/>
      <path id="Path-3" d="M22.857 21.63s11.25-14.156 21.8-18.016c10.552-3.86 19.9-3.233 28.43 1.13 8.528 4.365 9.817 9.584 9.817 11.706 0 2.12-.383 14.418-5.1 19.682-4.718 5.264-20.11 12.136-20.11 12.136"/>
      <path id="Path-3" d="M22.857 21.63s11.25-14.156 21.8-18.016c10.552-3.86 19.9-3.233 28.43 1.13 8.528 4.365 9.817 9.584 9.817 11.706 0 2.12-.383 14.418-5.1 19.682-4.718 5.264-20.11 12.136-20.11 12.136"/>
      <path id="Path-4" d="M25.013 24.277s7.308-8.05 16.477-10.95c9.17-2.897 17.93-3.318 25.663-1.106 7.733 2.22 10.523 6.1 12.987 10.59"/>
      <path id="Path-5" d="M48.697 39.205s14.038-3.698 21.39-8.32c7.35-4.62 12.826-8.947 12.826-15.527"/>
    </g>
  </g>
</svg>
