<!--
Source:
* URL: https://thenounproject.com/term/samsung-gear/504802
* Author: Arthur Schmitt (https://thenounproject.com/tart2000)
-->
<svg xmlns="http://www.w3.org/2000/svg" viewBox="6 23 88 54">
  <path fill="#111" fill-rule="evenodd" d="M93.2 44.6c0-1.1 0-2.2-.2-3.3-.4-2.6-2.2-4.1-4.2-5.5-5-3.6-10.5-5.9-15.6-7.8-3.5-1.3-7.7-2.8-12-3.7-3.8-.8-7.9-1-13.3-.4-3.6.4-6.9.9-10.1 1.8l-.9.2c-2 .5-4 1.1-6 1.8-.9.4-1.9.5-2.9.5-.5 0-1.1.1-1.6.2-1 .2-2.1.3-3.1.5-4 .6-8.1 1.2-12.1 2.7-2.5 1-3.9 3-4 5.9L7 38.9c-.1 2.5-.3 5-.2 7.6.1 2.2.5 4.7 1.3 7.7.7 2.7 2.4 4.9 5.3 7 6.2 4.3 13.6 9.4 21.8 13.6 2 1 4.1 1.5 6.2 1.5h.1c3.3 0 6.9-.2 10.4-1.2 4.3-1.2 8.3-3.2 12.1-5 .9-.4 1.8-.9 2.7-1.3.3-.1.6-.3.9-.5.5-.2.9-.5 1.3-.6 1.8-.6 3.1-1.8 3.9-3.5 2.8-.1 4.9-1.5 7-3 .5-.3.9-.6 1.4-.9 3-1.9 5.4-3.6 7.4-5.4 3-2.6 4.5-5.9 4.5-9.6.1-.1.1-.4.1-.7zM89.5 39c-.2 0-.3.1-.4.3-.4.4-.4 1 0 1.4.2.2.6.6-.1 1.3-.7.8-1.6 1.4-2.7 2-.3-.3-.5-.6-.8-.8-.9-1-1.9-2-3-2.8-.7-.5-.8-.9-.9-1.8-.1-.5-.1-1-.1-1.6 0-1.1-.1-2.1-.1-3.2 2.2 1.1 4.3 2.3 6.4 3.8.5.3 1.1.8 1.7 1.4zm-57.8-9.4c.1-.1.3-.1.5-.2 0 1.4.1 2.6.5 3.7-.8-1-1.1-2.2-1-3.5zm2.5-.2c0-.2-.1-.4-.2-.6.6-.2 1.3-.4 1.9-.6.7.7 1.1 1.5 1.4 2.8.9 3.4 3.3 5.7 7.3 7.2 6.3 2.3 12.7 3.7 18.7 4.9 2.1.4 4.2 1 6.6 1.7 2.3.7 3.4 2.4 3.7 5.2 0 .2 0 .3.1.5-.3.1-.5.3-.8.4-.1-2.6-1.5-4.3-4-5-.5-.1-.9-.3-1.4-.4-.9-.3-1.9-.6-2.9-.8-1.6-.4-3.2-.8-4.9-1.2-2.8-.7-5.7-1.4-8.5-2.2l-.5-.3c-4-1.1-8.2-2.3-12-4.1-3.2-1.5-4.6-3.9-4.5-7.5zm36.7 21.4c-.2-.8-.6-1.6-1.2-2.3.8.5 1.2 1.3 1.2 2.3zm1.6 3.5l-.1-.8c.5-.2 1-.4 1.5-.7.3-.1.5-.3.8-.4.2-.1.3-.3.4-.4.1 0 .2-.1.2-.1l.3 2c.2 1.7.5 3.4.7 5.1.1.6.2 1.2.4 1.8 0 .1 0 .2.1.3-1.1.7-2.3 1.2-3.5 1.3-.2-2.8-.5-5.5-.8-8.1zm3.7-4.8c-.2 0-.4.1-.6.1-.4-3.5-2.1-5.8-5.1-6.7-2.5-.7-4.7-1.3-6.8-1.7-5.9-1.2-12.2-2.6-18.4-4.9-1.2-.4-2.2-1-3-1.6h.1c1.2-.3 2.4-.6 3.5-.7 2.2-.2 4.4-.1 6.7 0h1c2.4.1 4.9.2 7.3.6 2.5.4 5 1.1 7.5 1.7l.8.2c.3.1.8.5.9.7 1.1 2.4 3.2 3.4 5 4.3.3.1.5.2.8.4.9.4 1.7.6 2.5.6.9 0 1.8-.3 2.5-1 .1.1.3.2.4.3 1 .7 1.8 1.6 2.7 2.5l.4.4c-2.1 1.1-4.3 2.4-6.5 3.9-.5.6-1.1.7-1.7.9zm-3.9-12.4c0-.2.1-.3.1-.3s.1 0 .5.1c1.1.4 2.2.9 3.3 1.4 1 .5 1.8 1.2 2.3 2.2-.4 0-1-.1-1.6-.4-.3-.1-.5-.2-.8-.4-1.6-.6-3-1.2-3.8-2.6zm6.9-4.4v.9c0 1.1.1 2.3.1 3.4 0 .7.1 1.2.1 1.7-.7-.9-1.5-1.6-2.6-2.1s-2.2-1-3.3-1.4c-.8-.3-1.5-.4-2.1-.1-.1 0-.2.1-.2.2 0-.2-.1-.4-.1-.7-.2-.8-.4-1.6-.4-2.5-.1-.9-.1-1.8 0-2.8v-.1c.6.2 1.2.4 1.8.7 2.2.8 4.5 1.7 6.7 2.8zm-31.1-6.8c2.1-.2 4-.3 5.7-.3 2.6 0 4.8.2 7 .7 2.7.6 5.4 1.4 7.9 2.3v3.8c.1.8.2 1.5.4 2.2H69c-2.5-.7-5.1-1.4-7.7-1.8-2.5-.4-5.1-.5-7.5-.6h-1c-2.4-.1-4.7-.2-7 0-1.3.1-2.6.4-3.8.7-.5.1-.9.2-1.4.3-.6-.8-1-1.7-1.3-2.7-.2-.8-.6-1.9-1.2-2.8l.2-.1c3.1-.8 6.3-1.4 9.8-1.7zm-24.6 5c1.1-.2 2.1-.3 3.2-.5.5-.1 1-.1 1.5-.2.5 0 1.1-.1 1.6-.2 0 2.7 1.4 4.9 4 6.5.4.2.8.3 1.1.4.1 0 .2 0 .3.1h.2c.7.6 1.6 1.2 2.6 1.7 4 1.9 8.2 3.1 12.3 4.3l.6.2c2.8.8 5.8 1.5 8.6 2.2l4.8 1.2c.1.1.1.2.2.3l.9.7c.7.5 1.5 1 2.2 1.6.4.3.8.7 1 1.1-.2-.2-.6-.4-1-.3-1 .3-2 .5-3 .8-2.3.6-4.7 1.3-7.1 1.9h-.2c-1-1.7-2.7-3-5-4-3.6-1.6-7.3-3.1-10.9-4.5-1.6-.6-3.3-1.3-4.9-2-6.1-2.5-12.5-5.5-17.9-10.4 1.6-.4 3.2-.6 4.9-.9zm33 29.1c-.4 3.7-1 6.6-2 9.1-.2.5-.5.9-.8 1.4-.2.3-.4.7-.6 1.1-.2.4-.3.7-.4 1 0 .1 0 .1-.1.2h-.1c0-.6-.5-1-1-1h-.9c-.6 0-1.2.1-1.9.1.1-.8.2-1.7.4-2.5l.1-.6c1.8-.2 2.3-.6 2.6-2.8 0-.2.1-.4.1-.6.1-.4.1-.7.2-1.1.3-1.3.5-2.1-.1-2.7-.4-.5-.9-.6-1.8-.6 0-.2.1-.4.1-.5.3-1.5.9-2.4 2-2.8.5-.2 1.1-.5 1.6-.7l.7-.3c.5-.2.7-.8.5-1.3-.1-.2-.2-.3-.4-.4.4-.1.9-.2 1.3-.3.6 1.6.7 3.3.5 5.3zM16.2 32.2c.1.2.3.4.5.6.5.5 1.1 1 1.7 1.5-.2.1-.4.2-.6.4-.1.1-.1.2-.1.3-1.4-.9-2.9-1.5-4.5-1.9l3-.9zm9.2 6.9c1.8 1 3.5 1.9 5.3 2.7 0 .1-.1.2-.1.2-1-.5-2.1-1-3.1-1.5-.8-.4-1.6-.8-2.3-1.2.1 0 .1-.1.2-.2zm17.4 8.4c.1-.2.1-.4.1-.6 2.9 1.1 5.8 2.3 8.6 3.6 1.7.8 2.9 1.6 3.7 2.7-.8.1-1.5.3-2.3.4-.7.1-1.4.2-2.1.4-.4.1-.7.1-1.1.2l-.4.1c-.5.1-.9.6-.8 1.2.1.5.5.8 1 .8h.2l.4-.1c.4-.1.8-.1 1.1-.2.6-.1 1.1-.2 1.7-.3-.4.2-.8.4-1.2.5-1.6.6-2.5 1.8-3 3.6-.1-4.9-2.3-9.1-6.2-11.8.1-.2.2-.4.3-.5zM50 63.3h.4c0 .2-.1.6-.2.9-.1.4-.2.8-.2 1.2l-.1.6c-.1.4-.2.9-.2 1-.1 0-.2.1-.4.1.2-1.2.4-2.4.6-3.5 0-.2.1-.2.1-.3zm-2.9 10.3c.2.2.4.3.8.4-.9.1-1.7.2-2.6.3.6-.8 1.1-1.7 1.5-2.5v.2c-.2.7 0 1.2.3 1.6zm-5.5.8c-1.9 0-3.6-.4-5.4-1.3-8.1-4.2-15.5-9.1-21.6-13.5-2.5-1.8-4-3.7-4.5-5.9-.7-2.9-1.1-5.3-1.2-7.4-.1-2.4 0-4.9.2-7.4l.1-1.4c.1-1.4.5-2.5 1.4-3.2l.2.1c.2.1.5.2.8.2 1.9.4 3.6 1 5.2 2 3.1 1.8 6.4 3.8 9.9 5.6 2.4 1.2 4.9 2.4 7.3 3.5 1.8.8 3.6 1.7 5.3 2.5 2.6 1.2 8.4 5.1 7.2 13.9-.1.5-.1 1.1-.1 1.7 0 .6-.1 1.2-.2 1.7l-.2.8c-.5 2.8-.9 5.5-3 7.5-.2.2-.3.4-.3.6h-1.1zm21.6-6c-2.6 1.3-5.3 2.5-8 3.6.1-.1.1-.2.2-.4.3-.5.7-1.1.9-1.7 1-2.8 1.7-5.8 2.1-9.6.2-2.3.2-4.2-.3-5.8 2.3-.6 4.7-1.2 6.9-1.8 1-.3 2-.6 3-.8.5-.1.8-.6.7-1.2.1.3.2.6.3 1 0 .1 0 .2.1.3-.6.6-.7 1.4-.8 1.9-.1.6-.1 1.2-.2 1.8-.2 2.5-.4 4.8-1.2 7.1-.3 1-.5 2-.7 3-.1.4-.1.8-.2 1.2-.1 0-.1.1-.2.1-.7.4-1.7.8-2.6 1.3zm5.2-2.5c.1-.9.3-1.7.6-2.4.9-2.5 1.1-5.1 1.3-7.6 0-.6.1-1.2.2-1.8 0-.2 0-.4.1-.5l.1.9c.3 2.8.6 5.6.8 8.3v.2c0 .1 0 .2-.1.2l-.1.1c-.7 1.3-1.6 2.1-2.9 2.6zm19-12.4c-1.9 1.7-4.2 3.3-7.1 5.2-.5.3-1 .6-1.5 1l-.1.1-.3-1.2c-.3-1.7-.5-3.4-.7-5l-.3-2.1c0-.1 0-.1-.1-.2.6-.2 1.2-.4 1.8-.8 2.4-1.7 4.7-3.1 7-4.2.4-.2.7-.3 1-.5l.1.3c.2 1 .4 2.1.6 3.1.1.7.3 1.5.4 2.2l.2.8c0 .1.1.2.1.2-.4.4-.7.8-1.1 1.1zm2.6-3.2c-.1-.5-.2-.9-.3-1.4-.2-1-.4-2.1-.6-3.1l-.2-1c.6-.4 1.1-.9 1.6-1.4.3-.3.5-.6.6-.9.1.7.1 1.5.1 2.3v.9c0 1.5-.4 3.1-1.2 4.6z"/>
</svg>
