<!--
Source:
* URL: https://paulrobertlloyd.com/images/articles/beige_to_bondiblue/apple_logo_rainbow.svg
-->
<svg xmlns="http://www.w3.org/2000/svg" viewBox="0 0 495 550">
  <path fill="#61BB46" d="M310.2 89C328 66 341.5 33.6 336.6.5c-29 2-63 20.6-83 44.8-18 22-33 54.6-27 86.3 31.6 1 64.5-18 83.6-42.6zM25 197.7l.5-.8c28-44 72.4-69 114-69 42.4 0 69 23 104 23 34 0 55-23.4 104-23.4 37 0 76.2 20.2 104.2 55.3-7.8 4.2-14.7 9-21 14.4H25z"/>
  <path fill="#FDB827" d="M23.5 197C11.5 216 3 243.5 1 267.4h392c4.4-26.4 18.5-51.4 41-70.4H23.5z"/>
  <path fill="#F5821F" d="M4.4 337c-3.8-24.6-4.4-48-2-69.7h389.2c-3.8 23.4-.6 47.8 9 69.6H4.4z"/>
  <path fill="#E03A3E" d="M23.4 406.4C14.4 383 8 359.6 4.4 337h396.2c12.3 27.6 35 51.2 67 63.4-1 2-2 4-2.8 6H23.4z"/>
  <path fill="#963D97" d="M464.8 406.5c-11 24.2-17.4 36.7-32.6 60-2 3-4 6.3-6.3 9.5H60l-3.5-5.2c-13.6-21-24.7-42.6-33.3-64.4h441.4z"/>
  <path fill="#009DDC" d="M426 476c-22.5 33-52.5 69-89 69.4-35.5.4-44.6-23.2-93-23-48 .3-58.2 23.5-93.7 23-38-.2-67.6-35.8-90-69.4H426z"/>
</svg>
