<?xml version="1.0" encoding="UTF-8" standalone="no"?>
<svg width="256px" height="256px" viewBox="0 0 256 256" version="1.1" xmlns="http://www.w3.org/2000/svg" xmlns:xlink="http://www.w3.org/1999/xlink">
    <!-- Generator: Sketch 41.2 (35397) - http://www.bohemiancoding.com/sketch -->
    <title>logo-256</title>
    <desc>Created with Sketch.</desc>
    <defs></defs>
    <g id="Page-1" stroke="none" stroke-width="1" fill="none" fill-rule="evenodd">
        <g id="logo-256" fill="#24AEF4">
            <path d="M246.4,40 L9.6,40 C4.8,40 0,44.8 0,51.2 L0,204.8 C0,209.6 4.8,216 9.6,216 L246.4,216 C252.8,216 256,209.6 256,203.2 L256,51.2 C256,44.8 251.2,40 246.4,40 Z M176,184 L32,184 L32,72 L224,72 L224,184 L176,184 Z M176,152 C189.248,152 200,141.248 200,128 C200,114.752 189.248,104 176,104 C162.752,104 152,114.752 152,128 C152,141.248 162.752,152 176,152 Z M80,152 C93.248,152 104,141.248 104,128 C104,114.752 93.248,104 80,104 C66.752,104 56,114.752 56,128 C56,141.248 66.752,152 80,152 Z" id="Shape"></path>
        </g>
    </g>
</svg>