<?xml version="1.0" encoding="UTF-8" standalone="no"?>
<svg width="84px" height="84px" viewBox="0 0 84 84" version="1.1" xmlns="http://www.w3.org/2000/svg" xmlns:xlink="http://www.w3.org/1999/xlink">
    <!-- Generator: Sketch 41.2 (35397) - http://www.bohemiancoding.com/sketch -->
    <title>mask-84</title>
    <desc>Created with Sketch.</desc>
    <defs></defs>
    <g id="Page-1" stroke="none" stroke-width="1" fill="none" fill-rule="evenodd">
        <g id="mask-84" fill="#000000">
            <path d="M80.85,13 L3.15,13 C1.575,13 0,14.575 0,16.675 L0,67.075 C0,68.65 1.575,70.75 3.15,70.75 L80.85,70.75 C82.95,70.75 84,68.65 84,66.55 L84,16.675 C84,14.575 82.425,13 80.85,13 Z M57.75,60.25 L10.5,60.25 L10.5,23.5 L73.5,23.5 L73.5,60.25 L57.75,60.25 Z M57.75,49.75 C62.097,49.75 65.625,46.222 65.625,41.875 C65.625,37.528 62.097,34 57.75,34 C53.403,34 49.875,37.528 49.875,41.875 C49.875,46.222 53.403,49.75 57.75,49.75 Z M26.25,49.75 C30.597,49.75 34.125,46.222 34.125,41.875 C34.125,37.528 30.597,34 26.25,34 C21.903,34 18.375,37.528 18.375,41.875 C18.375,46.222 21.903,49.75 26.25,49.75 Z" id="Shape"></path>
        </g>
    </g>
</svg>