<svg xmlns="http://www.w3.org/2000/svg" viewBox="0 0 31 32">
  <title>
    DD_Favicon_40
  </title>
  <defs>
    <linearGradient id="a" x1="12.193%" x2="95.098%" y1="8.224%" y2="96.519%">
      <stop stop-color="#1DE9B6" offset="0%"/>
      <stop stop-color="#2979FF" offset="100%"/>
    </linearGradient>
  </defs>
  <path fill="url(#a)" fill-rule="evenodd" d="M28.742 17.943c-.212-.212-.554-.245-.806-.08-2.898 1.894-5.664 1.884-6.98 1.732-.115-.013-.11-.176.006-.188 2.118-.2 4.205-.953 6.02-2.3.074-.053.14-.114.21-.17l.03-.01-.003-.003-.01-.003c1.48-1.19 2.38-2.85 2.63-4.59.26-1.84-.19-3.77-1.41-5.36-.77-1.005-1.88-1.61-3.05-1.773-.59-.082-1.205-.05-1.798.104-.296.076-.5.35-.48.65.214 3.384-1.15 5.725-1.945 6.784-.07.094-.21.008-.164-.097.874-1.9 1.25-4.047.975-6.257-.01-.106-.027-.205-.044-.305-.31-1.857-1.325-3.444-2.736-4.53C17.715.4 15.79-.187 13.78.058c-1.27.15-2.356.79-3.085 1.706-.367.46-.644 1-.807 1.584-.08.287.062.594.333.727 3.09 1.51 4.46 3.847 5 5.05.05.105-.1.184-.17.09-1.23-1.69-2.93-3.082-5.01-3.952-.09-.04-.19-.075-.282-.11-1.79-.665-3.695-.594-5.355.066C2.65 5.91 1.17 7.26.38 9.1c-.5 1.16-.48 2.4-.04 3.48.222.54.557 1.05.985 1.48.214.213.555.245.808.08 2.9-1.894 5.668-1.88 6.98-1.73.116.015.112.18-.005.19-2.117.2-4.2.954-6.015 2.3-.07.05-.133.11-.2.163l-.045.015.01.002.01.005C1.37 16.275.47 17.93.22 19.68c-.262 1.837.188 3.773 1.405 5.364.77 1.01 1.876 1.614 3.046 1.777.59.08 1.2.05 1.79-.1.3-.07.5-.35.48-.65-.21-3.41 1.18-5.76 1.97-6.81.07-.09.21 0 .17.1-.884 1.91-1.264 4.06-.99 6.28.01.1.028.19.044.29v.01c.31 1.86 1.326 3.45 2.738 4.536 1.49 1.143 3.417 1.728 5.427 1.486 1.27-.152 2.356-.79 3.084-1.706.367-.464.643-1 .807-1.584.08-.288-.062-.596-.333-.728-3.11-1.52-4.486-3.88-5.01-5.076-.047-.106.1-.184.167-.09 1.236 1.702 2.94 3.102 5.03 3.976.09.034.183.07.275.103l.004.005v-.002c1.792.667 3.7.597 5.36-.065 1.75-.695 3.23-2.045 4.02-3.88.5-1.16.48-2.403.04-3.482-.224-.54-.56-1.042-.99-1.472"/>
</svg>
