<svg xmlns:dc="http://purl.org/dc/elements/1.1/" xmlns:cc="http://creativecommons.org/ns#" xmlns:rdf="http://www.w3.org/1999/02/22-rdf-syntax-ns#" xmlns:svg="http://www.w3.org/2000/svg" xmlns="http://www.w3.org/2000/svg" xmlns:sodipodi="http://sodipodi.sourceforge.net/DTD/sodipodi-0.dtd" xmlns:inkscape="http://www.inkscape.org/namespaces/inkscape" viewBox="0 0 47.999998 47.999997" version="1.1" x="0px" y="0px"><g transform="translate(0,-1004.3622)"><path style="" d="M 10.144531 0 C 4.5247509 0 0 4.5247509 0 10.144531 L 0 37.855469 C 0 43.475249 4.5247509 48 10.144531 48 L 37.855469 48 C 43.475249 48 48 43.475249 48 37.855469 L 48 10.144531 C 48 4.5247509 43.475249 0 37.855469 0 L 10.144531 0 z M 17.888672 12.490234 L 19.080078 12.490234 L 19.244141 13.253906 C 19.284021 13.437606 19.436096 13.592066 19.619141 13.634766 C 20.153686 13.760466 20.654483 13.956616 21.095703 14.228516 C 21.253026 14.326516 21.465724 14.326516 21.623047 14.228516 L 22.287109 13.8125 L 23.162109 14.6875 L 22.746094 15.351562 C 22.648464 15.508963 22.648464 15.721506 22.746094 15.878906 C 23.026023 16.332806 23.249242 16.837669 23.371094 17.355469 C 23.414174 17.537369 23.567506 17.688216 23.75 17.728516 L 24.484375 17.892578 L 24.484375 19.148438 L 23.693359 19.314453 C 23.510427 19.352453 23.355505 19.502094 23.310547 19.683594 C 23.174956 20.229194 23.010025 20.713559 22.748047 21.130859 C 22.650007 21.287059 22.648431 21.49865 22.744141 21.65625 L 23.160156 22.34375 L 22.292969 23.173828 L 21.623047 22.753906 C 21.465724 22.655906 21.253026 22.655906 21.095703 22.753906 C 20.641957 23.033506 20.165509 23.222756 19.621094 23.347656 C 19.437342 23.389656 19.284318 23.544316 19.244141 23.728516 L 19.080078 24.490234 L 17.888672 24.490234 L 17.722656 23.701172 C 17.684026 23.517772 17.53369 23.362659 17.351562 23.318359 C 16.808691 23.186659 16.310154 22.997609 15.875 22.724609 C 15.717252 22.626609 15.503452 22.626609 15.345703 22.724609 L 14.626953 23.167969 L 13.796875 22.298828 L 14.222656 21.595703 C 14.317256 21.440103 14.317256 21.231772 14.222656 21.076172 C 13.962995 20.650572 13.781853 20.17695 13.65625 19.65625 C 13.61404 19.47755 13.465587 19.328356 13.287109 19.285156 L 12.484375 19.095703 L 12.484375 17.886719 L 13.287109 17.697266 C 13.465105 17.654266 13.613405 17.506125 13.65625 17.328125 C 13.781853 16.807525 13.962969 16.334003 14.222656 15.908203 C 14.317836 15.752903 14.318569 15.544672 14.224609 15.388672 L 13.802734 14.691406 L 14.681641 13.8125 L 15.34375 14.228516 C 15.501499 14.326516 15.715298 14.326516 15.873047 14.228516 C 16.291518 13.967816 16.800128 13.797763 17.351562 13.664062 C 17.53369 13.620062 17.684024 13.46465 17.722656 13.28125 L 17.888672 12.490234 z M 18.484375 15.490234 C 16.833318 15.490234 15.484375 16.839734 15.484375 18.490234 C 15.484375 20.140735 16.833318 21.490234 18.484375 21.490234 C 20.13543 21.490234 21.484375 20.140735 21.484375 18.490234 C 21.484375 16.839734 20.13543 15.490234 18.484375 15.490234 z M 18.484375 16.490234 C 19.594743 16.490234 20.484375 17.380334 20.484375 18.490234 C 20.484375 19.600135 19.594743 20.490234 18.484375 20.490234 C 17.374005 20.490234 16.484375 19.600135 16.484375 18.490234 C 16.484375 17.380334 17.374005 16.490234 18.484375 16.490234 z M 31.208984 18.490234 L 31.808594 18.490234 L 31.904297 18.888672 C 31.946817 19.067872 32.096206 19.217266 32.275391 19.259766 C 32.621395 19.340766 32.952896 19.481716 33.251953 19.666016 C 33.410125 19.765016 33.625031 19.765016 33.783203 19.666016 L 34.132812 19.445312 L 34.564453 19.876953 L 34.34375 20.226562 C 34.243415 20.384063 34.241828 20.598912 34.339844 20.757812 C 34.524043 21.056513 34.664701 21.388475 34.746094 21.734375 C 34.788614 21.913575 34.938002 22.062969 35.117188 22.105469 L 35.515625 22.201172 L 35.515625 22.816406 L 35.089844 22.914062 C 34.910915 22.955063 34.760889 23.10305 34.716797 23.28125 C 34.631927 23.62275 34.495532 23.933816 34.310547 24.228516 C 34.211747 24.385116 34.210166 24.597859 34.306641 24.755859 L 34.539062 25.138672 L 34.132812 25.544922 L 33.783203 25.322266 C 33.625031 25.223266 33.410125 25.223266 33.251953 25.322266 C 32.972999 25.494166 32.627604 25.609766 32.246094 25.697266 C 32.064524 25.739266 31.912932 25.890766 31.871094 26.072266 L 31.773438 26.496094 L 31.208984 26.496094 L 31.130859 26.089844 C 31.094589 25.903144 30.942656 25.744019 30.757812 25.699219 C 30.398011 25.612219 30.031368 25.469469 29.75 25.292969 C 29.586229 25.189569 29.36116 25.193734 29.201172 25.302734 L 28.857422 25.537109 L 28.435547 25.117188 L 28.683594 24.738281 C 28.785873 24.581181 28.789051 24.365078 28.691406 24.205078 C 28.510161 23.908078 28.359211 23.577106 28.28125 23.253906 C 28.23779 23.074906 28.087613 22.926266 27.908203 22.884766 L 27.484375 22.787109 L 27.484375 22.193359 L 27.925781 22.074219 C 28.097856 22.027219 28.239376 21.882284 28.28125 21.708984 C 28.35777 21.391884 28.502774 21.098363 28.691406 20.789062 C 28.789036 20.628962 28.785864 20.412959 28.683594 20.255859 L 28.435547 19.876953 L 28.865234 19.447266 L 29.214844 19.667969 C 29.373438 19.767969 29.589453 19.767969 29.748047 19.667969 C 30.008115 19.505969 30.380032 19.382816 30.757812 19.291016 C 30.942656 19.246016 31.094594 19.087091 31.130859 18.900391 L 31.208984 18.492188 L 31.208984 18.490234 z M 31.515625 20.240234 C 30.282065 20.240234 29.265625 21.257134 29.265625 22.490234 C 29.265625 23.723335 30.292926 24.708984 31.515625 24.708984 C 32.738323 24.708984 33.734375 23.712435 33.734375 22.490234 C 33.734375 21.268034 32.749184 20.240234 31.515625 20.240234 z M 31.515625 21.240234 C 32.197144 21.240234 32.734375 21.798234 32.734375 22.490234 C 32.734375 23.182234 32.208005 23.708984 31.515625 23.708984 C 30.823245 23.708984 30.265625 23.171334 30.265625 22.490234 C 30.265625 21.809134 30.834106 21.240234 31.515625 21.240234 z M 24.792969 28.490234 L 25.236328 28.490234 L 25.306641 28.816406 C 25.346521 29.000106 25.498596 29.154566 25.681641 29.197266 C 25.992498 29.270266 26.278516 29.384016 26.533203 29.541016 C 26.694412 29.638016 26.911563 29.633297 27.068359 29.529297 L 27.347656 29.347656 L 27.669922 29.681641 L 27.492188 29.978516 C 27.398757 30.134816 27.400334 30.343147 27.496094 30.498047 C 27.652963 30.752447 27.766684 31.038709 27.839844 31.349609 C 27.882624 31.530909 28.035008 31.681756 28.216797 31.722656 L 28.515625 31.789062 L 28.515625 32.236328 L 28.189453 32.306641 C 28.007928 32.346641 27.854911 32.495381 27.810547 32.675781 C 27.732677 32.989181 27.616823 33.290397 27.466797 33.529297 C 27.368937 33.684697 27.366616 33.895134 27.460938 34.052734 L 27.634766 34.34375 L 27.34375 34.634766 L 27.052734 34.460938 C 26.897134 34.365937 26.688803 34.365937 26.533203 34.460938 C 26.28237 34.615438 25.975645 34.730287 25.652344 34.804688 C 25.468592 34.846688 25.315568 35.001347 25.275391 35.185547 L 25.205078 35.509766 L 24.796875 35.509766 L 24.722656 35.158203 C 24.684026 34.974803 24.53369 34.819691 24.351562 34.775391 C 24.032842 34.698391 23.748824 34.587741 23.5 34.431641 C 23.342251 34.333641 23.128452 34.333641 22.970703 34.431641 L 22.650391 34.628906 L 22.341797 34.320312 L 22.527344 34.035156 C 22.629623 33.877956 22.632801 33.661953 22.535156 33.501953 C 22.379496 33.246753 22.25728 32.965081 22.1875 32.675781 C 22.14498 32.501581 22.001621 32.355847 21.828125 32.310547 L 21.484375 32.220703 L 21.484375 31.773438 L 21.828125 31.683594 C 22.001621 31.638594 22.144979 31.492559 22.1875 31.318359 C 22.25728 31.029159 22.379495 30.747488 22.535156 30.492188 C 22.632786 30.332187 22.629614 30.116084 22.527344 29.958984 L 22.341797 29.673828 L 22.675781 29.339844 L 22.960938 29.525391 C 23.118515 29.629791 23.336778 29.633556 23.498047 29.535156 C 23.74467 29.381456 24.038691 29.265253 24.351562 29.189453 C 24.5327 29.145453 24.682715 28.992547 24.722656 28.810547 L 24.792969 28.490234 z M 25.015625 29.958984 C 23.897626 29.958984 22.984375 30.872634 22.984375 31.990234 C 22.984375 33.107835 23.885386 34.052734 25.015625 34.052734 C 26.145862 34.052734 27.046875 33.107835 27.046875 31.990234 C 27.046875 30.872634 26.133622 29.958984 25.015625 29.958984 z M 25.015625 30.958984 C 25.602411 30.958984 26.046875 31.403834 26.046875 31.990234 C 26.046875 32.576634 25.590171 33.052734 25.015625 33.052734 C 24.441078 33.052734 23.984375 32.576634 23.984375 31.990234 C 23.984375 31.403834 24.428838 30.958984 25.015625 30.958984 z " transform="translate(0,1004.3622)" fill="#000000" fill-opacity="1" stroke="none"></path></g></svg>
