<svg xmlns="http://www.w3.org/2000/svg" id="Layer_1" viewBox="0 0 576 268">
  <style>
    .st0{fill:#ccc;}
  </style>
  <g id="Layer_2">
    <path d="M263.5 105.5c3.9 1.7 4.2 3 1.1 8.8-3.1 6-3.9 6.3-7.7 4.8-4.8-2.1-11-3.6-15-3.6-6.5 0-10.9 2.3-10.9 5.9 0 11.7 37.4 5.4 37.4 30.4 0 12.6-10.8 21-27 21-8.5 0-19-2.8-26.3-6.5-3.6-1.8-3.8-2.9-.7-8.9 2.7-5.3 3.6-5.8 7.5-4.2 6.2 2.7 14 4.8 19.3 4.8 6 0 9.9-2.4 9.9-6 0-11.4-38.1-6-38.1-30.2 0-12.9 10.7-21.5 26.8-21.5 7.6-.1 17.1 2.2 23.7 5.2zm30.2-29.7V169c0 1.4-1.5 2.9-3.6 2.9h-9.8c-2.1 0-3.6-1.5-3.6-2.9V75.8c0-4.6 1.3-5 8.5-5 8.2-.1 8.5.5 8.5 5zm69.7 52.4v40.1c0 2.1-1.5 3.6-3.6 3.6h-9.7c-2.2 0-3.8-1.6-3.6-3.8l.1-4.3c-5.3 5.8-12.8 8.9-20.3 8.9-14.6 0-24.4-8.5-24.4-21.1 0-13.4 11.1-22.5 27.7-22.5 6.3 0 12.1 1.1 16.8 3.1v-4.6c0-7.4-5.8-11.8-15.7-11.8-4.6 0-10.3 1.8-14.8 4.5-3.5 2-4.3 1.8-8.1-3.8-3.7-5.6-3.6-6.7 0-9 6.8-4.4 16.1-7.2 24.6-7.2 19-.1 31 10.3 31 27.9zm-45.2 23.2c0 4.8 4 8 10.2 8 7.4 0 14.1-3.6 18-9.6v-6.3c-3.9-1.5-8.7-2.3-12.9-2.3-9.2 0-15.3 4.3-15.3 10.2zm111.7-45.8c3.6 2.1 3.7 3.2-.2 9.2-3.7 5.7-4.3 6-8.2 4-3-1.6-7.7-2.9-11.7-2.9-12.3 0-20.5 8.1-20.5 20.3 0 12.7 8.2 21.2 20.5 21.2 4.3 0 9.6-1.6 13.1-3.6 3.6-2.1 4.3-1.9 8.1 3.6 3.4 5.1 3.3 6.3.3 8.5-5.5 3.8-14.1 6.7-21.7 6.7-22.7 0-37.9-14.6-37.9-36.4 0-21.7 15.2-36.1 38.1-36.1 6.8.1 15 2.5 20.1 5.5zm74.2 57.5c2.8 3.6 1.7 4.9-5.4 7.5-7.2 2.6-8.2 2.5-10.8-.9l-20.3-27.1-9.1 8.8V169c0 1.4-1.5 2.9-3.6 2.9H445c-2.1 0-3.6-1.5-3.6-2.9V75.8c0-4.6 1.3-5 8.5-5 8.2 0 8.5.6 8.5 5v53l27.8-26.7c3.1-2.9 4.8-2.7 10.2.9 6 3.9 6.5 5 3.6 7.8L479.3 131l24.8 32.1zm-390.448-33.56l16.69-5.59 5.398 16.12-16.688 5.588z" class="st0"/>
    <path d="M113.652 129.54l16.69-5.59 5.398 16.12-16.688 5.588z" class="st0"/>
    <path d="M182 117.5c-12.9-43-31.5-53-74.5-40.1s-53 31.5-40.1 74.5 31.5 53 74.5 40.1 53-31.5 40.1-74.5zm-21.7 27.9l-8.1 2.7 2.8 8.4c1.1 3.4-.7 7.1-4.1 8.2-.7.2-1.5.4-2.2.3-2.6-.1-5.1-1.8-6-4.4l-2.8-8.4-16.7 5.6 2.8 8.4c1.1 3.4-.7 7.1-4.1 8.2-.7.2-1.5.4-2.2.3-2.6-.1-5.1-1.8-6-4.4l-2.8-8.4-8.1 2.7c-.7.2-1.5.4-2.2.3-2.6-.1-5.1-1.8-6-4.4-1.1-3.4.7-7.1 4.1-8.2l8.1-2.7-5.4-16.1-8.1 2.7c-.7.2-1.5.4-2.2.3-2.6-.1-5.1-1.8-6-4.4-1.1-3.4.7-7.1 4.1-8.2l8.1-2.7-2.8-8.4c-1.1-3.4.7-7.1 4.1-8.2s7.1.7 8.2 4.1l2.8 8.4 16.7-5.6-2.8-8.4c-1.1-3.4.7-7.1 4.1-8.2s7.1.7 8.2 4.1l2.8 8.4 8.1-2.7c3.4-1.1 7.1.7 8.2 4.1 1.1 3.4-.7 7.1-4.1 8.2l-8.1 2.7 5.4 16.1 8.1-2.7c3.4-1.1 7.1.7 8.2 4.1 1.1 3.4-.7 7.1-4.1 8.2z" class="st0"/>
  </g>
</svg>
