<svg xmlns="http://www.w3.org/2000/svg" viewBox="0 0 123 123">
  <title>
    slack-color
  </title>
  <g fill="none" fill-rule="evenodd">
    <path fill="#ECB32D" d="M79.3 8.1c-1.9-5.7-8-8.8-13.7-7-5.7 1.9-8.8 8-7 13.7l28.1 86.4c1.9 5.3 7.7 8.3 13.2 6.7 5.8-1.7 9.3-7.8 7.4-13.4 0-.2-28-86.4-28-86.4z"/>
    <path fill="#63C1A0" d="M35.8 22.2c-1.9-5.7-8-8.8-13.7-7-5.7 1.9-8.8 8-7 13.7l28.1 86.4c1.9 5.3 7.7 8.3 13.2 6.7 5.8-1.7 9.3-7.8 7.4-13.4 0-.2-28-86.4-28-86.4z"/>
    <path fill="#E01A59" d="M114.7 79.6c5.7-1.9 8.8-8 7-13.7-1.9-5.7-8-8.8-13.7-7L21.5 87.1c-5.3 1.9-8.3 7.7-6.7 13.2 1.7 5.8 7.8 9.3 13.4 7.4.2 0 86.5-28.1 86.5-28.1z"/>
    <path fill="#331433" d="M39.5 104.1c5.6-1.8 12.9-4.2 20.7-6.7-1.8-5.6-4.2-12.9-6.7-20.7l-20.7 6.7 6.7 20.7z"/>
    <path fill="#D62027" d="M83.1 89.9c7.8-2.5 15.1-4.9 20.7-6.7-1.8-5.6-4.2-12.9-6.7-20.7l-20.7 6.7 6.7 20.7z"/>
    <path fill="#89D3DF" d="M100.5 36.1c5.7-1.9 8.8-8 7-13.7-1.9-5.7-8-8.8-13.7-7L7.4 43.5C2.1 45.4-.9 51.2.7 56.7c1.7 5.8 7.8 9.3 13.4 7.4.2 0 86.4-28 86.4-28z"/>
    <path fill="#258B74" d="M25.4 60.5c5.6-1.8 12.9-4.2 20.7-6.7-2.5-7.8-4.9-15.1-6.7-20.7l-20.7 6.7 6.7 20.7z"/>
    <path fill="#819C3C" d="M68.9 46.4c7.8-2.5 15.1-4.9 20.7-6.7-2.5-7.8-4.9-15.1-6.7-20.7l-20.7 6.7 6.7 20.7z"/>
  </g>
</svg>
