<!--
Source:
* URL: https://commons.wikimedia.org/wiki/File%3AWindows_logo_-_2012.svg
* By Original: Rob Janoff [Public domain], via Wikimedia Commons
https://commons.wikimedia.org/wiki/File%3AApple_logo_black.svg
-->
<svg xmlns="http://www.w3.org/2000/svg" viewBox="0 0 170 170">
  <path fill="#111" d="M150.37 130.25c-2.45 5.66-5.35 10.87-8.71 15.66-4.58 6.53-8.33 11.05-11.22 13.56-4.48 4.12-9.28 6.23-14.42 6.35-3.69 0-8.14-1.05-13.32-3.18-5.197-2.12-9.973-3.17-14.34-3.17-4.58 0-9.492 1.05-14.746 3.17-5.262 2.13-9.5 3.24-12.742 3.35-4.93.21-9.842-1.96-14.746-6.52-3.13-2.73-7.045-7.41-11.735-14.04-5.03-7.08-9.168-15.29-12.41-24.65-3.47-10.11-5.21-19.9-5.21-29.378 0-10.857 2.346-20.22 7.045-28.068C27.508 57.03 32.42 52.06 38.57 48.41s12.793-5.51 19.948-5.63c3.915 0 9.05 1.21 15.43 3.59 6.36 2.39 10.446 3.6 12.237 3.6 1.34 0 5.877-1.416 13.57-4.24 7.275-2.617 13.415-3.7 18.445-3.274 13.63 1.1 23.87 6.473 30.68 16.153-12.19 7.385-18.22 17.73-18.1 31 .11 10.338 3.86 18.94 11.23 25.77 3.34 3.17 7.07 5.62 11.22 7.36-.9 2.61-1.85 5.11-2.86 7.51zM119.11 7.24c0 8.102-2.96 15.667-8.86 22.67-7.12 8.323-15.732 13.133-25.07 12.374-.12-.972-.19-1.995-.19-3.07 0-7.778 3.387-16.102 9.4-22.908 3.002-3.446 6.82-6.31 11.45-8.597 4.62-2.253 8.99-3.498 13.1-3.71.12 1.082.17 2.165.17 3.24z"/>
</svg>
