# Blender v2.78 (sub 0) OBJ File: 'Objects-for-Scale.blend'
# www.blender.org
mtllib meter-stick.mtl
o Cube
v 0.000088 0.000084 0.002500
v 0.000088 1.026014 0.002500
v 0.000088 0.000084 -0.002500
v 0.000088 1.026014 -0.002500
v 0.040088 0.000084 0.002500
v 0.040088 1.026014 0.002500
v 0.040088 0.000084 -0.002500
v 0.040088 1.026014 -0.002500
vt 0.5057 0.1751
vt 0.7445 0.1751
vt 0.7445 0.4138
vt 0.5057 0.4138
vt 0.7445 0.6526
vt 0.5057 0.6526
vt 0.7445 0.8913
vt 0.5057 0.8913
vt 0.2500 0.0028
vt 0.2500 0.9999
vt 0.0001 0.9999
vt 0.0001 0.0028
vt 0.2670 0.6526
vt 0.2670 0.4138
vt 0.9832 0.4138
vt 0.9832 0.6526
vn -1.0000 0.0000 0.0000
vn 0.0000 0.0000 -1.0000
vn 1.0000 0.0000 0.0000
vn 0.0000 0.0000 1.0000
vn 0.0000 -1.0000 0.0000
vn 0.0000 1.0000 0.0000
usemtl meter-stik-material
s off
f 1/1/1 2/2/1 4/3/1 3/4/1
f 3/4/2 4/3/2 8/5/2 7/6/2
f 7/6/3 8/5/3 6/7/3 5/8/3
f 5/9/4 6/10/4 2/11/4 1/12/4
f 3/4/5 7/6/5 5/13/5 1/14/5
f 8/5/6 4/3/6 2/15/6 6/16/6
