<svg xmlns="http://www.w3.org/2000/svg" viewBox="0 0 93 93" xmlns:xlink="http://www.w3.org/1999/xlink">
  <title>chrome</title>
  <g fill-rule="evenodd">
    <path fill="#fff" d="M46.76 92.16c-2.88 0-5.79-.276-8.644-.82-12.06-2.296-22.505-9.152-29.41-19.304C1.8 61.884-.736 49.65 1.56 37.59 5.684 15.935 24.65.216 46.664.216c2.882 0 5.792.275 8.646.82 12.06 2.296 22.505 9.15 29.41 19.303 6.905 10.15 9.44 22.38 7.145 34.44-4.122 21.66-23.09 37.38-45.105 37.38zm-.097-86.944c-19.614 0-36.516 14.008-40.19 33.31-2.046 10.748.215 21.65 6.37 30.697 6.152 9.048 15.46 15.158 26.21 17.205 2.546.485 5.14.73 7.71.73 19.615 0 36.517-14.01 40.19-33.31C89 43.1 86.738 32.198 80.585 23.15 74.432 14.105 65.123 7.995 54.373 5.948c-2.547-.485-5.142-.73-7.71-.73z"/>
    <path fill="#fff" d="M31.81 53.44c-.058 0-.116-.002-.174-.006-12.738-.877-27.366-12.94-26.428-26.602.095-1.377 1.278-2.415 2.666-2.323 1.377.09 2.417 1.28 2.323 2.66-.607 8.86 9.323 20.41 21.783 21.27 1.377.093 2.417 1.29 2.322 2.664-.09 1.32-1.19 2.327-2.492 2.327zm6.772 37.946c-1.117 0-2.134-.754-2.42-1.886-.34-1.338.468-2.698 1.807-3.038 10.19-2.588 17.9-15.75 15.28-26.08-.34-1.338.47-2.698 1.81-3.037 1.33-.34 2.69.47 3.03 1.81 3.29 12.97-6.07 28.896-18.9 32.153-.208.052-.415.078-.62.078zm11.242-58.322c-.457 0-.92-.125-1.334-.387-1.167-.738-1.515-2.282-.777-3.45 3.607-5.704 10.37-10.066 18.092-11.67 7.038-1.46 13.892-.38 18.805 2.967 1.14.777 1.437 2.332.66 3.474-.777 1.142-2.333 1.437-3.475.66-3.8-2.588-9.26-3.39-14.974-2.204-6.42 1.333-11.98 4.864-14.88 9.446-.47.752-1.28 1.164-2.11 1.164z"/>
    <path fill="#fff" d="M46.695 63.127c-1.05 0-2.112-.1-3.152-.298C34.46 61.1 28.478 52.3 30.206 43.22c1.507-7.9 8.43-13.635 16.46-13.635 1.05 0 2.11.1 3.152.298 4.4.837 8.21 3.338 10.73 7.042 2.518 3.704 3.444 8.167 2.606 12.568-1.504 7.9-8.425 13.634-16.46 13.634zm-.03-28.543c-5.632 0-10.49 4.025-11.546 9.57-1.22 6.375 2.98 12.55 9.36 13.763.73.14 1.47.21 2.21.21 5.632 0 10.49-4.024 11.543-9.57.59-3.087-.06-6.22-1.83-8.82-1.768-2.6-4.44-4.354-7.53-4.942-.733-.14-1.48-.21-2.217-.21z"/>
  </g>
</svg>
