<svg xmlns="http://www.w3.org/2000/svg" viewBox="0 0 86 61" xmlns:xlink="http://www.w3.org/1999/xlink">
  <title>laptop-smiley</title>
  <g fill-rule="evenodd">
    <ellipse cx="33.625" cy="30.351" rx="1.875" ry="2.812"/>
    <ellipse cx="52.375" cy="30.351" rx="1.875" ry="2.812"/>
    <path d="M52.375 35.038h-18.75c-.586 0-1.137.273-1.493.74-.353.466-.47 1.072-.312 1.636.078.286 2.048 7 11.18 7 9.133 0 11.102-6.714 11.183-7 .155-.563.04-1.17-.315-1.637-.354-.465-.907-.74-1.493-.74z"/>
    <path d="M9.25 51.125h67.5c.52 0 .938-.42.938-.938V6.13c0-.52-.42-.94-.938-.94H9.25c-.52 0-.938.42-.938.94v44.058c0 .518.42.937.938.937zm.938-44.06h65.625V49.25H10.188V7.066z"/>
    <path d="M82.375 53h-.938V5.188C81.437 2.603 79.335.5 76.75.5H9.25C6.663.5 4.56 2.603 4.56 5.188V53h-.937C2.073 53 .81 54.262.81 55.812v1.875c0 1.55 1.262 2.812 2.813 2.812h78.75c1.55 0 2.812-1.265 2.812-2.815V55.81c.003-1.55-1.26-2.81-2.81-2.81zM9.25 2.375h67.5c1.55 0 2.812 1.262 2.812 2.812V53H48.625c-.52 0-.938.42-.938.938 0 .232 0 .938-2.812.938h-3.75c-2.812 0-2.812-.705-2.812-.938 0-.52-.42-.938-.938-.938H6.438V5.188c0-1.55 1.26-2.813 2.812-2.813zm73.125 56.25H3.625c-.516 0-.938-.422-.938-.938v-1.875c0-.516.42-.938.938-.938h32.972c.697 1.873 3.516 1.875 4.528 1.875h3.75c1.012 0 3.83-.005 4.528-1.878h32.972c.516 0 .938.422.938.938v1.876c0 .516-.422.938-.938.938z"/>
  </g>
</svg>
