<svg xmlns="http://www.w3.org/2000/svg" viewBox="0 0 300 109" xmlns:xlink="http://www.w3.org/1999/xlink">
  <defs>
    <path id="a" d="M108.578 108.94H0V.422h108.578z"/>
  </defs>
  <g fill="none" fill-rule="evenodd">
    <mask id="b" fill="#fff">
      <use xlink:href="#a"/>
    </mask>
    <path fill="#020000" d="M96.698.422L52.348 11.98l-6.565 11.263-13.32-.097L0 54.716l32.463 31.567 13.313-.097 6.58 11.257L96.696 109l11.88-43.115-6.75-11.168 6.75-11.166L96.7.426zM46.852 25.056l33.925-8.48-19.474 32.808H22.348l24.504-24.328zm0 59.316L22.348 60.044h38.955l19.474 32.808-33.925-8.48zm43.42 3.147L70.79 54.713 90.27 21.9l9.41 32.815-9.41 32.802z" mask="url(#b)"/>
    <path fill="#020000" d="M197.298 32.412c-5.928 0-9.905 2.455-12.87 7.11h-.253v-5.925h-10.372v43.43h10.626V52.392c0-5.925 3.72-9.988 8.8-9.988 4.826 0 8.423 2.86 8.423 7.958V77.03h10.626V48.666c0-9.482-6.01-16.254-14.984-16.254M157.64 58.636c0 5.758-3.303 9.82-8.72 9.82-4.912 0-8-2.793-8-7.873V33.577h-10.626V62.53c0 9.482 5.417 15.663 15.07 15.663 6.094 0 9.48-2.285 12.444-6.265h.254v5.08h10.215v-43.43H157.64v25.058m60.213 18.392h10.627v-43.43h-10.627m0-4.818h10.627v-8.73h-10.627m70.684 13.547l-6.313 19.556c-1.355 3.98-2.54 9.482-2.54 9.482h-.27s-1.438-5.503-2.794-9.482l-7.13-19.556h-11.36l11.684 30.9c2.454 6.604 3.3 9.398 3.3 11.768 0 3.557-1.862 5.927-6.433 5.927h-4.06v9.058h6.773c8.805 0 11.86-3.47 15.164-13.122l15.314-44.53h-11.33m-40.26 30.646V41.217h6.774v-7.62h-6.77V20.05H237.73v13.547h-6.01v7.62h6.01V66.7c0 8.212 6.18 10.412 11.768 10.412 4.57 0 5.812-.17 5.812-.17v-8.395s-1.27.015-2.71.015c-2.54 0-4.318-1.102-4.318-4.318"/>
  </g>
</svg>
