<svg xmlns="http://www.w3.org/2000/svg" viewBox="0 0 86 66" xmlns:xlink="http://www.w3.org/1999/xlink">
  <title>download browser</title>
  <defs>
    <rect id="a" width="86" height="66" y="1" rx="5"/>
    <mask id="b" width="86" height="66" x="0" y="0" fill="#fff">
      <use xlink:href="#a"/>
    </mask>
  </defs>
  <g fill="#fff" fill-rule="evenodd" transform="translate(0 -1)">
    <use fill-opacity=".17" stroke="#979797" stroke-width="2" mask="url(#b)" xlink:href="#a"/>
    <path d="M5 1C2.247 1 0 3.247 0 6v56c0 2.753 2.247 5 5 5h76c2.753 0 5-2.247 5-5V6c0-2.753-2.247-5-5-5H5zm0 2h22.53l9.44 12H2V6c0-1.68 1.32-3 3-3zm25.063 0H81c1.68 0 3 1.32 3 3v9H39.5L30.062 3zM8 7c-1.105 0-2 .895-2 2s.895 2 2 2 2-.895 2-2-.895-2-2-2zm7 0c-1.105 0-2 .895-2 2s.895 2 2 2 2-.895 2-2-.895-2-2-2zm7 0c-1.105 0-2 .895-2 2s.895 2 2 2 2-.895 2-2-.895-2-2-2zM2 17h82v45c0 1.68-1.32 3-3 3H5c-1.68 0-3-1.32-3-3V17zm40.525 7c-.477 0-.864.387-.864.864v25.532l-7.15-7.152c-.185-.2-.455-.3-.73-.27-.333.032-.62.258-.73.577-.11.32-.024.678.22.91l8.637 8.638c.163.168.387.263.62.263.235 0 .46-.095.622-.263l8.635-8.637c.217-.224.3-.544.216-.84-.084-.3-.32-.534-.62-.61-.302-.078-.62.012-.837.234l-7.152 7.152V24.864c0-.477-.385-.864-.862-.864zM29.9 57c-.497 0-.9.403-.9.9s.403.9.9.9h25.2c.497 0 .9-.403.9-.9s-.403-.9-.9-.9H29.9z"/>
  </g>
</svg>
