<svg xmlns="http://www.w3.org/2000/svg" viewBox="0 0 86 74" xmlns:xlink="http://www.w3.org/1999/xlink">
  <title>headset</title>
  <g fill="none" fill-rule="evenodd">
    <path fill="#fff" fill-opacity=".17" d="M23.857 22.63s11.25-14.156 21.8-18.016c10.552-3.86 19.9-3.233 28.43 1.13 8.528 4.365 9.817 9.584 9.817 11.706 0 2.12-.383 14.418-5.1 19.682-4.718 5.264-20.11 12.136-20.11 12.136l-8.92-9.04s17.857-5.482 19.994-7.092c2.138-1.61 7.38-5.402 7.38-5.402l3.975-3.837S75.666 14.01 66.478 12.57c-9.187-1.44-12.253-1.634-24.652 2.418-12.4 4.052-15.443 10.206-15.443 10.206"/>
    <path fill="#fff" fill-opacity=".17" stroke="#fff" stroke-width="1.5" d="M2.023 40.788c0-3.853 2.418-5.248 2.418-5.248s7.42-4.01 10.67-6.697c3.25-2.688 6.19-6.343 8.05-6.343 1.86 0 2.498 5.17 12 10.51 9.505 5.35 15.728 6.89 20.46 11.39 4.735 4.5 3.6 11.083 0 13.884-2.27 1.764-9.575 6.56-15.655 10.374-3.57 2.237-5.204 3.77-8.9 3.176-4.518-.728-9.884-6.11-15.35-9.69-5.47-3.58-11.03-8.874-12.216-12.255-1.194-3.39-1.47-5.25-1.47-9.1z"/>
    <path stroke="#fff" stroke-width=".5" d="M2.023 40.788c0-3.853 2.787-5.365 7.478-2.15 4.7 3.213 4 2.523 8.61 6.017 4.61 3.494 16.05 9.1 16.05 17.072 0 7.97.6 10.693-3.1 10.098-4.52-.726-9.88-6.107-15.35-9.688-5.463-3.58-11.022-8.874-12.21-12.255-1.19-3.382-1.463-5.24-1.463-9.094z"/>
    <path stroke="#fff" stroke-width="1.5" d="M23.857 22.63s11.25-14.156 21.8-18.016c10.552-3.86 19.9-3.233 28.43 1.13 8.528 4.365 9.817 9.584 9.817 11.706 0 2.12-.383 14.418-5.1 19.682-4.718 5.264-20.11 12.136-20.11 12.136"/>
    <path stroke="#fff" stroke-width="1.5" d="M23.857 22.63s11.25-14.156 21.8-18.016c10.552-3.86 19.9-3.233 28.43 1.13 8.528 4.365 9.817 9.584 9.817 11.706 0 2.12-.383 14.418-5.1 19.682-4.718 5.264-20.11 12.136-20.11 12.136"/>
    <path stroke="#fff" stroke-width=".75" d="M26.013 25.277s7.308-8.05 16.477-10.95c9.17-2.897 17.93-3.318 25.663-1.106 7.733 2.22 10.523 6.1 12.987 10.59"/>
    <path stroke="#fff" stroke-width=".75" d="M49.697 40.205s14.038-3.698 21.39-8.32c7.35-4.62 12.826-8.947 12.826-15.527"/>
  </g>
</svg>
