<svg xmlns="http://www.w3.org/2000/svg" viewBox="0 0 73 60" xmlns:xlink="http://www.w3.org/1999/xlink">
  <title>help browser</title>
  <path fill="#fff" fill-rule="evenodd" d="M2.274.275C1.02.275 0 1.38 0 2.74v54.206c0 1.363 1.016 2.466 2.274 2.466h68.22c1.257 0 2.273-1.103 2.273-2.466V2.74c0-1.362-1.016-2.465-2.274-2.465H2.273zM52.3 2.55c1.26 0 2.275 1.016 2.275 2.274 0 1.257-1.016 2.274-2.274 2.274-1.25 0-2.27-1.017-2.27-2.274 0-1.258 1.02-2.275 2.28-2.275zm6.823 0c1.258 0 2.274 1.016 2.274 2.274 0 1.257-1.016 2.274-2.274 2.274-1.257 0-2.274-1.017-2.274-2.274 0-1.258 1.01-2.275 2.27-2.275zm6.822 0c1.258 0 2.274 1.016 2.274 2.274 0 1.257-1.02 2.274-2.28 2.274-1.26 0-2.278-1.017-2.278-2.274 0-1.258 1.017-2.275 2.274-2.275zM4.405 9.372H68.36c1.18 0 2.14.89 2.14 1.99v43.784c0 1.1-.96 1.99-2.138 1.99H4.407c-1.178 0-2.132-.89-2.132-1.99V11.363c0-1.1.954-1.99 2.132-1.99zM24.88 25.3c-1.234 0-2.238.998-2.238 2.233s1.004 2.235 2.238 2.235c1.235 0 2.234-1 2.234-2.235 0-1.235-1-2.234-2.234-2.234zm22.79 0c-1.236 0-2.235.998-2.235 2.233s1 2.235 2.234 2.235 2.23-1 2.23-2.235c0-1.235-1-2.234-2.24-2.234zM24.71 37.62c-.903.123-1.69.756-1.94 1.666-.333 1.214.407 2.46 1.655 2.785l22.607 5.89c1.248.33 2.53-.39 2.865-1.61.33-1.21-.41-2.452-1.658-2.78l-22.6-5.882c-.32-.08-.63-.1-.93-.057z"/>
</svg>
