<svg xmlns="http://www.w3.org/2000/svg" viewBox="0 0 94 65" xmlns:xlink="http://www.w3.org/1999/xlink">
  <title>remix</title>
  <g fill="#fff" fill-rule="evenodd">
    <path fill-opacity=".17" d="M1 2h91v60H1z"/>
    <path d="M0 .2v64.5h94V.2H0zm91.2 61.7H2.8v-59h88.4v59z"/>
    <path d="M31.5 39c3.6 0 6.6-3 6.6-6.6 0-3.6-3-6.6-6.6-6.6-3.6 0-6.6 3-6.6 6.6 0 3.7 3 6.6 6.6 6.6zm0-10.4c2.1 0 3.8 1.7 3.8 3.8 0 2.1-1.7 3.8-3.8 3.8-2.1 0-3.8-1.7-3.8-3.8 0-2.1 1.7-3.8 3.8-3.8z"/>
    <path d="M31.5 57.5c13.8 0 25.1-11.2 25.1-25.1 0-13.9-11.2-25-25.1-25-13.9 0-25 11.2-25 25s11.2 25.1 25 25.1zm0-47.4c12.3 0 22.3 10 22.3 22.3s-10 22.3-22.3 22.3-22.3-10-22.3-22.3 10-22.3 22.3-22.3zM13.2 52.8H4.4v7.7h8.8v-7.7zm-2.8 4.9H7.2v-2.1h3.2v2.1zm70-12.5H89V48h-8.6zm0 4.2H89v2.8h-8.6zm0 4.1H89v2.8h-8.6zm0 4.2H89v2.8h-8.6zm-5.6-28.8v3L54.2 53.2l2 1.9L77.6 33v-4.1c5.2-.7 9.2-5.1 9.2-10.5s-4-9.8-9.2-10.5V5h-2.8v2.9c-5.2.7-9.2 5.1-9.2 10.5s4 9.8 9.2 10.5zM84 18.4c0 3.8-2.8 7-6.4 7.7V10.7c3.7.6 6.4 3.8 6.4 7.7zm-9.2-7.7v15.4c-3.7-.7-6.4-3.9-6.4-7.7 0-3.8 2.8-7.1 6.4-7.7z"/>
  </g>
</svg>
