<!--
Source:
* URL: https://thenounproject.com/term/osvr/504801
* Author: Arthur Schmitt (https://thenounproject.com/tart2000)
-->
<svg xmlns="http://www.w3.org/2000/svg" viewBox="0 -1 85 80">
  <path fill="#111" fill-rule="evenodd" d="M84.675 42.94l-.6-1.5-.9-2.1c-1.5-3.7-3.8-6.9-6.8-9.7.1-.6.1-1.2-.2-1.8-.3-.5-.7-.9-1.2-1.2 0-.3 0-.7-.1-1 0-1-.1-2.1-.3-3.1-1.4-5.9-4.5-11.2-9.5-16.1-.8-.8-1.7-1.3-2.7-1.8-.4-.2-.8-.4-1.1-.6-.1-.3-.3-.7-.4-.9-1.6-2.3-4-2.8-6.2-3.1-2.3-.2-4.4.4-6.4 1-.8.3-1.6.5-2.4.7-1.7.4-2.7 1.5-3.6 2.4l-1 1c-4.7 4-10 8.8-13.2 15.4-.4.7-.7 1.5-1 2.2-.1.3-.2.6-.4.8-.3 0-.5 0-.8-.1-1.4-.2-3.4-.4-4.8 1.6-.2 0-.6 0-.8-.1-.2 0-.4 0-.5-.1-.2 0-.4-.1-.6-.1-.5-.1-1.1-.3-1.7-.1-1.5.4-3 .9-4.5 1.3-2.3.7-4.7 1.5-7.1 2-2.6.6-3.3 2.6-3.8 4l-.2.5c-1.5 4-2.1 8.6-1.8 13.9.1 2.1.5 4.3.8 6.3.2 1.2.4 2.3.5 3.5.4 2.8 2.4 4.5 3.9 5.8 5.2 4.5 11.2 7.6 16.5 10.1 4.9 2.3 10.3 4.4 16.5 6.5.9.3 1.7.4 2.5.4 1.1 0 2.1-.3 3.1-.9.9-.5 1.8-1.1 2.6-1.6.1-.1.3-.1.4-.2 2.1-1.3 4.1-2.7 6.1-4 1.9-1.3 4.1-2.8 6.1-4.6 1.6-1.3 2.3-3 2.9-4.8 5.8-1.4 10.7-2.6 15.5-4.4l.1.1c.3.2.7.4 1.3.4h.4c2.2-.3 5.4-3.8 5.5-6 .1-2.3.1-4.6.2-6.8v-2.3c0-.3-.2-.6-.3-.9zm-5.4 2.3v-.3c.9-.4 1.7-.7 2.6-1.1l1-.4.1.3c-.2.1-.5.2-.7.3-.9.3-1.7.6-2.6 1-.2.1-.3.2-.4.2zm-20 6.6c.3 2 .3 4 0 6.1v-6.1zm1.7-1.8c-.3-1.1-.8-2.2-1.3-3.2-.2-.4-.4-.9-.6-1.3-.1-.3-.3-.4-.6-.5-.1-.3-.2-.7-.2-1-.1-.5-.6-.9-1.2-.8-.5.1-.9.6-.8 1.2.1.5.2.9.3 1.4.2 1 .4 1.9.5 2.8.3 4.3.5 9.3-.4 14.3-.2 1-.1 1.9-.1 2.8v1.2c-.5.4-1 .8-1.4 1.1.1-.5.3-1 .4-1.5l.6-2.4c.9-5.1.4-10.2-.3-15.7-.5-4.1-2.5-6.6-6.1-7.8-3.2-1-6.5-2.2-9.6-3.3.1-.2.1-.5 0-.7l.5.4c.2.2.4.2.6.2.3 0 .6-.1.8-.4.3-.3.3-.8.1-1.2l3 .9c1.3.4 2.6.8 3.9 1.1 1.5.4 3.1.6 4.6.8h.1c.1.2.3.5.7.6 3.6.9 5.5 3.4 6.6 8.1.1.3.2.6.3.8 0 .1.1.1.1.2s.1.1.1.1c0 .2.1.4.1.6.1.3.2.6.2.8-.1 1.1-.1 2.2-.2 3.2-.1 2.1-.1 4.1-.6 6 .6-3 .6-5.9-.1-8.8zm0 9.2c0 .2-.1.3-.1.5 0-.2.1-.3.1-.5zm-5.4-51.1c1 .3 2 .7 2.8 1.3 3.6 2.4 5.7 6 6.9 11.7.4 2 .5 3.4-.5 4.5-1-.8-2.4-1.1-4.2-1.4-4.8-.6-9.5.2-14 1-1.6.3-3.2.6-4.8.8h-.3c-.6.1-1.3.2-2 .3 3.2-5.6 6.4-11.4 11.4-15.7.2-.2.5-.4.7-.7 1.6-1.5 2.5-2.2 4-1.8zm11.2 18.1c.5.2 1.1.3 1.6.5 1.4.5 2.9.9 4.4 1.3 1.1.3 1.4.6 1.5.7.1.2.1.6-.3 1.6-.2.6-.2 1.2-.2 1.8v.7c-.1.7-.1 1.3-.2 2h-.4c-.2 0-.6-.1-1.3-.5-1.6-1-3.3-1.7-5.1-2.3v-2.3c-.1-1.1-.3-1.9-.7-2.6.3-.4.5-.6.7-.9zm9.1 19.1c-.1.8-.4 1.3-1.7 1.5-2.5.5-4.9.9-7.3 1.3v-.2c-.1-.7-.1-1.4-.2-2.1-.1-1.8-.3-3.7-.6-5.6-.3-2.3-1.8-3.9-4.1-4.3-1.4-.3-2.8-.5-4.2-.7-1.9-.3-3.9-.7-5.9-1-.9-.2-1.9-.4-2.8-.7 2.9-.5 6-.7 9.4-.7 4.6 0 8.6 1.1 12.2 3.2.6.4 1.5.9 2.5.8.4 0 .6.1 1 .7 1.3 1.9 2.2 4 2.8 6.3-.4.3-1 .8-1.1 1.5zm-12.3 3.2c0-.1 0-.1-.1-.2v-.2c.1-.1.1-.2.1-.3.3-2.9-.1-5.7-1.4-8.3-.3-.6-.8-1.3-1.5-1.7.3.1.6.1 1 .2 1.4.3 2.2 1.1 2.5 2.6.3 1.8.4 3.7.5 5.5.1.7.1 1.4.2 2.1v.3c-.3 0-.6.1-.9.1-.1-.1-.3-.1-.4-.1zm-25.2-19.9c0-.1.2-.2.4-.2 1-.2 2-.3 3.1-.5h.3c1.6-.2 3.3-.5 4.9-.8 4.6-.8 8.9-1.5 13.4-1 3.3.4 4 1.1 4.3 3.8.1.5 0 1 0 1.5-1.9-.4-4-.7-6.1-.7-4.2 0-8 .3-11.5 1-.5.1-.9.3-1.4.4-.4.2-.8.3-1.2.4-1 .1-1.9-.3-3-.8-.7-.3-1.4-.7-2.2-.9-.4-.1-.8-.2-1.1-.3l-.5-.1h-.3l.9-1.8zm.1 4.1c.1 0 .3.1.4.1h.1c-.1 0-.3 0-.5-.1zm.6 3.1v-.1l.3.2-.3-.1zm6.5-1.4c.1.1.2.1.3.2.6.2 1.2.3 1.8.5 1.3.4 2.7.8 4 1.1.4.1.7.1 1.1.2-1.1-.2-2.2-.3-3.2-.6-1.3-.3-2.6-.7-3.8-1.1-.2 0-.3-.1-.5-.1 0-.1.2-.2.3-.2zm13.7 4.8c.4.1 1 .6 1.2 1.1.2.4.4.9.5 1.3-.6-.9-1.3-1.8-2.2-2.5.2 0 .3 0 .5.1zm4.3 13.7c0-.8.1-1.6.1-2.4h.4c.8-.1 1.6-.1 2.5-.3 2.6-.4 5.3-.9 8-1.4.5-.1 1-.2 1.4-.4v.1c.1.7.2 1.4.2 2.1.1 1.2.2 2.3.3 3.5l.2 2.5c-4.3 1.7-8.8 2.8-14 4 .8-2.6.9-5.2.9-7.7zm17.7-12.8c.2.5.5 1.1.7 1.6l-.9.4-2.1.9c-.7-2.4-1.6-4.6-3-6.6-.1-.2-.3-.4-.5-.6l.1-.7c.1-.7.2-1.4.2-2v-1.2c2.4 2.4 4.2 5.1 5.5 8.2zm-17.7-32.3c4.7 4.6 7.6 9.6 8.9 15.1.2.9.2 1.8.3 2.8v.2c-1.3-.4-2.6-.8-3.8-1.2-.5-.2-1-.3-1.5-.5.2-1.2 0-2.5-.2-3.7-1.3-6.3-3.7-10.3-7.7-12.9-.2-.2-.5-.3-.7-.4.1 0 .2 0 .3-.1.6-.2 1.3-.5 1.8-1 .2.1.3.2.5.3.8.4 1.6.8 2.1 1.4zm-14.8-4.9c1.9-.6 3.7-1.2 5.6-1 2.1.2 3.7.7 4.8 2.2.1.2.2.5.2.7-.2.1-.7.3-.9.4-.3.1-.7.2-1.1.2-.2 0-.4.1-.6.1-.3.1-.6.3-.7.6-.7-.2-1.4-.2-2-.1-1.6-2.2-4-2.4-6-2.6-.2 0-.4 0-.7-.1.4-.1.9-.2 1.4-.4zm-20 20.6c.3-.7.6-1.4 1-2.1 3.1-6.3 8.2-10.9 12.8-14.8.4-.4.8-.7 1.1-1.1l.5-.5c.1 0 .2.1.3.1h.7c.5 0 .9.1 1.4.1.5.1 1 .1 1.5.1 1.7.1 3.2.3 4.3 1.4-.6.4-1.2 1-1.7 1.4-.2.2-.5.4-.7.6-5.3 4.6-8.7 10.7-12 16.5-.2.4-.3.9-.3 1.2v.1c-.3.2-.6.5-.8.8-1.1 2.2-2.2 4.4-3.1 6.4-.1.2-.1.3-.1.5h-.2c-2.6-.8-5.1-1.7-7.6-2.6.2-.3.2-.6.1-.9-.1-.2-.3-.5-.4-.6.2-.3.3-.6.5-.9.7-1.1 1.3-2.2 1.9-3.3 0-.7.4-1.5.8-2.4zm-10.8 3.1c.1 0 .4.1.6.1.3.1.6.2 1 .2h.4c1 .1 2 .2 2.5-.6.7-1.2 1.5-1.1 3.1-1h.1c-.5 1-1.1 1.9-1.7 2.9l-.6.9c-.5-.1-1 0-1.5 0h-.7c-.4 0-.8.2-.9.6-.6-.2-1.3-.5-1.9-.7l-.9-.3c-1-.4-1.9-.7-2.7-1.2 1-.2 2.1-.6 3.2-.9zm-12.2 3.6l.9.6c.7.5 1.5 1 2.3 1.5 7.8 4.1 16.2 6.9 23.7 9.5 3.6 1.2 7.2 2.7 11 4.3.3.1.6.3.9.4l-2.8 2.2-.3.3c-.5-.4-1.1-.8-1.7-1-2.4-.9-4.9-1.7-7.3-2.6-2.6-.9-5.2-1.9-7.8-2.8-6-2.1-12.9-4.8-19.2-9.1-.5-.3-1.1-.5-1.6-.5l.1-.2c.4-1.3.7-2.2 1.8-2.6zm-2.4 25.7c-.2-1.2-.3-2.4-.5-3.5-.3-2-.7-4.1-.8-6.1-.2-4.3.1-8 1.1-11.3h.1c.4.1.8.1 1 .3 6.5 4.4 13.6 7.2 19.7 9.3l7.8 2.7c2.4.9 4.9 1.8 7.3 2.6 1 .3 1.6 1 1.7 1.9 1.6 8.1 1 14.7-1.6 20.7-.8 1.7-1.3 1.9-3 1.2-8-3.3-15.8-6.6-23.1-10.7-1.9-1.1-3.8-2.2-5.4-3.4-1-.8-2-.8-2.9-.8-.7-1-1.2-1.9-1.4-2.9zm12.9 11.1c5.2 2.7 10.6 5 16 7.3-3.5-1.3-6.7-2.6-9.7-4.1-2-1-4.1-2.1-6.3-3.2zm26.5 9.3c-1.2.7-2.3.8-3.9.3-.6-.2-1.2-.4-1.7-.6h.3c1.5 0 2.6-.9 3.4-2.8 2.8-6.4 3.4-13.4 1.8-21.9l-.3-.9c.2 0 .3-.1.5-.2l3.2-2.4c1.1 1.3 1.8 3.1 1.9 5.4.5 8.5-.3 14.8-2.8 20.4-.2.5-.2 1-.2 1.4-.6.3-1.4.8-2.2 1.3zm9-5.9c-1.4 1-2.9 1.9-4.4 2.9 2.3-5.7 3.1-12 2.6-20.4-.3-4.4-2.2-7.4-5.6-8.8-3.9-1.6-7.5-3.1-11.2-4.4-7.3-2.4-15.7-5.3-23.3-9.3-.5-.3-1-.6-1.5-1 1.4-.4 2.8-.8 4.1-1.2 1.2 1.3 2.9 1.9 4.3 2.4l.9.3c4.5 1.7 9.7 3.7 14.8 5.3.3.1.7.2 1 .2.1.1.2.2.4.3.2.1.3.2.5.3.4.2.8.5 1.3.6l3 1.1c3.4 1.2 6.9 2.5 10.4 3.6 2.9.9 4.3 2.8 4.7 6.1.7 5.4 1.2 10.3.3 15.1-.1.7-.3 1.4-.5 2.2-.2.6-.3 1.2-.5 1.8-.1.5-.1 1-.2 1.5v.4c-.3.5-.7.8-1.1 1zm27.4-13.6c0-.1.1-.2.1-.3.1.1.2.1.4.1-.2.1-.3.2-.5.2zm3.6-4c0 .5-.4 1.2-1 1.8h-1.1v-1c-.1-2.2-.2-4.4-.2-6.7v-.1c.7-.3 1.5-.6 2.3-.8h.1v.2c0 2.1 0 4.4-.1 6.6z"/>
</svg>
