<?xml version="1.0" encoding="UTF-8" standalone="no"?>
<!DOCTYPE svg PUBLIC "-//W3C//DTD SVG 20010904//EN"
              "http://www.w3.org/TR/2001/REC-SVG-20010904/DTD/svg10.dtd">

<svg xmlns="http://www.w3.org/2000/svg"
     viewBox="-10 0 1600 375">
  
  <path fill="#F25022" stroke="#F25022" stroke-width=".094" d="M7.5 19c0-1.7 0-3.5.1-5.3 55.5.1 111 0 166.5.1v166.5c-55.5.2-111 0-166.5.1-.3-53.8 0-107.6-.1-161.4z"/>
  <path fill="#7FBA00" stroke="#7FBA00" stroke-width=".094" d="M191.3 14.1c1.2-.3 2.4-.4 3.7-.4 54.3.1 108.7 0 163 .1v166.5c-55.5.2-111 0-166.5.1-.4-55.4.1-110.9-.2-166.3z"/>
  <path fill="#00A4EF" stroke="#00A4EF" stroke-width=".094" d="M7.4 363.9c.4-55.4-.2-110.9.3-166.3 55.4.1 110.9-.1 166.4.1v166.5c-53.4.1-106.7 0-160.1.1-2.2 0-4.4 0-6.6-.4z"/>
  <path fill="#FFB900" stroke="#FFB900" stroke-width=".094" d="M191.4 209.9c0-4.1-.2-8.2.1-12.3 55.5.1 111-.1 166.5.1v166.5c-54.3.1-108.7 0-163 .1-1.3-.1-2.5-.2-3.7-.3.2-51.4 0-102.7.1-154.1z"/>
  <path id="wmr" fill="#737373" stroke="#737373" stroke-width=".094"
        d="M 830.00,28.00
           C 830.00,28.00 830.00,164.00 830.00,164.00
             830.00,164.00 809.00,164.00 809.00,164.00
             809.00,164.00 808.00,149.00 808.00,149.00
             799.66,170.30 761.92,173.18 747.55,151.00
             736.64,134.17 737.08,102.35 748.79,86.00
             758.29,72.72 768.63,69.82 784.00,70.00
             789.15,70.06 793.45,70.76 798.00,73.36
             802.58,75.99 805.86,79.85 809.00,84.00
             809.00,84.00 809.00,28.00 809.00,28.00
             809.00,28.00 830.00,28.00 830.00,28.00 Z
           M 611.43,33.33
           C 616.83,39.53 613.96,49.84 606.00,52.35
             589.51,57.54 581.77,36.19 597.00,29.65
             602.44,28.53 607.51,28.82 611.43,33.33 Z
           M 417.00,35.00
           C 417.00,35.00 424.28,35.99 424.28,35.99
             424.28,35.99 427.13,43.00 427.13,43.00
             427.13,43.00 431.13,60.00 431.13,60.00
             431.13,60.00 444.13,112.00 444.13,112.00
             444.13,112.00 451.00,137.00 451.00,137.00
             451.00,137.00 457.58,110.00 457.58,110.00
             457.58,110.00 472.12,58.00 472.12,58.00
             472.12,58.00 476.29,43.00 476.29,43.00
             476.29,43.00 479.51,36.02 479.51,36.02
             479.51,36.02 487.00,35.00 487.00,35.00
             487.00,35.00 502.00,35.00 502.00,35.00
             502.00,35.00 514.12,83.00 514.12,83.00
             514.12,83.00 523.63,120.00 523.63,120.00
             523.63,120.00 528.00,138.00 528.00,138.00
             528.00,138.00 534.63,108.00 534.63,108.00
             534.63,108.00 552.00,35.00 552.00,35.00
             552.00,35.00 575.00,35.00 575.00,35.00
             575.00,35.00 565.42,72.00 565.42,72.00
             565.42,72.00 548.42,134.00 548.42,134.00
             548.42,134.00 543.15,153.00 543.15,153.00
             543.15,153.00 539.91,162.43 539.91,162.43
             539.91,162.43 534.00,164.00 534.00,164.00
             534.00,164.00 523.00,164.00 523.00,164.00
             523.00,164.00 515.72,163.01 515.72,163.01
             515.72,163.01 512.71,156.00 512.71,156.00
             512.71,156.00 508.37,140.00 508.37,140.00
             508.37,140.00 494.42,89.00 494.42,89.00
             494.42,89.00 488.00,66.00 488.00,66.00
             488.00,66.00 481.42,94.00 481.42,94.00
             481.42,94.00 468.37,142.00 468.37,142.00
             468.37,142.00 464.29,157.00 464.29,157.00
             464.29,157.00 461.44,162.98 461.44,162.98
             461.44,162.98 456.00,164.00 456.00,164.00
             456.00,164.00 445.00,164.00 445.00,164.00
             445.00,164.00 437.51,162.98 437.51,162.98
             437.51,162.98 434.00,155.00 434.00,155.00
             434.00,155.00 428.42,135.00 428.42,135.00
             428.42,135.00 409.12,66.00 409.12,66.00
             409.12,66.00 401.00,35.00 401.00,35.00
             401.00,35.00 417.00,35.00 417.00,35.00 Z
           M 693.00,70.00
           C 703.21,70.13 711.77,74.79 716.60,84.00
             721.99,94.28 721.00,103.91 721.00,115.00
             721.00,115.00 721.00,164.00 721.00,164.00
             721.00,164.00 700.00,164.00 700.00,164.00
             700.00,164.00 700.00,116.00 700.00,116.00
             699.90,107.35 698.60,95.21 690.96,89.85
             680.45,82.47 667.09,90.52 662.53,101.00
             659.63,107.68 660.00,117.77 660.00,125.00
             660.00,125.00 660.00,164.00 660.00,164.00
             660.00,164.00 639.00,164.00 639.00,164.00
             639.00,164.00 639.00,72.00 639.00,72.00
             639.00,72.00 660.00,72.00 660.00,72.00
             660.00,72.00 661.00,86.00 661.00,86.00
             668.14,72.70 679.08,69.84 693.00,70.00 Z
           M 928.00,77.53
           C 944.21,90.00 945.22,104.31 945.00,123.00
             944.85,135.21 938.61,148.89 929.00,156.48
             917.30,165.73 907.11,166.16 893.00,166.00
             875.02,165.79 859.62,155.02 853.55,138.00
             850.48,129.42 850.90,122.89 851.00,114.00
             851.11,104.73 854.37,94.55 859.79,87.00
             866.76,77.28 877.58,72.57 889.00,70.44
             901.41,68.85 917.75,69.64 928.00,77.53 Z
           M 1127.00,149.99
           C 1133.05,149.85 1141.24,147.86 1142.92,141.00
             1144.12,136.10 1138.81,131.51 1135.00,129.41
             1124.99,123.91 1112.45,122.86 1104.53,112.96
             1100.01,107.32 1099.92,102.84 1100.00,96.00
             1100.13,85.97 1106.11,78.58 1115.00,74.33
             1124.47,69.79 1138.69,68.81 1149.00,70.44
             1149.00,70.44 1160.00,73.00 1160.00,73.00
             1160.00,73.00 1160.00,93.00 1160.00,93.00
             1150.84,88.16 1140.51,83.18 1130.00,87.48
             1125.93,89.15 1120.84,92.94 1122.08,98.00
             1123.49,103.78 1131.01,106.82 1136.00,108.68
             1145.21,112.12 1156.39,116.39 1161.87,125.00
             1164.53,129.19 1164.95,132.18 1165.00,137.00
             1165.12,149.15 1160.39,157.10 1149.00,162.12
             1139.72,166.22 1123.97,167.12 1114.00,165.56
             1114.00,165.56 1100.00,162.00 1100.00,162.00
             1100.00,162.00 1100.00,141.00 1100.00,141.00
             1109.78,146.96 1115.14,150.26 1127.00,149.99 Z
           M 612.00,72.00
           C 612.00,72.00 612.00,164.00 612.00,164.00
             612.00,164.00 591.00,164.00 591.00,164.00
             591.00,164.00 591.00,72.00 591.00,72.00
             591.00,72.00 612.00,72.00 612.00,72.00 Z
           M 969.00,72.00
           C 969.00,72.00 976.28,72.99 976.28,72.99
             976.28,72.99 981.63,90.00 981.63,90.00
             981.63,90.00 991.13,128.00 991.13,128.00
             991.13,128.00 995.00,144.00 995.00,144.00
             995.00,144.00 1014.00,72.00 1014.00,72.00
             1014.00,72.00 1035.00,72.00 1035.00,72.00
             1035.00,72.00 1045.63,115.00 1045.63,115.00
             1045.63,115.00 1053.00,143.00 1053.00,143.00
             1053.00,143.00 1065.58,89.00 1065.58,89.00
             1066.32,85.65 1068.05,74.87 1070.56,73.02
             1072.26,71.77 1075.92,72.00 1078.00,72.00
             1078.00,72.00 1090.00,72.00 1090.00,72.00
             1090.00,72.00 1064.00,164.00 1064.00,164.00
             1064.00,164.00 1049.00,164.00 1049.00,164.00
             1046.91,164.00 1043.27,164.23 1041.56,162.98
             1039.07,161.15 1037.21,151.25 1036.37,148.00
             1036.37,148.00 1024.00,99.00 1024.00,99.00
             1020.16,103.49 1018.27,114.06 1016.58,120.00
             1016.58,120.00 1004.00,164.00 1004.00,164.00
             1004.00,164.00 981.00,164.00 981.00,164.00
             981.00,164.00 961.14,95.00 961.14,95.00
             961.14,95.00 955.00,72.00 955.00,72.00
             955.00,72.00 969.00,72.00 969.00,72.00 Z
           M 769.21,94.09
           C 755.85,108.52 757.45,154.69 790.00,148.53
             808.28,145.08 809.17,126.74 809.00,112.00
             808.80,95.43 798.73,85.50 782.00,87.32
             776.80,88.50 772.93,90.08 769.21,94.09 Z
           M 880.33,94.18
           C 867.46,107.84 867.93,147.78 897.00,148.96
             903.12,149.21 910.12,147.81 914.82,143.61
             926.96,132.76 926.57,102.29 913.83,91.93
             907.94,87.14 901.26,86.58 894.00,87.30
             888.61,88.35 884.20,90.08 880.33,94.18 Z
           M 903.00,209.00
           C 903.00,209.00 903.00,345.00 903.00,345.00
             903.00,345.00 882.00,345.00 882.00,345.00
             882.00,345.00 881.00,330.00 881.00,330.00
             872.66,351.30 834.92,354.18 820.55,332.00
             809.64,315.17 810.08,283.35 821.79,267.00
             831.29,253.72 841.63,250.82 857.00,251.00
             862.15,251.06 866.45,251.76 871.00,254.36
             875.58,256.99 878.86,260.85 882.00,265.00
             882.00,265.00 882.00,209.00 882.00,209.00
             882.00,209.00 903.00,209.00 903.00,209.00 Z
           M 1306.00,209.00
           C 1306.00,209.00 1306.00,345.00 1306.00,345.00
             1306.00,345.00 1285.00,345.00 1285.00,345.00
             1285.00,345.00 1285.00,209.00 1285.00,209.00
             1285.00,209.00 1306.00,209.00 1306.00,209.00 Z
           M 603.43,214.33
           C 608.83,220.53 605.96,230.84 598.00,233.35
             581.51,238.54 573.77,217.19 589.00,210.65
             594.44,209.53 599.51,209.82 603.43,214.33 Z
           M 1353.43,214.33
           C 1358.83,220.53 1355.96,230.84 1348.00,233.35
             1331.51,238.54 1323.77,217.19 1339.00,210.65
             1344.44,209.53 1349.51,209.82 1353.43,214.33 Z
           M 438.00,216.00
           C 438.00,216.00 445.35,216.99 445.35,216.99
             445.35,216.99 449.19,224.00 449.19,224.00
             449.19,224.00 455.40,240.00 455.40,240.00
             455.40,240.00 475.80,292.00 475.80,292.00
             475.80,292.00 485.00,315.00 485.00,315.00
             485.00,315.00 495.40,286.00 495.40,286.00
             495.40,286.00 514.72,238.00 514.72,238.00
             514.72,238.00 524.41,217.02 524.41,217.02
             524.41,217.02 532.00,216.00 532.00,216.00
             532.00,216.00 553.00,216.00 553.00,216.00
             553.00,216.00 553.00,345.00 553.00,345.00
             553.00,345.00 532.00,345.00 532.00,345.00
             532.00,345.00 532.00,278.00 532.00,278.00
             532.00,278.00 531.00,244.00 531.00,244.00
             531.00,244.00 520.40,273.00 520.40,273.00
             520.40,273.00 500.80,322.00 500.80,322.00
             500.80,322.00 495.00,337.00 495.00,337.00
             495.00,337.00 491.30,344.01 491.30,344.01
             491.30,344.01 486.00,345.00 486.00,345.00
             486.00,345.00 476.50,343.98 476.50,343.98
             476.50,343.98 472.60,337.00 472.60,337.00
             472.60,337.00 465.80,320.00 465.80,320.00
             465.80,320.00 435.00,242.00 435.00,242.00
             435.00,242.00 435.00,345.00 435.00,345.00
             435.00,345.00 415.00,345.00 415.00,345.00
             415.00,345.00 415.00,216.00 415.00,216.00
             415.00,216.00 438.00,216.00 438.00,216.00 Z
           M 1020.00,216.00
           C 1030.49,216.00 1040.24,215.50 1050.00,220.38
             1064.87,227.81 1068.18,238.63 1068.00,254.00
             1067.92,260.62 1066.09,266.57 1062.21,272.00
             1055.61,281.25 1049.57,282.78 1040.00,287.00
             1053.12,294.04 1063.16,312.55 1071.05,325.00
             1074.55,330.51 1080.81,339.28 1083.00,345.00
             1083.00,345.00 1065.00,345.00 1065.00,345.00
             1062.76,345.00 1059.44,345.24 1057.53,344.01
             1055.62,342.78 1053.60,339.00 1052.40,337.00
             1052.40,337.00 1043.40,322.00 1043.40,322.00
             1038.26,313.43 1031.24,299.99 1022.00,295.57
             1017.32,293.33 1009.19,293.00 1004.00,293.00
             1004.00,293.00 1004.00,345.00 1004.00,345.00
             1004.00,345.00 983.00,345.00 983.00,345.00
             983.00,345.00 983.00,216.00 983.00,216.00
             983.00,216.00 1020.00,216.00 1020.00,216.00 Z
           M 1407.00,226.00
           C 1407.00,226.00 1407.00,253.00 1407.00,253.00
             1407.00,253.00 1429.00,253.00 1429.00,253.00
             1429.00,253.00 1429.00,270.00 1429.00,270.00
             1429.00,270.00 1407.00,270.00 1407.00,270.00
             1407.00,270.00 1407.00,309.00 1407.00,309.00
             1407.01,313.31 1407.28,320.12 1409.31,323.96
             1413.81,332.46 1422.11,329.90 1429.00,327.00
             1429.00,327.00 1429.00,345.00 1429.00,345.00
             1417.58,347.30 1401.48,349.87 1392.19,340.79
             1387.53,336.24 1386.08,330.28 1386.00,324.00
             1386.00,324.00 1386.00,270.00 1386.00,270.00
             1386.00,270.00 1371.00,270.00 1371.00,270.00
             1371.00,270.00 1371.00,253.00 1371.00,253.00
             1371.00,253.00 1386.00,253.00 1386.00,253.00
             1386.00,253.00 1386.00,231.00 1386.00,231.00
             1386.00,231.00 1407.00,226.00 1407.00,226.00 Z
           M 1036.98,271.03
           C 1048.30,263.53 1048.91,243.24 1036.00,236.44
             1029.08,232.79 1012.30,234.00 1004.00,234.00
             1004.00,234.00 1004.00,275.00 1004.00,275.00
             1014.19,275.00 1028.32,276.78 1036.98,271.03 Z
           M 792.00,333.00
           C 791.99,334.57 792.08,337.20 791.43,338.61
             789.80,342.09 781.57,344.50 778.00,345.35
             766.05,348.19 748.17,348.30 737.00,342.87
             722.52,335.82 715.19,320.63 715.00,305.00
             714.83,289.94 715.34,278.34 725.47,266.00
             739.89,248.44 772.79,244.26 788.54,262.09
             799.86,274.91 799.00,289.24 799.00,305.00
             799.00,305.00 736.00,305.00 736.00,305.00
             737.46,309.99 737.16,313.32 740.13,318.00
             748.38,331.02 764.37,332.93 778.00,328.48
             778.00,328.48 792.00,322.00 792.00,322.00
             792.00,322.00 792.00,333.00 792.00,333.00 Z
           M 1162.00,333.00
           C 1161.99,334.57 1162.08,337.20 1161.43,338.61
             1159.80,342.09 1151.57,344.50 1148.00,345.35
             1136.05,348.19 1118.17,348.30 1107.00,342.87
             1092.52,335.82 1085.19,320.63 1085.00,305.00
             1084.83,289.94 1085.34,278.34 1095.47,266.00
             1109.89,248.44 1142.79,244.26 1158.54,262.09
             1169.86,274.91 1169.00,289.24 1169.00,305.00
             1169.00,305.00 1106.00,305.00 1106.00,305.00
             1107.46,309.99 1107.16,313.32 1110.13,318.00
             1118.38,331.02 1134.37,332.93 1148.00,328.48
             1148.00,328.48 1162.00,322.00 1162.00,322.00
             1162.00,322.00 1162.00,333.00 1162.00,333.00 Z
           M 1191.00,266.00
           C 1191.01,264.33 1190.94,261.74 1191.60,260.21
             1193.42,256.03 1202.81,253.64 1207.00,252.65
             1220.93,249.36 1243.51,249.09 1253.47,261.09
             1258.76,267.45 1259.99,275.02 1260.00,283.00
             1260.00,283.00 1260.00,345.00 1260.00,345.00
             1260.00,345.00 1239.00,345.00 1239.00,345.00
             1239.00,345.00 1238.00,332.00 1238.00,332.00
             1231.16,344.74 1221.29,347.15 1208.00,347.00
             1200.55,346.91 1194.59,345.14 1189.10,339.82
             1177.78,328.84 1179.66,304.75 1193.00,295.96
             1197.10,293.27 1203.17,291.01 1208.00,290.09
             1208.00,290.09 1239.00,286.00 1239.00,286.00
             1238.38,282.69 1237.59,277.88 1235.91,275.02
             1229.37,263.88 1212.86,266.38 1203.00,270.90
             1203.00,270.90 1191.00,278.00 1191.00,278.00
             1191.00,278.00 1191.00,266.00 1191.00,266.00 Z
           M 604.00,253.00
           C 604.00,253.00 604.00,345.00 604.00,345.00
             604.00,345.00 583.00,345.00 583.00,345.00
             583.00,345.00 583.00,253.00 583.00,253.00
             583.00,253.00 604.00,253.00 604.00,253.00 Z
           M 639.00,253.00
           C 641.98,253.06 644.16,253.00 646.37,255.31
             648.12,257.15 651.83,265.23 653.26,268.00
             656.66,274.59 660.95,280.82 663.00,288.00
             663.00,288.00 665.00,288.00 665.00,288.00
             665.00,288.00 677.77,264.00 677.77,264.00
             681.35,257.41 682.01,253.15 690.00,253.00
             690.00,253.00 708.00,253.00 708.00,253.00
             708.00,253.00 677.00,300.00 677.00,300.00
             677.00,300.00 692.00,321.00 692.00,321.00
             692.00,321.00 707.00,345.00 707.00,345.00
             707.00,345.00 689.00,345.00 689.00,345.00
             689.00,345.00 682.61,344.01 682.61,344.01
             682.61,344.01 676.58,335.00 676.58,335.00
             676.58,335.00 664.00,311.00 664.00,311.00
             659.05,317.09 653.52,327.85 649.42,335.00
             645.85,341.22 645.60,344.87 638.00,345.00
             638.00,345.00 619.00,345.00 619.00,345.00
             619.00,345.00 640.33,313.00 640.33,313.00
             640.33,313.00 648.49,300.42 648.49,300.42
             648.49,300.42 641.31,287.00 641.31,287.00
             641.31,287.00 620.00,253.00 620.00,253.00
             620.00,253.00 639.00,253.00 639.00,253.00 Z
           M 1354.00,253.00
           C 1354.00,253.00 1354.00,345.00 1354.00,345.00
             1354.00,345.00 1333.00,345.00 1333.00,345.00
             1333.00,345.00 1333.00,253.00 1333.00,253.00
             1333.00,253.00 1354.00,253.00 1354.00,253.00 Z
           M 1458.00,253.00
           C 1458.00,253.00 1473.67,302.00 1473.67,302.00
             1473.67,302.00 1480.00,324.00 1480.00,324.00
             1480.00,324.00 1482.00,324.00 1482.00,324.00
             1482.00,324.00 1489.95,298.00 1489.95,298.00
             1489.95,298.00 1505.00,253.00 1505.00,253.00
             1505.00,253.00 1527.00,253.00 1527.00,253.00
             1527.00,253.00 1505.42,310.00 1505.42,310.00
             1505.42,310.00 1491.00,347.00 1491.00,347.00
             1487.06,356.89 1485.68,362.82 1479.48,372.00
             1470.82,384.83 1462.02,389.03 1447.00,389.00
             1444.70,389.00 1440.59,389.38 1439.02,387.40
             1437.35,385.28 1438.00,373.26 1438.00,370.00
             1440.81,370.53 1445.32,371.66 1448.00,371.53
             1458.07,371.04 1463.03,362.25 1466.40,354.00
             1467.58,351.10 1469.54,347.13 1469.19,344.00
             1469.19,344.00 1459.60,319.00 1459.60,319.00
             1459.60,319.00 1443.40,278.00 1443.40,278.00
             1443.40,278.00 1434.00,253.00 1434.00,253.00
             1434.00,253.00 1458.00,253.00 1458.00,253.00 Z
           M 770.96,270.56
           C 766.92,267.40 762.97,266.82 758.00,267.04
             745.38,267.59 737.59,278.03 737.00,290.00
             737.00,290.00 779.00,290.00 779.00,290.00
             777.63,282.41 777.65,275.79 770.96,270.56 Z
           M 1140.96,270.56
           C 1136.92,267.40 1132.97,266.82 1128.00,267.04
             1115.38,267.59 1107.59,278.03 1107.00,290.00
             1107.00,290.00 1149.00,290.00 1149.00,290.00
             1147.63,282.41 1147.65,275.79 1140.96,270.56 Z
           M 842.21,275.09
           C 828.85,289.52 830.45,335.69 863.00,329.53
             881.28,326.08 882.17,307.74 882.00,293.00
             881.80,276.43 871.73,266.50 855.00,268.32
             849.80,269.50 845.93,271.08 842.21,275.09 Z
           M 1215.00,303.68
           C 1199.85,307.23 1200.06,320.61 1206.22,326.78
             1212.64,333.19 1224.63,331.45 1230.96,325.79
             1233.95,323.12 1236.14,319.80 1237.40,316.00
             1239.20,310.61 1239.00,305.56 1239.00,300.00
             1239.00,300.00 1215.00,303.68 1215.00,303.68 Z" />
</svg>
