<svg xmlns="http://www.w3.org/2000/svg" viewBox="-10 0 1600 375">
  <defs>
    <style>
      .cls-1{fill:none;}.cls-2{fill:#fff;}.cls-3{clip-path:url(#clip-path);}.cls-4{fill:#0089cf;}.cls-5{fill:#0078d7;}
    </style>
  </defs>
  <g class="cls-3">
    <path d="M362.553 60.468a26.924 26.924 0 0 0-7.64-18.847l-.113-.113a38.84 38.84 0 0 0-12.26-8.306c-31.43-12.717-86.482-19.477-159.045-19.477S55.88 20.483 24.315 33.257a38.745 38.745 0 0 0-12.125 8.25 27 27 0 0 0-7.752 18.96v46.785a101.34 101.34 0 0 0 101.205 101.205h14.723a27.478 27.478 0 0 0 16.995-5.92l24.08-19.095a31.622 31.622 0 0 1 44.073 0l24.06 19.096a27.478 27.478 0 0 0 16.995 5.92h14.723A101.34 101.34 0 0 0 362.496 107.25zm-22.056 46.784a79.246 79.246 0 0 1-79.17 79.246h-16.574l-24.977-19.88a53.696 53.696 0 0 0-72.562 0l-.42.364-24.557 19.516h-16.575a79.246 79.246 0 0 1-79.15-79.17v-49.42l2.998-2.29a17.052 17.052 0 0 1 3.208-1.91l.344-.153c20.24-8.096 62.785-17.74 150.433-17.74s130.173 9.644 150.434 17.74l.36.153a17.3 17.3 0 0 1 3.21 1.91l3.015 2.29zM183.495 339.834c-70.653 0-99.296-52.76-100.537-55.014a11.457 11.457 0 0 1 20.24-10.732c.975 1.795 23.832 42.83 80.297 42.83 57.038 0 80.048-42.353 80.2-42.792a11.457 11.457 0 1 1 20.26 10.694c-1.164 2.253-29.807 55.014-100.46 55.014" class="cls-4"/>
    <path d="M200.68 60.468h-34.37a9.548 9.548 0 0 0 0 19.095h34.37a9.548 9.548 0 0 0 0-19.095" class="cls-5"/>
  </g>
  <path id="wmr" fill="#2A2A2A" stroke="#000" stroke-width=".094" d="M880.76 13.437v136h-21l-1-15c-8.34 21.3-46.08 24.18-60.45 2-10.91-16.83-10.47-48.65 1.24-65 9.5-13.28 19.84-16.18 35.21-16 5.15.06 9.45.76 14 3.36 4.58 2.63 7.86 6.49 11 10.64v-56h21zm-218.57 5.33c5.4 6.2 2.53 16.51-5.43 19.02-16.49 5.19-24.23-16.16-9-22.7 5.44-1.12 10.51-.83 14.43 3.68zm-194.43 1.67l7.28.99 2.85 7.01 4 17 13 52 6.87 25 6.58-27 14.54-52 4.17-15 3.22-6.98 7.49-1.02h15l12.12 48 9.51 37 4.37 18 6.63-30 17.37-73h23l-9.58 37-17 62-5.27 19-3.24 9.43-5.91 1.57h-11l-7.28-.99-3.01-7.01-4.34-16-13.95-51-6.42-23-6.58 28-13.05 48-4.08 15-2.85 5.98-5.44 1.02h-11l-7.49-1.02-3.51-7.98-5.58-20-19.3-69-8.12-31h16zm276 35c10.21.13 18.77 4.79 23.6 14 5.39 10.28 4.4 19.91 4.4 31v49h-21v-48c-.1-8.65-1.4-20.79-9.04-26.15-10.51-7.38-23.87.67-28.43 11.15-2.9 6.68-2.53 16.77-2.53 24v39h-21v-92h21l1 14c7.14-13.3 18.08-16.16 32-16zm235 7.53c16.21 12.47 17.22 26.78 17 45.47-.15 12.21-6.39 25.89-16 33.48-11.7 9.25-21.89 9.68-36 9.52-17.98-.21-33.38-10.98-39.45-28-3.07-8.58-2.65-15.11-2.55-24 .11-9.27 3.37-19.45 8.79-27 6.97-9.72 17.79-14.43 29.21-16.56 12.41-1.59 28.75-.8 39 7.09zm199 72.46c6.05-.14 14.24-2.13 15.92-8.99 1.2-4.9-4.11-9.49-7.92-11.59-10.01-5.5-22.55-6.55-30.47-16.45-4.52-5.64-4.61-10.12-4.53-16.96.13-10.03 6.11-17.42 15-21.67 9.47-4.54 23.69-5.52 34-3.89l11 2.56v20c-9.16-4.84-19.49-9.82-30-5.52-4.07 1.67-9.16 5.46-7.92 10.52 1.41 5.78 8.93 8.82 13.92 10.68 9.21 3.44 20.39 7.71 25.87 16.32 2.66 4.19 3.08 7.18 3.13 12 .12 12.15-4.61 20.1-16 25.12-9.28 4.1-25.03 5-35 3.44l-14-3.56v-21c9.78 5.96 15.14 9.26 27 8.99zm-515-77.99v92h-21v-92h21zm357 0l7.28.99 5.35 17.01 9.5 38 3.87 16 19-72h21l10.63 43 7.37 28 12.58-54c.74-3.35 2.47-14.13 4.98-15.98 1.7-1.25 5.36-1.02 7.44-1.02h12l-26 92h-15c-2.09 0-5.73.23-7.44-1.02-2.49-1.83-4.35-11.73-5.19-14.98l-12.37-49c-3.84 4.49-5.73 15.06-7.42 21l-12.58 44h-23l-19.86-69-6.14-23h14zm-199.79 22.09c-13.36 14.43-11.76 60.6 20.79 54.44 18.28-3.45 19.17-21.79 19-36.53-.2-16.57-10.27-26.5-27-24.68-5.2 1.18-9.07 2.76-12.79 6.77zm111.12.09c-12.87 13.66-12.4 53.6 16.67 54.78 6.12.25 13.12-1.15 17.82-5.35 12.14-10.85 11.75-41.32-.99-51.68-5.89-4.79-12.57-5.35-19.83-4.63-5.39 1.05-9.8 2.78-13.67 6.88zm22.67 114.82v136h-21l-1-15c-8.34 21.3-46.08 24.18-60.45 2-10.91-16.83-10.47-48.65 1.24-65 9.5-13.28 19.84-16.18 35.21-16 5.15.06 9.45.76 14 3.36 4.58 2.63 7.86 6.49 11 10.64v-56h21zm403 0v136h-21v-136h21zm-702.57 5.33c5.4 6.2 2.53 16.51-5.43 19.02-16.49 5.19-24.23-16.16-9-22.7 5.44-1.12 10.51-.83 14.43 3.68zm750 0c5.4 6.2 2.53 16.51-5.43 19.02-16.49 5.19-24.23-16.16-9-22.7 5.44-1.12 10.51-.83 14.43 3.68zm-915.43 1.67l7.35.99 3.84 7.01 6.21 16 20.4 52 9.2 23 10.4-29 19.32-48 9.69-20.98 7.59-1.02h21v129h-21v-67l-1-34-10.6 29-19.6 49-5.8 15-3.7 7.01-5.3.99-9.5-1.02-3.9-6.98-6.8-17-30.8-78v103h-20v-129h23zm582 0c10.49 0 20.24-.5 30 4.38 14.87 7.43 18.18 18.25 18 33.62-.08 6.62-1.91 12.57-5.79 18-6.6 9.25-12.64 10.78-22.21 15 13.12 7.04 23.16 25.55 31.05 38 3.5 5.51 9.76 14.28 11.95 20h-18c-2.24 0-5.56.24-7.47-.99-1.91-1.23-3.93-5.01-5.13-7.01l-9-15c-5.14-8.57-12.16-22.01-21.4-26.43-4.68-2.24-12.81-2.57-18-2.57v52h-21v-129h37zm387 10v27h22v17h-22v39c.01 4.31.28 11.12 2.31 14.96 4.5 8.5 12.8 5.94 19.69 3.04v18c-11.42 2.3-27.52 4.87-36.81-4.21-4.66-4.55-6.11-10.51-6.19-16.79v-54h-15v-17h15v-22l21-5zm-370.02 45.03c11.32-7.5 11.93-27.79-.98-34.59-6.92-3.65-23.7-2.44-32-2.44v41c10.19 0 24.32 1.78 32.98-3.97zm-244.98 61.97c-.01 1.57.08 4.2-.57 5.61-1.63 3.48-9.86 5.89-13.43 6.74-11.95 2.84-29.83 2.95-41-2.48-14.48-7.05-21.81-22.24-22-37.87-.17-15.06.34-26.66 10.47-39 14.42-17.56 47.32-21.74 63.07-3.91 11.32 12.82 10.46 27.15 10.46 42.91h-63c1.46 4.99 1.16 8.32 4.13 13 8.25 13.02 24.24 14.93 37.87 10.48l14-6.48v11zm370 0c-.01 1.57.08 4.2-.57 5.61-1.63 3.48-9.86 5.89-13.43 6.74-11.95 2.84-29.83 2.95-41-2.48-14.48-7.05-21.81-22.24-22-37.87-.17-15.06.34-26.66 10.47-39 14.42-17.56 47.32-21.74 63.07-3.91 11.32 12.82 10.46 27.15 10.46 42.91h-63c1.46 4.99 1.16 8.32 4.13 13 8.25 13.02 24.24 14.93 37.87 10.48l14-6.48v11zm29-67c.01-1.67-.06-4.26.6-5.79 1.82-4.18 11.21-6.57 15.4-7.56 13.93-3.29 36.51-3.56 46.47 8.44 5.29 6.36 6.52 13.93 6.53 21.91v62h-21l-1-13c-6.84 12.74-16.71 15.15-30 15-7.45-.09-13.41-1.86-18.9-7.18-11.32-10.98-9.44-35.07 3.9-43.86 4.1-2.69 10.17-4.95 15-5.87l31-4.09c-.62-3.31-1.41-8.12-3.09-10.98-6.54-11.14-23.05-8.64-32.91-4.12l-12 7.1v-12zm-587-13v92h-21v-92h21zm35 0c2.98.06 5.16 0 7.37 2.31 1.75 1.84 5.46 9.92 6.89 12.69 3.4 6.59 7.69 12.82 9.74 20h2l12.77-24c3.58-6.59 4.24-10.85 12.23-11h18l-31 47 15 21 15 24h-18l-6.39-.99-6.03-9.01-12.58-24c-4.95 6.09-10.48 16.85-14.58 24-3.57 6.22-3.82 9.87-11.42 10h-19l21.33-32 8.16-12.58-7.18-13.42-21.31-34h19zm715 0v92h-21v-92h21zm104 0l15.67 49 6.33 22h2l7.95-26 15.05-45h22l-21.58 57-14.42 37c-3.94 9.89-5.32 15.82-11.52 25-8.66 12.83-17.46 17.03-32.48 17-2.3 0-6.41.38-7.98-1.6-1.67-2.12-1.02-14.14-1.02-17.4 2.81.53 7.32 1.66 10 1.53 10.07-.49 15.03-9.28 18.4-17.53 1.18-2.9 3.14-6.87 2.79-10l-9.59-25-16.2-41-9.4-25h24zm-687.04 17.56c-4.04-3.16-7.99-3.74-12.96-3.52-12.62.55-20.41 10.99-21 22.96h42c-1.37-7.59-1.35-14.21-8.04-19.44zm370 0c-4.04-3.16-7.99-3.74-12.96-3.52-12.62.55-20.41 10.99-21 22.96h42c-1.37-7.59-1.35-14.21-8.04-19.44zm-298.75 4.53c-13.36 14.43-11.76 60.6 20.79 54.44 18.28-3.45 19.17-21.79 19-36.53-.2-16.57-10.27-26.5-27-24.68-5.2 1.18-9.07 2.76-12.79 6.77zm372.79 28.59c-15.15 3.55-14.94 16.93-8.78 23.1 6.42 6.41 18.41 4.67 24.74-.99 2.99-2.67 5.18-5.99 6.44-9.79 1.8-5.39 1.6-10.44 1.6-16l-24 3.68z"/>
</svg>
