<?xml version="1.0" encoding="utf-8"?>
<svg viewBox="-10 0 1600 375" xmlns="http://www.w3.org/2000/svg">
  <defs>
    <style>.cls-1{fill:none;}.cls-2{fill:#fff;}.cls-3{clip-path:url(#clip-path);}.cls-4{fill:#0089cf;}.cls-5{fill:#0078d7;}</style>
  </defs>
  <g class="cls-3" transform="matrix(1.909539, 0, 0, 1.909539, -389.366669, -397.821411)">
    <path class="cls-4" d="M393.77,240a14.1,14.1,0,0,0-4-9.87l-.06-.06a20.34,20.34,0,0,0-6.42-4.35C366.83,219.06,338,215.52,300,215.52s-66.83,3.54-83.36,10.23a20.29,20.29,0,0,0-6.35,4.32,14.14,14.14,0,0,0-4.06,9.93v24.5a53.07,53.07,0,0,0,53,53h7.71a14.39,14.39,0,0,0,8.9-3.1l12.61-10a16.56,16.56,0,0,1,23.08,0l12.6,10a14.39,14.39,0,0,0,8.9,3.1h7.71a53.07,53.07,0,0,0,53-53Zm-11.55,24.5A41.5,41.5,0,0,1,340.76,306h-8.68L319,295.59a28.12,28.12,0,0,0-38,0l-.22.19L267.92,306h-8.68a41.5,41.5,0,0,1-41.45-41.46V238.66l1.57-1.2a8.93,8.93,0,0,1,1.68-1l.18-.08c10.6-4.24,32.88-9.29,78.78-9.29s68.17,5.05,78.78,9.29l.19.08a9.06,9.06,0,0,1,1.68,1l1.58,1.2Z"/>
    <path class="cls-4" d="M300,386.3c-37,0-52-27.63-52.65-28.81a6,6,0,0,1,10.6-5.62c.51.94,12.48,22.43,42.05,22.43,29.87,0,41.92-22.18,42-22.41a6,6,0,1,1,10.61,5.6C352,358.67,337,386.3,300,386.3"/>
    <path class="cls-5" d="M309,240H291a5,5,0,0,0,0,10h18a5,5,0,0,0,0-10"/>
  </g>
  <path id="wmr" stroke-width=".094" d="M 880.759 13.437 C 880.759 13.437 880.759 149.437 880.759 149.437 C 880.759 149.437 859.759 149.437 859.759 149.437 C 859.759 149.437 858.759 134.437 858.759 134.437 C 850.419 155.737 812.679 158.617 798.309 136.437 C 787.399 119.607 787.839 87.787 799.549 71.437 C 809.049 58.157 819.389 55.257 834.759 55.437 C 839.909 55.497 844.209 56.197 848.759 58.797 C 853.339 61.427 856.619 65.287 859.759 69.437 C 859.759 69.437 859.759 13.437 859.759 13.437 C 859.759 13.437 880.759 13.437 880.759 13.437 Z M 662.189 18.767 C 667.589 24.967 664.719 35.277 656.759 37.787 C 640.269 42.977 632.529 21.627 647.759 15.087 C 653.199 13.967 658.269 14.257 662.189 18.767 Z M 467.759 20.437 C 467.759 20.437 475.039 21.427 475.039 21.427 C 475.039 21.427 477.889 28.437 477.889 28.437 C 477.889 28.437 481.889 45.437 481.889 45.437 C 481.889 45.437 494.889 97.437 494.889 97.437 C 494.889 97.437 501.759 122.437 501.759 122.437 C 501.759 122.437 508.339 95.437 508.339 95.437 C 508.339 95.437 522.879 43.437 522.879 43.437 C 522.879 43.437 527.049 28.437 527.049 28.437 C 527.049 28.437 530.269 21.457 530.269 21.457 C 530.269 21.457 537.759 20.437 537.759 20.437 C 537.759 20.437 552.759 20.437 552.759 20.437 C 552.759 20.437 564.879 68.437 564.879 68.437 C 564.879 68.437 574.389 105.437 574.389 105.437 C 574.389 105.437 578.759 123.437 578.759 123.437 C 578.759 123.437 585.389 93.437 585.389 93.437 C 585.389 93.437 602.759 20.437 602.759 20.437 C 602.759 20.437 625.759 20.437 625.759 20.437 C 625.759 20.437 616.179 57.437 616.179 57.437 C 616.179 57.437 599.179 119.437 599.179 119.437 C 599.179 119.437 593.909 138.437 593.909 138.437 C 593.909 138.437 590.669 147.867 590.669 147.867 C 590.669 147.867 584.759 149.437 584.759 149.437 C 584.759 149.437 573.759 149.437 573.759 149.437 C 573.759 149.437 566.479 148.447 566.479 148.447 C 566.479 148.447 563.469 141.437 563.469 141.437 C 563.469 141.437 559.129 125.437 559.129 125.437 C 559.129 125.437 545.179 74.437 545.179 74.437 C 545.179 74.437 538.759 51.437 538.759 51.437 C 538.759 51.437 532.179 79.437 532.179 79.437 C 532.179 79.437 519.129 127.437 519.129 127.437 C 519.129 127.437 515.049 142.437 515.049 142.437 C 515.049 142.437 512.199 148.417 512.199 148.417 C 512.199 148.417 506.759 149.437 506.759 149.437 C 506.759 149.437 495.759 149.437 495.759 149.437 C 495.759 149.437 488.269 148.417 488.269 148.417 C 488.269 148.417 484.759 140.437 484.759 140.437 C 484.759 140.437 479.179 120.437 479.179 120.437 C 479.179 120.437 459.879 51.437 459.879 51.437 C 459.879 51.437 451.759 20.437 451.759 20.437 C 451.759 20.437 467.759 20.437 467.759 20.437 Z M 743.759 55.437 C 753.969 55.567 762.529 60.227 767.359 69.437 C 772.749 79.717 771.759 89.347 771.759 100.437 C 771.759 100.437 771.759 149.437 771.759 149.437 C 771.759 149.437 750.759 149.437 750.759 149.437 C 750.759 149.437 750.759 101.437 750.759 101.437 C 750.659 92.787 749.359 80.647 741.719 75.287 C 731.209 67.907 717.849 75.957 713.289 86.437 C 710.389 93.117 710.759 103.207 710.759 110.437 C 710.759 110.437 710.759 149.437 710.759 149.437 C 710.759 149.437 689.759 149.437 689.759 149.437 C 689.759 149.437 689.759 57.437 689.759 57.437 C 689.759 57.437 710.759 57.437 710.759 57.437 C 710.759 57.437 711.759 71.437 711.759 71.437 C 718.899 58.137 729.839 55.277 743.759 55.437 Z M 978.759 62.967 C 994.969 75.437 995.979 89.747 995.759 108.437 C 995.609 120.647 989.369 134.327 979.759 141.917 C 968.059 151.167 957.869 151.597 943.759 151.437 C 925.779 151.227 910.379 140.457 904.309 123.437 C 901.239 114.857 901.659 108.327 901.759 99.437 C 901.869 90.167 905.129 79.987 910.549 72.437 C 917.519 62.717 928.339 58.007 939.759 55.877 C 952.169 54.287 968.509 55.077 978.759 62.967 Z M 1177.759 135.427 C 1183.809 135.287 1191.999 133.297 1193.679 126.437 C 1194.879 121.537 1189.569 116.947 1185.759 114.847 C 1175.749 109.347 1163.209 108.297 1155.289 98.397 C 1150.769 92.757 1150.679 88.277 1150.759 81.437 C 1150.889 71.407 1156.869 64.017 1165.759 59.767 C 1175.229 55.227 1189.449 54.247 1199.759 55.877 C 1199.759 55.877 1210.759 58.437 1210.759 58.437 C 1210.759 58.437 1210.759 78.437 1210.759 78.437 C 1201.599 73.597 1191.269 68.617 1180.759 72.917 C 1176.689 74.587 1171.599 78.377 1172.839 83.437 C 1174.249 89.217 1181.769 92.257 1186.759 94.117 C 1195.969 97.557 1207.149 101.827 1212.629 110.437 C 1215.289 114.627 1215.709 117.617 1215.759 122.437 C 1215.879 134.587 1211.149 142.537 1199.759 147.557 C 1190.479 151.657 1174.729 152.557 1164.759 150.997 C 1164.759 150.997 1150.759 147.437 1150.759 147.437 C 1150.759 147.437 1150.759 126.437 1150.759 126.437 C 1160.539 132.397 1165.899 135.697 1177.759 135.427 Z M 662.759 57.437 C 662.759 57.437 662.759 149.437 662.759 149.437 C 662.759 149.437 641.759 149.437 641.759 149.437 C 641.759 149.437 641.759 57.437 641.759 57.437 C 641.759 57.437 662.759 57.437 662.759 57.437 Z M 1019.759 57.437 C 1019.759 57.437 1027.039 58.427 1027.039 58.427 C 1027.039 58.427 1032.389 75.437 1032.389 75.437 C 1032.389 75.437 1041.889 113.437 1041.889 113.437 C 1041.889 113.437 1045.759 129.437 1045.759 129.437 C 1045.759 129.437 1064.759 57.437 1064.759 57.437 C 1064.759 57.437 1085.759 57.437 1085.759 57.437 C 1085.759 57.437 1096.389 100.437 1096.389 100.437 C 1096.389 100.437 1103.759 128.437 1103.759 128.437 C 1103.759 128.437 1116.339 74.437 1116.339 74.437 C 1117.079 71.087 1118.809 60.307 1121.319 58.457 C 1123.019 57.207 1126.679 57.437 1128.759 57.437 C 1128.759 57.437 1140.759 57.437 1140.759 57.437 C 1140.759 57.437 1114.759 149.437 1114.759 149.437 C 1114.759 149.437 1099.759 149.437 1099.759 149.437 C 1097.669 149.437 1094.029 149.667 1092.319 148.417 C 1089.829 146.587 1087.969 136.687 1087.129 133.437 C 1087.129 133.437 1074.759 84.437 1074.759 84.437 C 1070.919 88.927 1069.029 99.497 1067.339 105.437 C 1067.339 105.437 1054.759 149.437 1054.759 149.437 C 1054.759 149.437 1031.759 149.437 1031.759 149.437 C 1031.759 149.437 1011.899 80.437 1011.899 80.437 C 1011.899 80.437 1005.759 57.437 1005.759 57.437 C 1005.759 57.437 1019.759 57.437 1019.759 57.437 Z M 819.969 79.527 C 806.609 93.957 808.209 140.127 840.759 133.967 C 859.039 130.517 859.929 112.177 859.759 97.437 C 859.559 80.867 849.489 70.937 832.759 72.757 C 827.559 73.937 823.689 75.517 819.969 79.527 Z M 931.089 79.617 C 918.219 93.277 918.689 133.217 947.759 134.397 C 953.879 134.647 960.879 133.247 965.579 129.047 C 977.719 118.197 977.329 87.727 964.589 77.367 C 958.699 72.577 952.019 72.017 944.759 72.737 C 939.369 73.787 934.959 75.517 931.089 79.617 Z M 953.759 194.437 C 953.759 194.437 953.759 330.437 953.759 330.437 C 953.759 330.437 932.759 330.437 932.759 330.437 C 932.759 330.437 931.759 315.437 931.759 315.437 C 923.419 336.737 885.679 339.617 871.309 317.437 C 860.399 300.607 860.839 268.787 872.549 252.437 C 882.049 239.157 892.389 236.257 907.759 236.437 C 912.909 236.497 917.209 237.197 921.759 239.797 C 926.339 242.427 929.619 246.287 932.759 250.437 C 932.759 250.437 932.759 194.437 932.759 194.437 C 932.759 194.437 953.759 194.437 953.759 194.437 Z M 1356.759 194.437 C 1356.759 194.437 1356.759 330.437 1356.759 330.437 C 1356.759 330.437 1335.759 330.437 1335.759 330.437 C 1335.759 330.437 1335.759 194.437 1335.759 194.437 C 1335.759 194.437 1356.759 194.437 1356.759 194.437 Z M 654.189 199.767 C 659.589 205.967 656.719 216.277 648.759 218.787 C 632.269 223.977 624.529 202.627 639.759 196.087 C 645.199 194.967 650.269 195.257 654.189 199.767 Z M 1404.189 199.767 C 1409.589 205.967 1406.719 216.277 1398.759 218.787 C 1382.269 223.977 1374.529 202.627 1389.759 196.087 C 1395.199 194.967 1400.269 195.257 1404.189 199.767 Z M 488.759 201.437 C 488.759 201.437 496.109 202.427 496.109 202.427 C 496.109 202.427 499.949 209.437 499.949 209.437 C 499.949 209.437 506.159 225.437 506.159 225.437 C 506.159 225.437 526.559 277.437 526.559 277.437 C 526.559 277.437 535.759 300.437 535.759 300.437 C 535.759 300.437 546.159 271.437 546.159 271.437 C 546.159 271.437 565.479 223.437 565.479 223.437 C 565.479 223.437 575.169 202.457 575.169 202.457 C 575.169 202.457 582.759 201.437 582.759 201.437 C 582.759 201.437 603.759 201.437 603.759 201.437 C 603.759 201.437 603.759 330.437 603.759 330.437 C 603.759 330.437 582.759 330.437 582.759 330.437 C 582.759 330.437 582.759 263.437 582.759 263.437 C 582.759 263.437 581.759 229.437 581.759 229.437 C 581.759 229.437 571.159 258.437 571.159 258.437 C 571.159 258.437 551.559 307.437 551.559 307.437 C 551.559 307.437 545.759 322.437 545.759 322.437 C 545.759 322.437 542.059 329.447 542.059 329.447 C 542.059 329.447 536.759 330.437 536.759 330.437 C 536.759 330.437 527.259 329.417 527.259 329.417 C 527.259 329.417 523.359 322.437 523.359 322.437 C 523.359 322.437 516.559 305.437 516.559 305.437 C 516.559 305.437 485.759 227.437 485.759 227.437 C 485.759 227.437 485.759 330.437 485.759 330.437 C 485.759 330.437 465.759 330.437 465.759 330.437 C 465.759 330.437 465.759 201.437 465.759 201.437 C 465.759 201.437 488.759 201.437 488.759 201.437 Z M 1070.759 201.437 C 1081.249 201.437 1090.999 200.937 1100.759 205.817 C 1115.629 213.247 1118.939 224.067 1118.759 239.437 C 1118.679 246.057 1116.849 252.007 1112.969 257.437 C 1106.369 266.687 1100.329 268.217 1090.759 272.437 C 1103.879 279.477 1113.919 297.987 1121.809 310.437 C 1125.309 315.947 1131.569 324.717 1133.759 330.437 C 1133.759 330.437 1115.759 330.437 1115.759 330.437 C 1113.519 330.437 1110.199 330.677 1108.289 329.447 C 1106.379 328.217 1104.359 324.437 1103.159 322.437 C 1103.159 322.437 1094.159 307.437 1094.159 307.437 C 1089.019 298.867 1081.999 285.427 1072.759 281.007 C 1068.079 278.767 1059.949 278.437 1054.759 278.437 C 1054.759 278.437 1054.759 330.437 1054.759 330.437 C 1054.759 330.437 1033.759 330.437 1033.759 330.437 C 1033.759 330.437 1033.759 201.437 1033.759 201.437 C 1033.759 201.437 1070.759 201.437 1070.759 201.437 Z M 1457.759 211.437 C 1457.759 211.437 1457.759 238.437 1457.759 238.437 C 1457.759 238.437 1479.759 238.437 1479.759 238.437 C 1479.759 238.437 1479.759 255.437 1479.759 255.437 C 1479.759 255.437 1457.759 255.437 1457.759 255.437 C 1457.759 255.437 1457.759 294.437 1457.759 294.437 C 1457.769 298.747 1458.039 305.557 1460.069 309.397 C 1464.569 317.897 1472.869 315.337 1479.759 312.437 C 1479.759 312.437 1479.759 330.437 1479.759 330.437 C 1468.339 332.737 1452.239 335.307 1442.949 326.227 C 1438.289 321.677 1436.839 315.717 1436.759 309.437 C 1436.759 309.437 1436.759 255.437 1436.759 255.437 C 1436.759 255.437 1421.759 255.437 1421.759 255.437 C 1421.759 255.437 1421.759 238.437 1421.759 238.437 C 1421.759 238.437 1436.759 238.437 1436.759 238.437 C 1436.759 238.437 1436.759 216.437 1436.759 216.437 C 1436.759 216.437 1457.759 211.437 1457.759 211.437 Z M 1087.739 256.467 C 1099.059 248.967 1099.669 228.677 1086.759 221.877 C 1079.839 218.227 1063.059 219.437 1054.759 219.437 C 1054.759 219.437 1054.759 260.437 1054.759 260.437 C 1064.949 260.437 1079.079 262.217 1087.739 256.467 Z M 842.759 318.437 C 842.749 320.007 842.839 322.637 842.189 324.047 C 840.559 327.527 832.329 329.937 828.759 330.787 C 816.809 333.627 798.929 333.737 787.759 328.307 C 773.279 321.257 765.949 306.067 765.759 290.437 C 765.589 275.377 766.099 263.777 776.229 251.437 C 790.649 233.877 823.549 229.697 839.299 247.527 C 850.619 260.347 849.759 274.677 849.759 290.437 C 849.759 290.437 786.759 290.437 786.759 290.437 C 788.219 295.427 787.919 298.757 790.889 303.437 C 799.139 316.457 815.129 318.367 828.759 313.917 C 828.759 313.917 842.759 307.437 842.759 307.437 C 842.759 307.437 842.759 318.437 842.759 318.437 Z M 1212.759 318.437 C 1212.749 320.007 1212.839 322.637 1212.189 324.047 C 1210.559 327.527 1202.329 329.937 1198.759 330.787 C 1186.809 333.627 1168.929 333.737 1157.759 328.307 C 1143.279 321.257 1135.949 306.067 1135.759 290.437 C 1135.589 275.377 1136.099 263.777 1146.229 251.437 C 1160.649 233.877 1193.549 229.697 1209.299 247.527 C 1220.619 260.347 1219.759 274.677 1219.759 290.437 C 1219.759 290.437 1156.759 290.437 1156.759 290.437 C 1158.219 295.427 1157.919 298.757 1160.889 303.437 C 1169.139 316.457 1185.129 318.367 1198.759 313.917 C 1198.759 313.917 1212.759 307.437 1212.759 307.437 C 1212.759 307.437 1212.759 318.437 1212.759 318.437 Z M 1241.759 251.437 C 1241.769 249.767 1241.699 247.177 1242.359 245.647 C 1244.179 241.467 1253.569 239.077 1257.759 238.087 C 1271.689 234.797 1294.269 234.527 1304.229 246.527 C 1309.519 252.887 1310.749 260.457 1310.759 268.437 C 1310.759 268.437 1310.759 330.437 1310.759 330.437 C 1310.759 330.437 1289.759 330.437 1289.759 330.437 C 1289.759 330.437 1288.759 317.437 1288.759 317.437 C 1281.919 330.177 1272.049 332.587 1258.759 332.437 C 1251.309 332.347 1245.349 330.577 1239.859 325.257 C 1228.539 314.277 1230.419 290.187 1243.759 281.397 C 1247.859 278.707 1253.929 276.447 1258.759 275.527 C 1258.759 275.527 1289.759 271.437 1289.759 271.437 C 1289.139 268.127 1288.349 263.317 1286.669 260.457 C 1280.129 249.317 1263.619 251.817 1253.759 256.337 C 1253.759 256.337 1241.759 263.437 1241.759 263.437 C 1241.759 263.437 1241.759 251.437 1241.759 251.437 Z M 654.759 238.437 C 654.759 238.437 654.759 330.437 654.759 330.437 C 654.759 330.437 633.759 330.437 633.759 330.437 C 633.759 330.437 633.759 238.437 633.759 238.437 C 633.759 238.437 654.759 238.437 654.759 238.437 Z M 689.759 238.437 C 692.739 238.497 694.919 238.437 697.129 240.747 C 698.879 242.587 702.589 250.667 704.019 253.437 C 707.419 260.027 711.709 266.257 713.759 273.437 C 713.759 273.437 715.759 273.437 715.759 273.437 C 715.759 273.437 728.529 249.437 728.529 249.437 C 732.109 242.847 732.769 238.587 740.759 238.437 C 740.759 238.437 758.759 238.437 758.759 238.437 C 758.759 238.437 727.759 285.437 727.759 285.437 C 727.759 285.437 742.759 306.437 742.759 306.437 C 742.759 306.437 757.759 330.437 757.759 330.437 C 757.759 330.437 739.759 330.437 739.759 330.437 C 739.759 330.437 733.369 329.447 733.369 329.447 C 733.369 329.447 727.339 320.437 727.339 320.437 C 727.339 320.437 714.759 296.437 714.759 296.437 C 709.809 302.527 704.279 313.287 700.179 320.437 C 696.609 326.657 696.359 330.307 688.759 330.437 C 688.759 330.437 669.759 330.437 669.759 330.437 C 669.759 330.437 691.089 298.437 691.089 298.437 C 691.089 298.437 699.249 285.857 699.249 285.857 C 699.249 285.857 692.069 272.437 692.069 272.437 C 692.069 272.437 670.759 238.437 670.759 238.437 C 670.759 238.437 689.759 238.437 689.759 238.437 Z M 1404.759 238.437 C 1404.759 238.437 1404.759 330.437 1404.759 330.437 C 1404.759 330.437 1383.759 330.437 1383.759 330.437 C 1383.759 330.437 1383.759 238.437 1383.759 238.437 C 1383.759 238.437 1404.759 238.437 1404.759 238.437 Z M 1508.759 238.437 C 1508.759 238.437 1524.429 287.437 1524.429 287.437 C 1524.429 287.437 1530.759 309.437 1530.759 309.437 C 1530.759 309.437 1532.759 309.437 1532.759 309.437 C 1532.759 309.437 1540.709 283.437 1540.709 283.437 C 1540.709 283.437 1555.759 238.437 1555.759 238.437 C 1555.759 238.437 1577.759 238.437 1577.759 238.437 C 1577.759 238.437 1556.179 295.437 1556.179 295.437 C 1556.179 295.437 1541.759 332.437 1541.759 332.437 C 1537.819 342.327 1536.439 348.257 1530.239 357.437 C 1521.579 370.267 1512.779 374.467 1497.759 374.437 C 1495.459 374.437 1491.349 374.817 1489.779 372.837 C 1488.109 370.717 1488.759 358.697 1488.759 355.437 C 1491.569 355.967 1496.079 357.097 1498.759 356.967 C 1508.829 356.477 1513.789 347.687 1517.159 339.437 C 1518.339 336.537 1520.299 332.567 1519.949 329.437 C 1519.949 329.437 1510.359 304.437 1510.359 304.437 C 1510.359 304.437 1494.159 263.437 1494.159 263.437 C 1494.159 263.437 1484.759 238.437 1484.759 238.437 C 1484.759 238.437 1508.759 238.437 1508.759 238.437 Z M 821.719 255.997 C 817.679 252.837 813.729 252.257 808.759 252.477 C 796.139 253.027 788.349 263.467 787.759 275.437 C 787.759 275.437 829.759 275.437 829.759 275.437 C 828.389 267.847 828.409 261.227 821.719 255.997 Z M 1191.719 255.997 C 1187.679 252.837 1183.729 252.257 1178.759 252.477 C 1166.139 253.027 1158.349 263.467 1157.759 275.437 C 1157.759 275.437 1199.759 275.437 1199.759 275.437 C 1198.389 267.847 1198.409 261.227 1191.719 255.997 Z M 892.969 260.527 C 879.609 274.957 881.209 321.127 913.759 314.967 C 932.039 311.517 932.929 293.177 932.759 278.437 C 932.559 261.867 922.489 251.937 905.759 253.757 C 900.559 254.937 896.689 256.517 892.969 260.527 Z M 1265.759 289.117 C 1250.609 292.667 1250.819 306.047 1256.979 312.217 C 1263.399 318.627 1275.389 316.887 1281.719 311.227 C 1284.709 308.557 1286.899 305.237 1288.159 301.437 C 1289.959 296.047 1289.759 290.997 1289.759 285.437 C 1289.759 285.437 1265.759 289.117 1265.759 289.117 Z" style="fill: rgb(42, 42, 42); stroke: rgb(0, 0, 0);"/>
</svg>