<svg xmlns="http://www.w3.org/2000/svg" viewBox="0 0 396 96" xmlns:xlink="http://www.w3.org/1999/xlink">
  <title>
    vive
  </title>
  <g fill="none" fill-rule="evenodd">
    <path fill="#00B5E2" d="M47.065 0c-2.485 0-4.782 1.326-6.025 3.48L.933 72.95c-1.25 2.162-1.243 4.828.015 6.986l7.254 12.42c1.247 2.137 3.535 3.45 6.008 3.45h80.998c2.473 0 4.76-1.313 6.008-3.45l7.252-12.42c1.26-2.157 1.266-4.824.017-6.987L68.375 3.48C67.135 1.325 64.835 0 62.352 0H47.066zm7.643 25.158c13.244 0 35.257 34.074 27.41 47.508-3.923 6.717-15.667 9.115-27.41 9.134-11.745.02-23.49-2.34-27.412-9.134-7.847-13.59 14.168-47.508 27.412-47.508z"/>
    <path fill="#FFF" d="M150.106 18.605c-.167 0-.323.084-.416.223l-4.607 6.928c-.1.15-.11.34-.03.502l25.358 50.18c.09.168.26.274.45.275h11.64c.188 0 .36-.106.445-.274l25.358-50.18c.08-.16.07-.356-.03-.506l-4.607-6.93c-.093-.14-.25-.223-.416-.223h-4.647c-.186 0-.357.106-.443.27l-21.35 41.056h-.27L155.19 18.87c-.086-.164-.257-.27-.443-.27h-4.644zm84.147 0c-.18 0-.345.097-.434.252l-3.67 6.446c-.04.075-.067.16-.067.248v50.667c0 .276.224.5.5.5h11.742c.275 0 .5-.224.5-.5v-57.11c0-.275-.225-.5-.5-.5h-8.077zm35.337 0c-.168 0-.324.084-.417.223l-4.608 6.928c-.1.15-.11.343-.03.504l25.36 50.18c.084.167.256.273.444.273h11.64c.19 0 .36-.106.443-.274l25.357-50.18c.083-.16.07-.356-.03-.506l-4.606-6.93c-.092-.14-.248-.223-.416-.223h-4.64c-.19 0-.36.106-.445.27l-21.35 41.056h-.272L274.67 18.87c-.084-.164-.255-.27-.442-.27h-4.64zm83.55 0l-3.73 6.817V69.88l3.73 6.833h38.847l3.778-6.197V65.33h-33.99V53.318h24.103V41.344h-23.725V29.71h33.612v-4.288L392 18.605h-38.86"/>
  </g>
</svg>
