<?xml version="1.0"?>
<svg xmlns="http://www.w3.org/2000/svg" height="27.038765mm" width="111.69358mm"><path style="fill:#00b5e2" d="M 47.06543,0 C 44.57982,3e-5 42.283,1.32601 41.04004,3.47852 L 0.93262,72.94922 c -1.24905,2.1628 -1.24309,4.82914 0.0156,6.98633 l 7.2539,12.42188 c 1.24722,2.13582 3.53451,3.44899 6.00782,3.44922 l 80.99804,0 c 2.47331,-2.3e-4 4.7606,-1.3134 6.00782,-3.44922 l 7.25195,-12.42188 c 1.25932,-2.15684 1.26603,-4.82318 0.0176,-6.98633 L 68.37597,3.47852 C 67.13301,1.32601 64.83619,3e-5 62.35058,0 Z m 7.64258,25.15808 c 13.24395,0 35.2574,34.0736 27.41016,47.50794 -3.92362,6.71717 -15.66752,9.11487 -27.41135,9.13443 C 42.96299,81.82005 31.21923,79.46143 27.2959,72.66602 19.44924,59.0752 41.46406,25.15808 54.70801,25.15808 Z" /><path fill="#111" d="m 150.10645,18.60547 a 0.50005,0.50005 0 0 0 -0.41602,0.22266 l -4.60742,6.92773 a 0.50005,0.50005 0 0 0 -0.0293,0.50196 l 25.35742,50.17968 a 0.50005,0.50005 0 0 0 0.44531,0.2754 l 11.64258,0 a 0.50005,0.50005 0 0 0 0.44531,-0.27344 l 25.35742,-50.17969 a 0.50005,0.50005 0 0 0 -0.0293,-0.50195 l -4.60743,-6.92969 a 0.50005,0.50005 0 0 0 -0.41601,-0.22266 l -4.64258,0 a 0.50005,0.50005 0 0 0 -0.44336,0.26953 l -21.34961,41.05469 -0.27148,0 L 155.19237,18.875 a 0.50005,0.50005 0 0 0 -0.44336,-0.26953 l -4.64258,0 z" /><path fill="#111" d="m 234.25293,18.60547 a 0.50005,0.50005 0 0 0 -0.43359,0.25196 l -3.66797,6.44531 a 0.50005,0.50005 0 0 0 -0.0644,0.24805 l 0,50.66211 a 0.50005,0.50005 0 0 0 0.5,0.5 l 11.74219,0 a 0.50005,0.50005 0 0 0 0.5,-0.5 l 0,-57.10743 a 0.50005,0.50005 0 0 0 -0.5,-0.5 l -8.07618,0 z" /><path fill="#111" d="m 269.58887,18.60547 a 0.50005,0.50005 0 0 0 -0.41601,0.22266 l -4.60743,6.92773 a 0.50005,0.50005 0 0 0 -0.0293,0.50391 l 25.35742,50.17969 a 0.50005,0.50005 0 0 0 0.44531,0.27344 l 11.64258,0 a 0.50005,0.50005 0 0 0 0.44531,-0.27344 l 25.35742,-50.17774 a 0.50005,0.50005 0 0 0 -0.0293,-0.5039 l -4.60742,-6.92969 a 0.50005,0.50005 0 0 0 -0.416,-0.22266 l -4.64258,0 a 0.50005,0.50005 0 0 0 -0.44336,0.26953 l -21.34961,41.05469 -0.27148,0 L 274.67481,18.875 a 0.50005,0.50005 0 0 0 -0.44336,-0.26953 l -4.64258,0 z" /><path fill="#111" d="m 353.13965,18.60547 -3.72851,6.81641 0,0.12891 0,44.32812 3.72851,6.83399 38.84766,0 3.77734,-6.19727 0,-5.18555 -33.99023,0 0,-12.01172 24.10351,0 0,-11.9746 -23.7246,0 0,-11.63282 33.61132,0 0,-4.28906 -3.76367,-6.81641 -38.86133,0 z" /></svg>
