<svg xmlns="http://www.w3.org/2000/svg" viewBox="0 0 120 42">
  <path fill="#aab2ab" d="M3.14.508l113.354.2c1.583 0 2.998-.234 2.998 3.16l-.138 37.33H.28V3.73C.28 2.057.44.51 3.14.51z"/>
  <path d="M117.752 0H2.247C1.007 0 0 1.008 0 2.246v39.247c0 .28.228.507.508.507h118.984c.28 0 .508-.227.508-.507V2.246C120 1.008 118.992 0 117.752 0zM2.247 1.015h115.505c.68 0 1.233.552 1.233 1.23v27.277H36.16c-3.026 5.47-8.856 9.186-15.547 9.186-6.693 0-12.52-3.71-15.546-9.186H1.015V2.246c0-.68.553-1.23 1.232-1.23z"/>
  <path fill="#fff" d="M73.81 32.747c.314 0 .603.03.864.084.26.06.482.15.668.28.186.13.33.3.432.51.102.21.154.47.154.78 0 .34-.076.61-.23.84-.15.23-.375.41-.672.55.41.12.715.32.917.62.202.295.303.65.303 1.064 0 .334-.065.623-.195.867s-.3.443-.52.597c-.22.156-.47.27-.75.345-.28.077-.57.11-.87.11h-3.22v-6.62h3.12zm-.187 2.68c.26 0 .473-.063.64-.187.168-.123.252-.323.252-.6 0-.155-.03-.282-.084-.38-.05-.1-.13-.175-.22-.232-.09-.055-.2-.094-.32-.115-.12-.02-.24-.032-.37-.032h-1.37v1.55h1.48zm.085 2.81c.143 0 .28-.015.41-.043.13-.028.243-.075.343-.14.1-.064.18-.152.24-.264.06-.11.09-.253.09-.425 0-.34-.09-.583-.29-.728-.19-.145-.44-.218-.76-.218h-1.59v1.81h1.56zm2.795-5.49h1.633l1.55 2.616 1.542-2.616h1.624l-2.458 4.08v2.542h-1.46v-2.58l-2.43-4.05zm-42.25-13.14c.006 7.53-6.095 13.636-13.625 13.64-7.53.006-13.64-6.095-13.643-13.624v-.017C6.98 12.076 13.08 5.97 20.61 5.966c7.532-.006 13.64 6.094 13.644 13.624v.016z"/>
  <path d="M31.703 8.502c3.024 3.023 4.536 6.725 4.536 11.104 0 4.38-1.49 8.043-4.46 10.988-3.16 3.102-6.88 4.653-11.18 4.653-4.25 0-7.91-1.538-10.99-4.614C6.53 27.557 5 23.883 5 19.606 5 15.33 6.536 11.63 9.612 8.502c2.997-3.025 6.66-4.537 10.987-4.537 4.38 0 8.08 1.512 11.1 4.537zM11.65 10.535c-2.56 2.582-3.836 5.605-3.836 9.075 0 3.47 1.265 6.467 3.794 8.996 2.53 2.53 5.54 3.794 9.036 3.794 3.495 0 6.532-1.277 9.114-3.832 2.452-2.374 3.678-5.358 3.678-8.958 0-3.572-1.246-6.603-3.737-9.094-2.49-2.49-5.51-3.735-9.06-3.735-3.55 0-6.55 1.26-9 3.76zm6.726 7.55c-.39-.852-.976-1.278-1.756-1.278-1.378 0-2.067.928-2.067 2.784 0 1.86.69 2.79 2.067 2.79.91 0 1.56-.45 1.95-1.35l1.912 1.02c-.91 1.62-2.277 2.43-4.1 2.43-1.405 0-2.53-.43-3.376-1.29-.846-.86-1.27-2.05-1.27-3.56 0-1.49.437-2.67 1.31-3.542.87-.874 1.957-1.31 3.26-1.31 1.925 0 3.304.76 4.138 2.275l-2.068 1.06zm8.99 0c-.392-.852-.965-1.278-1.72-1.278-1.406 0-2.11.928-2.11 2.784 0 1.86.704 2.79 2.11 2.79.912 0 1.55-.45 1.915-1.35l1.96 1.02c-.91 1.62-2.27 2.43-4.09 2.43-1.4 0-2.52-.43-3.37-1.29-.84-.86-1.26-2.05-1.26-3.56 0-1.49.43-2.67 1.29-3.542s1.95-1.31 3.28-1.31c1.925 0 3.3.76 4.13 2.275l-2.11 1.06z"/>
  <g transform="matrix(.99377 0 0 .99367 -177.693 0)">
    <circle cx="255.551" cy="15.313" r="10.807" fill="#fff"/>
    <path d="M258.678 12.187c0-.416-.338-.754-.753-.754h-4.773c-.415 0-.753.338-.753.754v4.773h1.33v5.652h3.61V16.96h1.33v-4.773z"/>
    <circle cx="255.539" cy="9.172" r="1.633"/>
    <path fill-rule="evenodd" d="M255.524 3.407c-3.233 0-5.97 1.128-8.208 3.384-2.298 2.34-3.446 5.1-3.446 8.29 0 3.19 1.148 5.93 3.446 8.23s5.034 3.44 8.208 3.44c3.213 0 5.998-1.15 8.353-3.47 2.22-2.2 3.33-4.93 3.33-8.2 0-3.27-1.13-6.03-3.387-8.28-2.26-2.25-5.025-3.38-8.296-3.38zm.03 2.1c2.648 0 4.897.934 6.746 2.8 1.87 1.848 2.804 4.104 2.804 6.77 0 2.682-.915 4.91-2.745 6.68-1.93 1.905-4.2 2.858-6.81 2.858-2.61 0-4.86-.943-6.75-2.83-1.89-1.887-2.84-4.123-2.84-6.71 0-2.586.95-4.842 2.86-6.767 1.83-1.867 4.07-2.8 6.71-2.8z" clip-rule="evenodd"/>
  </g>
</svg>
