<svg xmlns="http://www.w3.org/2000/svg" viewBox="-.5 -.101 88 31">
  <path fill="#FFF" d="M1.803.482l83.127.15c1.16 0 2.198-.174 2.198 2.332l-.103 27.556H-.295V2.862c0-1.236.118-2.38 2.098-2.38z"/>
  <ellipse cx="13.887" cy="15.502" fill="#FFF" rx="11.101" ry="11.174"/>
  <path d="M23.27 4.06c3.485 2.593 5.755 6.745 5.756 11.44 0 4.273-1.88 8.096-4.842 10.706h62.853V4.06H23.27z"/>
  <path fill="#FFF" d="M35.74 7.56c.39 0 .727.058 1 .172.277.116.5.268.675.456.173.19.3.405.38.647.078.242.117.494.117.753 0 .253-.04.503-.118.75-.08.243-.206.46-.38.65-.173.188-.396.34-.673.455-.27.114-.61.173-1 .173h-1.45v2.267h-1.38V7.56h2.84zm-.38 2.975c.158 0 .312-.012.457-.035.147-.023.276-.07.388-.137.112-.068.2-.164.27-.288s.1-.287.1-.487-.033-.362-.1-.487c-.068-.12-.158-.22-.27-.28-.11-.07-.24-.11-.388-.14-.146-.02-.3-.03-.457-.03h-1.073v1.9h1.073zm8.39 2.865c-.475.417-1.132.625-1.97.625-.852 0-1.51-.207-1.977-.62-.466-.412-.7-1.052-.7-1.913V7.56h1.382v3.933c0 .17.016.338.045.505.03.165.09.31.185.44.094.125.225.228.392.308.167.08.392.12.673.12.493 0 .833-.11 1.02-.332.19-.222.283-.568.283-1.04V7.56h1.382v3.933c0 .855-.238 1.49-.714 1.907zm5.32-5.84c.3 0 .572.026.818.08.244.054.457.14.633.26.18.122.32.283.41.483.1.2.15.45.15.745 0 .318-.07.584-.21.796-.14.212-.35.388-.64.523.39.112.68.31.87.59.19.28.29.62.29 1.014 0 .32-.06.6-.18.83-.12.23-.29.43-.49.57-.21.15-.44.26-.71.33-.27.07-.54.11-.82.11h-3.05V7.56h2.96zm-.175 2.56c.246 0 .448-.06.607-.18.158-.117.236-.308.236-.575 0-.147-.025-.27-.078-.363-.053-.093-.123-.168-.21-.22-.09-.054-.19-.092-.306-.11-.115-.022-.232-.032-.355-.032h-1.3v1.48h1.4zm.08 2.684c.135 0 .264-.014.387-.04.123-.026.23-.072.326-.133.092-.06.168-.14.226-.25.056-.1.083-.24.083-.4 0-.32-.092-.55-.27-.69-.183-.14-.425-.21-.724-.21h-1.505v1.74h1.48-.003zm5.168-5.244v5.155h3.062v1.168H52.76V7.56h1.383zm5.605 0v6.323h-1.382V7.56h1.382zm5.702 1.687c-.08-.132-.185-.25-.308-.35-.123-.1-.263-.18-.418-.235-.156-.057-.316-.084-.488-.084-.312 0-.574.062-.793.183-.217.12-.394.29-.525.49-.136.21-.232.44-.296.7-.062.26-.093.53-.093.81 0 .27.03.53.09.78s.16.48.29.68c.13.2.31.36.52.49.22.12.48.18.79.18.42 0 .75-.13.99-.39s.38-.6.43-1.03H67c-.034.4-.126.76-.27 1.07-.147.32-.343.6-.583.82-.238.23-.52.4-.845.51-.323.12-.678.18-1.065.18-.48 0-.914-.08-1.297-.25-.385-.17-.71-.39-.973-.69-.265-.29-.468-.64-.607-1.04-.142-.4-.21-.83-.21-1.29 0-.47.068-.91.21-1.31.14-.402.344-.76.607-1.06.264-.3.588-.533.973-.705.384-.17.815-.26 1.297-.26.348 0 .676.05.98.15.31.1.584.246.828.44.243.19.443.43.604.71.15.283.25.61.3.975h-1.34c-.03-.164-.08-.31-.16-.44zm-29.835 7.17c.405 0 .782.063 1.13.193.35.13.652.324.907.585.255.26.455.586.6.975.143.39.215.85.215 1.37 0 .464-.06.89-.176 1.278-.11.39-.29.727-.53 1.012-.24.28-.53.504-.89.668-.35.16-.77.242-1.25.242h-2.71v-6.322h2.71zm-.096 5.155c.19 0 .39-.03.58-.098.18-.062.35-.173.5-.323.14-.15.26-.34.35-.59.09-.24.13-.53.13-.88 0-.31-.03-.6-.1-.86-.06-.25-.16-.48-.31-.66-.14-.18-.33-.32-.56-.42-.23-.1-.52-.14-.86-.14h-.99v3.99h1.23zm4.28-3.282c.14-.404.34-.757.6-1.06.26-.303.59-.538.97-.71.38-.17.81-.256 1.29-.256s.92.086 1.3.257c.38.18.7.41.97.71.26.31.46.66.6 1.06.14.41.21.85.21 1.32 0 .46-.07.89-.22 1.29-.14.4-.35.75-.61 1.04-.268.3-.59.53-.97.7-.38.17-.816.25-1.3.25-.48 0-.91-.08-1.298-.25-.383-.17-.71-.4-.97-.69-.264-.29-.467-.64-.607-1.04-.14-.39-.21-.83-.21-1.29 0-.47.07-.91.21-1.31zm1.26 2.09c.06.25.16.478.29.68.13.2.31.358.52.48.22.122.48.184.79.184.31 0 .57-.062.79-.183.22-.12.39-.28.53-.48.13-.2.23-.43.29-.68.06-.25.09-.51.09-.77 0-.27-.03-.54-.09-.8s-.16-.49-.3-.69c-.14-.2-.31-.36-.53-.48-.22-.12-.48-.18-.79-.18-.31 0-.58.06-.8.19-.217.12-.394.28-.528.48-.13.21-.23.44-.29.7-.06.258-.09.526-.09.8 0 .27.03.53.09.78zm8.03-3.962l1.47 4.348h.02l1.39-4.348h1.94v6.322h-1.29v-4.48h-.02l-1.54 4.48H50l-1.54-4.437h-.02v4.437h-1.29v-6.322h1.944zm9.67 0l2.35 6.322h-1.43l-.48-1.408h-2.35l-.5 1.408h-1.39l2.38-6.322h1.41zm.08 3.88l-.8-2.323h-.02l-.82 2.322h1.63zm4.7-3.88v6.322h-1.38v-6.322h1.38zm3.05 0l2.62 4.242h.02v-4.242h1.29v6.322h-1.38l-2.61-4.234h-.02v4.234h-1.29v-6.322h1.38z"/>
  <path d="M85.852 0H1.147C.24 0-.5.744-.5 1.658v28.97c0 .206.167.372.372.372h87.256c.205 0 .372-.166.372-.373V1.657C87.5.745 86.762 0 85.852 0zM1.147.75h84.705c.498 0 .902.406.902.908v28.557H.244V1.657c0-.5.406-.908.903-.908z"/>
  <ellipse cx="14.156" cy="15.661" fill="#FFF" rx="11.004" ry="11.076"/>
  <path d="M14.22 8.746c-3.862 0-4.834 3.67-4.834 6.78 0 3.11.97 6.778 4.834 6.778 3.863 0 4.834-3.67 4.834-6.78 0-3.11-.97-6.778-4.834-6.778zm0 2.555c.157 0 .3.03.435.06.278.24.414.58.147 1.04l-2.572 4.76c-.08-.6-.09-1.19-.09-1.63 0-1.37.093-4.22 2.08-4.22zm1.926 2.2c.137.73.155 1.5.155 2.03 0 1.37-.09 4.23-2.08 4.23-.15 0-.3-.01-.43-.05-.02-.01-.05-.02-.07-.02-.04-.01-.08-.02-.12-.04-.44-.19-.72-.53-.32-1.14l2.88-5z"/>
  <path d="M14.195 3.748c-3.245 0-5.98 1.137-8.21 3.422-1.128 1.135-1.99 2.43-2.59 3.876-.584 1.43-.875 2.92-.875 4.478 0 1.57.29 3.062.876 4.48s1.434 2.69 2.548 3.825c1.128 1.12 2.395 1.98 3.802 2.58 1.42.59 2.903.88 4.45.88 1.546 0 3.05-.31 4.498-.91 1.448-.61 2.74-1.47 3.883-2.61 1.1-1.08 1.934-2.32 2.49-3.72.57-1.42.853-2.94.853-4.55 0-1.6-.28-3.11-.852-4.53-.57-1.43-1.407-2.7-2.507-3.8-2.29-2.31-5.09-3.45-8.36-3.45zm.05 2.12c2.645 0 4.903.943 6.783 2.835.906.912 1.6 1.954 2.073 3.12.48 1.163.72 2.397.72 3.702 0 2.707-.92 4.952-2.74 6.746-.94.93-2.01 1.64-3.19 2.13-1.17.49-2.37.73-3.63.73-1.27 0-2.48-.23-3.64-.71-1.15-.49-2.19-1.19-3.11-2.1-.92-.92-1.63-1.97-2.13-3.13-.48-1.18-.73-2.39-.73-3.65 0-1.27.25-2.49.74-3.66.5-1.17 1.21-2.23 2.13-3.17 1.83-1.87 4.08-2.82 6.75-2.82z"/>
</svg>
