<svg xmlns="http://www.w3.org/2000/svg" id="Layer_1" viewBox="0 0 270 270">
  <style>
    .st0{fill:#ECB32D;} .st1{fill:#63C1A0;} .st2{fill:#E01A59;} .st3{fill:#331433;} .st4{fill:#D62027;} .st5{fill:#89D3DF;} .st6{fill:#258B74;} .st7{fill:#819C3C;}
  </style>
  <path d="M154.3 87.1c-1.9-5.7-8-8.8-13.7-7-5.7 1.9-8.8 8-7 13.7l28.1 86.4c1.9 5.3 7.7 8.3 13.2 6.7 5.8-1.7 9.3-7.8 7.4-13.4 0-.2-28-86.4-28-86.4z" class="st0"/>
  <path d="M110.8 101.2c-1.9-5.7-8-8.8-13.7-7-5.7 1.9-8.8 8-7 13.7l28.1 86.4c1.9 5.3 7.7 8.3 13.2 6.7 5.8-1.7 9.3-7.8 7.4-13.4 0-.2-28-86.4-28-86.4z" class="st1"/>
  <path d="M189.7 158.6c5.7-1.9 8.8-8 7-13.7-1.9-5.7-8-8.8-13.7-7l-86.5 28.2c-5.3 1.9-8.3 7.7-6.7 13.2 1.7 5.8 7.8 9.3 13.4 7.4.2 0 86.5-28.1 86.5-28.1z" class="st2"/>
  <path d="M114.5 183.1c5.6-1.8 12.9-4.2 20.7-6.7-1.8-5.6-4.2-12.9-6.7-20.7l-20.7 6.7 6.7 20.7z" class="st3"/>
  <path d="M158.1 168.9c7.8-2.5 15.1-4.9 20.7-6.7-1.8-5.6-4.2-12.9-6.7-20.7l-20.7 6.7 6.7 20.7z" class="st4"/>
  <path d="M175.5 115.1c5.7-1.9 8.8-8 7-13.7-1.9-5.7-8-8.8-13.7-7l-86.4 28.1c-5.3 1.9-8.3 7.7-6.7 13.2 1.7 5.8 7.8 9.3 13.4 7.4.2 0 86.4-28 86.4-28z" class="st5"/>
  <path d="M100.4 139.5c5.6-1.8 12.9-4.2 20.7-6.7-2.5-7.8-4.9-15.1-6.7-20.7l-20.7 6.7 6.7 20.7z" class="st6"/>
  <path d="M143.9 125.4c7.8-2.5 15.1-4.9 20.7-6.7-2.5-7.8-4.9-15.1-6.7-20.7l-20.7 6.7 6.7 20.7z" class="st7"/>
</svg>
