<?xml version="1.0" encoding="UTF-8" standalone="no"?>
<svg width="198px" height="170px" viewBox="0 0 198 170" version="1.1" xmlns="http://www.w3.org/2000/svg" xmlns:xlink="http://www.w3.org/1999/xlink">
    <!-- Generator: Sketch 41.2 (35397) - http://www.bohemiancoding.com/sketch -->
    <title>headset</title>
    <desc>Created with Sketch.</desc>
    <defs></defs>
    <g id="Page-1" stroke="none" stroke-width="1" fill="none" fill-rule="evenodd">
        <g id="headset">
            <g transform="translate(2.000000, 2.000000)">
                <path d="M51.7413627,48.9209091 C51.7413627,48.9209091 78.3694171,15.351934 103.348218,6.19892154 C128.327019,-2.95409095 150.452155,-1.4686757 170.644078,8.88077446 C190.836001,19.2302246 193.887471,31.606923 193.887471,36.6375998 C193.887471,41.6682766 192.981085,70.8294625 181.812582,83.3127654 C170.644078,95.7960683 134.209297,112.091585 134.209297,112.091585 L113.09324,90.6551649 C113.09324,90.6551649 155.364407,77.6542504 160.424411,73.8369606 C165.484415,70.0196708 177.892631,61.0258169 177.892631,61.0258169 L187.304277,51.9271066 C187.304277,51.9271066 174.384858,28.4830032 152.63564,25.0658405 C130.886421,21.6486778 123.629403,21.1912977 94.2782971,30.800138 C64.9271915,40.4089782 57.7202662,55.003325 57.7202662,55.003325" id="Path-3"></path>
                <path d="M0.0553853683,91.9838549 C0.0553853683,82.8458199 5.7785401,79.5375552 5.7785401,79.5375552 C5.7785401,79.5375552 23.3427349,70.03125 31.0228393,63.6561226 C38.7029437,57.2809952 45.6700714,48.616954 50.0648564,48.616954 C54.4596415,48.616954 55.9699917,60.8553308 78.4696382,73.528936 C100.969285,86.2025412 115.698276,89.8544073 126.903703,100.526314 C138.10913,111.198221 135.425138,126.81094 126.903703,133.452138 C121.534754,137.63644 104.234009,149.014529 89.8412214,158.052235 C81.3902097,163.358905 77.5254495,166.995563 68.7763196,165.585916 C58.0803911,163.862604 45.3773202,151.103558 32.4329684,142.611318 C19.4886166,134.119077 6.32975638,121.567054 3.51916872,113.547926 C0.708581061,105.528798 0.0553853683,101.12189 0.0553853683,91.9838549 Z" id="Path-2" stroke="#FF5D5D" stroke-width="3"></path>
                <path d="M0.0553853683,91.9838549 C0.0553853683,82.8458199 6.651519,79.25915 17.757604,86.8809337 C28.8636891,94.5027174 27.2138074,92.8666461 38.1291206,101.152726 C49.0444338,109.438806 76.1197161,122.73618 76.1197161,141.63778 C76.1197161,160.539381 77.5254495,166.995563 68.7763196,165.585916 C58.0803911,163.862604 45.3773202,151.103558 32.4329684,142.611318 C19.4886166,134.119077 6.32975638,121.567054 3.51916872,113.547926 C0.708581061,105.528798 0.0553853683,101.12189 0.0553853683,91.9838549 Z" id="Path-2" stroke="#FF5D5D" stroke-width="0.6"></path>
                <path d="M51.7413627,48.9209091 C51.7413627,48.9209091 78.3694171,15.351934 103.348218,6.19892154 C128.327019,-2.95409095 150.452155,-1.4686757 170.644078,8.88077446 C190.836001,19.2302246 193.887471,31.606923 193.887471,36.6375998 C193.887471,41.6682766 192.981085,70.8294625 181.812582,83.3127654 C170.644078,95.7960683 134.209297,112.091585 134.209297,112.091585" id="Path-3" stroke="#000000" stroke-width="3"></path>
                <path d="M51.7413627,48.9209091 C51.7413627,48.9209091 78.3694171,15.351934 103.348218,6.19892154 C128.327019,-2.95409095 150.452155,-1.4686757 170.644078,8.88077446 C190.836001,19.2302246 193.887471,31.606923 193.887471,36.6375998 C193.887471,41.6682766 192.981085,70.8294625 181.812582,83.3127654 C170.644078,95.7960683 134.209297,112.091585 134.209297,112.091585" id="Path-3" stroke="#FF5D5D" stroke-width="3"></path>
                <path d="M56.8447288,55.2008853 C56.8447288,55.2008853 74.1443047,36.1081012 95.8492151,29.2351923 C117.554126,22.3622835 138.29199,21.3640774 156.599052,26.6106063 C174.906114,31.8571353 181.511039,41.0630095 187.344085,51.723463" id="Path-4" stroke="#FF5D5D" stroke-width="1.5"></path>
                <path d="M112.910106,90.6008593 C112.910106,90.6008593 146.142646,81.8299932 163.544201,70.8726329 C180.945757,59.9152726 193.90857,49.6530443 193.90857,34.050017" id="Path-5" stroke="#FF5D5D" stroke-width="1.5"></path>
            </g>
        </g>
    </g>
</svg>