<svg xmlns="http://www.w3.org/2000/svg" viewBox="0 0 250 160" xmlns:xlink="http://www.w3.org/1999/xlink">
  <title>WebVR.Rocks logo</title>
  <path fill="#3a46ff" fill-rule="evenodd" d="M0 0v160h250V0H0zm55.82 108.095c-15.917 0-28.82-12.78-28.82-28.547C27 63.78 39.903 51 55.82 51s28.82 12.78 28.82 28.548c0 7.57-3.036 14.832-8.44 20.186-5.405 5.354-12.736 8.36-20.38 8.36zm74.207-10.502h-10.054V62.407h10.054v35.186zm64.793 10.502c-15.917 0-28.82-12.78-28.82-28.547C166 63.78 178.903 51 194.82 51s28.82 12.78 28.82 28.548c0 15.766-12.903 28.547-28.82 28.547z"/>
</svg>