<?xml version="1.0" encoding="utf-8"?>
<!-- Generator: Adobe Illustrator 21.0.0, SVG Export Plug-In . SVG Version: 6.00 Build 0)  -->
<svg version="1.1" id="Layer_1" xmlns="http://www.w3.org/2000/svg" xmlns:xlink="http://www.w3.org/1999/xlink" x="0px" y="0px"
	 viewBox="0 0 746 482" style="enable-background:new 0 0 746 482;" xml:space="preserve">
<path d="M0,0v482h746V0H0z M165.7,327c-47.5,0-86-38.5-86-86c0-47.5,38.5-86,86-86c47.5,0,86,38.5,86,86
	C251.7,288.5,213.2,327,165.7,327z M388,294h-30V188h30V294z M580.3,327c-47.5,0-86-38.5-86-86c0-47.5,38.5-86,86-86s86,38.5,86,86
	C666.3,288.5,627.8,327,580.3,327z"/>
</svg>
