<svg xmlns="http://www.w3.org/2000/svg" viewBox="0 0 30 36">
  <g fill="#6ab344" fill-rule="evenodd">
    <path d="M24.863 27.142c0 .802-.647 1.454-1.45 1.454H6.6c-.802 0-1.452-.652-1.452-1.454v-15.02c4.407-.016 14.687-.016 19.715 0v15.02zM11.376 4.42c.083.164.02.368-.145.452-.16.083-.36.018-.45-.146L8.66.584C8.57.42 8.64.22 8.802.134c.164-.084.366-.02.45.146l2.124 4.14zm7.74.176c-.092.16-.297.215-.458.12-.16-.09-.214-.295-.12-.455L20.863.23c.093-.16.298-.216.457-.12.162.09.216.295.124.454l-2.328 4.032zm10.88 18.474c0 1.167-.946 2.116-2.117 2.116-1.17 0-2.12-.948-2.12-2.117V13.8c0-1.17.94-2.116 2.12-2.116 1.17 0 2.11.945 2.11 2.115v9.26zm-25.76 0c0 1.167-.95 2.116-2.115 2.116-1.17 0-2.11-.948-2.11-2.117V13.8c0-1.17.95-2.116 2.12-2.116 1.17 0 2.12.945 2.12 2.115v9.26z"/>
    <path d="M13.455 33.67c0 1.168-.948 2.116-2.12 2.116-1.168 0-2.114-.947-2.114-2.116v-9.263c0-1.168.95-2.118 2.12-2.118 1.17 0 2.12.95 2.12 2.11v9.26zm7.343 0c0 1.168-.948 2.116-2.12 2.116-1.167 0-2.116-.947-2.116-2.116v-9.263c0-1.168.948-2.118 2.117-2.118 1.17 0 2.11.95 2.11 2.11v9.26zM15.006 2.225c-5.15 0-9.39 3.918-9.955 8.955h19.91c-.56-5.037-4.8-8.955-9.95-8.955zm-4.492 5.43c-.46 0-.83-.37-.83-.828 0-.457.37-.826.83-.826.455 0 .826.37.826.83 0 .46-.37.83-.826.83zm9.002 0c-.458 0-.83-.37-.83-.828 0-.457.372-.826.83-.826.46 0 .827.37.827.83 0 .46-.368.83-.827.83z"/>
  </g>
</svg>
