<?xml version="1.0" encoding="UTF-8" standalone="no"?>
<svg width="30px" height="36px" viewBox="0 0 30 36" version="1.1" xmlns="http://www.w3.org/2000/svg" xmlns:xlink="http://www.w3.org/1999/xlink">
    <!-- Generator: Sketch 41.2 (35397) - http://www.bohemiancoding.com/sketch -->
    <title>Artboard</title>
    <desc>Created with Sketch.</desc>
    <defs></defs>
    <g id="Page-1" stroke="none" stroke-width="1" fill="none" fill-rule="evenodd">
        <g id="Artboard" fill="#000000">
            <g id="android">
                <path d="M24.8634,27.14175 C24.8634,27.944325 24.216,28.595625 23.411925,28.595625 L6.600375,28.595625 C5.7978,28.595625 5.148075,27.9444 5.148075,27.14175 L5.148075,12.122025 C9.55485,12.1059 19.835325,12.1059 24.8634,12.122025 L24.8634,27.14175 Z" id="Shape"></path>
                <path d="M11.37585,4.42125 C11.4588,4.584075 11.3958,4.787625 11.230725,4.872075 L11.230725,4.872075 C11.06715,4.955025 10.863675,4.889775 10.780725,4.7262 L8.655675,0.5844 C8.571225,0.419325 8.638725,0.2196 8.802375,0.1344 L8.802375,0.1344 C8.96595,0.049875 9.167925,0.1152 9.252375,0.2796 L11.375925,4.4214 L11.37585,4.42125 Z" id="Shape"></path>
                <path d="M19.1157,4.595625 C19.023525,4.756125 18.8193,4.8114 18.657975,4.716225 L18.657975,4.716225 C18.498225,4.62555 18.4437,4.421325 18.537375,4.26075 L20.8644,0.231 C20.956575,0.07125 21.162375,0.014475 21.32055,0.1089 L21.32055,0.1089 C21.481875,0.20025 21.536325,0.405375 21.444225,0.5643 L19.115625,4.59555 L19.1157,4.595625 Z" id="Shape"></path>
                <path d="M29.99595,23.069025 C29.99595,24.23715 29.049825,25.1856 27.879375,25.1856 L27.879375,25.1856 C26.708925,25.1856 25.760475,24.2379 25.760475,23.069025 L25.760475,13.80615 C25.760475,12.6357 26.708175,11.690325 27.879375,11.690325 L27.879375,11.690325 C29.049075,11.690325 29.99595,12.635775 29.99595,13.80615 L29.99595,23.069025 Z" id="Shape"></path>
                <path d="M4.2372,23.069025 C4.2372,24.23715 3.288,25.1856 2.121375,25.1856 L2.121375,25.1856 C0.950175,25.1856 0.003225,24.2379 0.003225,23.069025 L0.003225,13.80615 C0.003225,12.6357 0.94935,11.690325 2.121375,11.690325 L2.121375,11.690325 C3.288,11.690325 4.2372,12.635775 4.2372,13.80615 L4.2372,23.069025 Z" id="Shape"></path>
                <path d="M13.454775,33.66975 C13.454775,34.837875 12.507075,35.786325 11.335125,35.786325 L11.335125,35.786325 C10.167,35.786325 9.220875,34.838625 9.220875,33.66975 L9.220875,24.406875 C9.220875,23.2395 10.167,22.288725 11.335125,22.288725 L11.335125,22.288725 C12.506325,22.288725 13.454775,23.2395 13.454775,24.406875 L13.454775,33.66975 Z" id="Shape"></path>
                <path d="M20.79765,33.66975 C20.79765,34.837875 19.84995,35.786325 18.67875,35.786325 L18.67875,35.786325 C17.510625,35.786325 16.562175,34.838625 16.562175,33.66975 L16.562175,24.406875 C16.562175,23.2395 17.509875,22.288725 18.67875,22.288725 L18.67875,22.288725 C19.8492,22.288725 20.79765,23.2395 20.79765,24.406875 L20.79765,33.66975 Z" id="Shape"></path>
                <path d="M15.00615,2.224725 C9.857475,2.224725 5.61735,6.1431 5.050575,11.17965 L24.960975,11.17965 C24.395775,6.1431 20.1579,2.2248 15.00615,2.2248 L15.00615,2.224725 Z M10.5141,7.65375 C10.0548,7.65375 9.68385,7.284375 9.68385,6.82665 C9.68385,6.3705 10.0548,6.00105 10.5141,6.00105 C10.96875,6.00105 11.3397,6.370425 11.3397,6.82665 C11.3397,7.284375 10.96875,7.65375 10.5141,7.65375 Z M19.515825,7.65375 C19.0581,7.65375 18.68715,7.284375 18.68715,6.82665 C18.68715,6.3705 19.0581,6.00105 19.515825,6.00105 C19.97505,6.00105 20.343,6.370425 20.343,6.82665 C20.343,7.284375 19.975125,7.65375 19.515825,7.65375 Z" id="Shape"></path>
            </g>
        </g>
    </g>
</svg>