<!--
Source:
* URL: https://thenounproject.com/term/vr/504805/
* Author: Arthur Schmitt, CA (https://thenounproject.com/tart2000/)
-->
<svg xmlns="http://www.w3.org/2000/svg" viewBox="5 15 90 70" width="80">
  <path fill="#111" d="M93.4 47.1v-.3c-.1-.6-.2-1.3-.6-2-.2-.4-.3-1-.3-1.7 0-.4-.1-.9-.1-1.3l-.3-1.8c-.4-2.3-.8-4.6-1.4-6.9-.3-1.2-1-2.5-2-3.7-1.6-1.9-3.3-3.8-5.3-5.5-1.3-1.2-3.4-2.8-5.7-3.7h-.1c-1.4-1.9-3.6-2.6-5.5-3.2l-.3-.1c-3.1-1-6.3-1.2-9.8-.7-7.7 1.1-14.6 3.9-20.3 8.1-3 2.2-5.5 5-7.7 7.5-1.7 1.9-3.3 4.1-4.8 6.1-.5.7-1 1.4-1.6 2.1-.2.3-.4.3-1.1.4-.7 0-1.3.1-2 .1-2.5.1-5.1.2-7.6.5-4.1.6-7.1 3.2-8.5 7.6C7 52.8 6.5 57 6.9 61.1c.3 3.8 1.2 8.8 4.7 13 2.4 2.8 5.5 4.7 9.3 5.7 2.9.8 5.8 1.4 8.6 2.1 1.5.3 2.9.7 4.4 1 4.5 1.1 9 1.6 13.4 1.7h.1c2.7 0 4.8-.7 6.6-2.1 1.3-1.1 1.9-2.4 2.5-3.6.2-.4.3-.8.5-1.1h.1c.6.1 1.2.2 1.8.2h1.7c2.4 0 4.9-.2 7.1-1.9 2.9-2.2 4.9-5.1 5.8-8.5.1-.4.5-1 .9-1.3.6-.5 1.2-.9 1.8-1.3 1.1-.8 2.3-1.6 3.2-2.7.4-.5 1-.8 1.6-1.2.8-.5 1.7-1 2.3-1.9.4 0 .9 0 1.3-.1 1.2 0 2.4-.1 3.7-.3 2.6-.4 3.6-3 3.9-4 .1-.3.2-.7.4-1 .4-2.2 1.1-4.3.8-6.7zM35.3 33c2.2-2.4 4.6-5.2 7.4-7.2 5.5-4.1 12.1-6.7 19.4-7.8 3.2-.5 6.1-.3 8.9.6l.3.1 1.8.6h-.3c-.5 0-.9-.1-1.4-.1-3.7-.3-7 1-10 2.4-4.3 2-9.9 4.8-14.9 8.9-3.3 2.7-6.2 6.1-8.5 9.9-.2.4-.3.8-.4 1.2h-.4c.3-.5.5-1.1.5-1.9v-1.1c.1-1.3.2-2.7-.8-4-.3-.4-1-.5-1.4-.2l-.2.2-1.3 1c-.7.5-1.4 1-2.1 1.6 1.1-1.5 2.2-2.9 3.4-4.2zm32.2-9.5c-.1.3-.4.5-.7.6-.8.4-1.7.8-2.6 1.1-.8.3-1.6.7-2.4 1l-1 .4c-3.2 1.5-6.4 3-9.2 5.3-1 .8-1.8 1.7-2.7 2.6l-.9.9c-2.3 2.3-5.1 3.9-7.9 5.1 2.1-3.3 4.7-6.2 7.6-8.7 4.8-3.9 10.2-6.7 14.4-8.6 1.4-.6 2.8-1.3 4.3-1.7.1.1.1.2.2.2.2.2.4.5.5.7.4.6.5.9.4 1.1zM31.1 40.3c1.3-1.1 2.7-2.1 4.1-3.2l.6-.4c.1.5.1 1.1 0 1.7 0 .4-.1.8 0 1.2 0 .5-.1.8-.3 1-.3.3-.8.3-1.4.3-.4-.1-.7-.1-1.1-.1-.5 0-1.1-.1-1.5-.2-.2 0-.3-.1-.4-.1-.1-.1-.1-.2 0-.2zm-12.8 4.1v-1.8c2-.2 4.1-.3 6.1-.4.7 0 1.3-.1 2-.1.8 0 1.8-.2 2.5-1.1 0 .1 0 .1.1.2.4.9 1.6 1.2 2 1.3.6.1 1.2.2 1.8.2.3 0 .7.1 1 .1h.7c.7 0 1.4-.2 2-.6v.1c0 .6.4 1 1 1h.7c.4 0 .7-.1.9 0l.8.3c.2.1.3.1.5.2-.2.1-.4.3-.7.4-.9.6-1.8 1.1-2.7 1.9-1.6 1.4-3.6 2.2-6.1 2.3-4.7.2-8.2-.4-11.3-2-1.1-.4-1.4-.9-1.3-2zm21.6 4c1.6.1 1.6.4 1.6.8 0 1.6-1.9 4-3.4 4.3-.3.1-.6.1-.9-.1-.2-.2-.3-.5-.4-.9 0-1.7 1.2-3.8 3.1-4.1zM14.4 74v-.2c0-.2.1-.4.1-.4.1-.1.1-.2.2-.3 0 0 0-.1.1-.1.4.2.9.7 1.2 1.3.2.4.3.8.3 1.2-.8-.5-1.4-1-1.9-1.5zm8.9-5.5c.1 1.3.2 2.6.2 3.9 0 .2 0 .3.1.5-.8.3-1.2.8-1.3 1.2-.3.7-.3 1.6.2 2.6.2.5.5 1 .9 1.4-.7-.2-1.5-.4-2.2-.5-1.1-.3-2.2-.7-3.1-1.2.3-.9.2-2-.3-3-.5-1.2-1.4-2.1-2.4-2.4-1.6-.5-2.2.8-2.4 1.2 0 .1-.1.1-.1.2-2.3-2.7-3.5-6.1-4.1-10.9.3 1 1 1.8 1.9 2.5.2.1.4.2.6.2h.1c.3 0 .7-.1.9-.4.9-1.2 1.3-2.5 1.1-3.8-.2-1.3-1-2.5-2.2-3.4-.4-.3-1-.2-1.3.2-.6.7-1 1.6-1.2 2.5-.3-3.3.3-6.8 1.4-10.3 1.1-3.4 3.2-5.5 6.2-6.1v1.6c-.1-.2-.2-.3-.3-.5-.2-.4-.7-.5-1.1-.4-1.3.3-3 1-3.2 3.3-.2 1.8.7 3.1 2.5 3.6h.4c.2 0 .5 0 .7-.2 1.1-.8 1.7-2.1 1.6-3.5.4.5 1 1 1.7 1.4 1.7.9 3.5 1.4 5.6 1.8-.1.7-.2 1.5-.4 2.2-.4 2.1-.8 4.3-.8 6.5-.1 3.4.1 6.7.3 9.8zm-12.8-8.2c0-.4 0-.8.2-1.2.3.4.5.8.6 1.3.1.5 0 .9-.2 1.4-.3-.5-.5-1-.6-1.5zm4-11.8c-.6-.3-.8-.8-.7-1.4.1-.6.2-1 .9-1.3.4 1.1.3 2.1-.2 2.7zm12.8 29.6c-1.4-.1-2.4-.8-3-2.2-.2-.5-.2-.8-.2-.9 0-.1.2-.2.3-.2 1.6.1 2.3 1.2 3.2 2.9.1.2.1.3.1.3s-.1.1-.4.1zm10.8 3.4c-.1-.3-.1-.5-.2-.8-.2-.7-.4-1.4-.6-2-.1-.3 0-.5 0-.5h.1c.5-.1 1 0 1.2.1 1.2.8 1.9 2 2.1 3.6-.9-.1-1.7-.3-2.6-.4zm17.2-17.6c-2.3 2.2-2.6 4.1-.8 6.7.2.3.5.4.8.4.3 0 .7-.2.8-.5-.3 2.6-.8 5-1.8 7.3-.5 1.1-1 2.1-1.9 2.9-1.4 1.2-3.1 1.7-5.4 1.7-1.4 0-2.9-.1-4.3-.2-.2-2.4-1.2-4.2-3-5.4-.8-.5-1.9-.6-2.7-.5-.6.1-1.1.4-1.4.9-.4.6-.5 1.3-.3 2.1.1.6.3 1.3.5 1.9-.6-.1-1.2-.2-1.8-.4-1.5-.3-2.9-.7-4.4-1-.2-.1-.5-.1-.7-.2l.3-.3c.4-.6.5-1.5.1-2.3-.7-1.6-1.8-3.2-3.7-3.8V73c0-.1 0-.2-.1-.2v-.2c-.1-1.3-.1-2.6-.2-4-.2-3.1-.4-6.4-.3-9.6 0-2 .4-4.2.8-6.2.1-.8.3-1.5.4-2.3 1 .1 2 .1 3.1.1H31c1.8-.1 3.3-.4 4.7-1.1-.5 1-.8 2.1-.8 3.2 0 1 .4 1.9 1.1 2.4.5.4 1.1.6 1.8.6.2 0 .5 0 .7-.1 2.5-.5 5-3.7 5-6.3 0-2.5-2.5-2.7-3.4-2.8.2-.1.3-.2.5-.3.5-.3.9-.6 1.4-.9.2-.2.4-.3.5-.5 1.4.4 2.9.8 4.4.9l.2.2c.3.2.5.3.8.5l1.8 1.2c2.6 1.4 4 2.9 4.7 4.9 1.3 4 2 7.8 2.2 11.5-.4-.5-1-.5-1.3-.1zm10.9 10.3c-2 1.5-4.5 1.5-7.1 1.5h-.5c-.4 0-.9-.1-1.4-.1.6-2.2.9-4.4 1.1-6.7.6-5.3-.1-10.9-2.1-17-1-3.2-3.5-4.9-5.6-6h-.1c3.9 0 7.8.4 11.9 1.2 2 .4 4 1.2 5.9 2.3 1.6 1 2.5 2.7 2.8 5.4-1.1.8-2 1.4-3.3 1.4-2.6 0-4.3 1.3-5 4-.5 1.9-.6 3.8-.3 5.4.3 1.7 1.5 3.2 3.1 3.9.6.3 1.2.4 1.9.4 1 0 2.1-.3 3-1 0 0 .1 0 .1-.1-.9 1.9-2.3 3.8-4.4 5.4zm.5-16.1l-.6.6c-.5.4-.9.9-1.2 1.4.4-1.1 1-1.7 1.8-2zm7.3 5.5c-.4.3-.8.6-1.1.9-.5.4-.9.9-1.2 1.5-.2.1-.4.1-.6.2-.5.2-1.1.4-1.7.8-1.3.9-2.4.6-3 .4-.1 0-.1-.1-.2-.1V67c0-.4 0-.9-.2-1.3-.6-2.4-.1-4.1 1.4-5.5.5-.5 1.1-1 1.6-1.6l.7-.7c.1-.1.1-.2.2-.3.9-.3 1.7-.9 2.4-1.4l.3-.2c.4.2.6.4.7 1.2 0 .7.2 1.4.3 2.1.2 1.2.5 2.3.1 3.4.1.4.1.7.3.9zM73 53c-.4-2-1.3-4.2-3.6-5.6-2-1.2-4.2-2.1-6.5-2.5-4.7-1-9.4-1.4-13.8-1.3-2.6.1-5.1-.6-7.6-1.4 2.8-1.3 5.7-2.9 8-5.4.3-.3.6-.6.9-1 .8-.9 1.6-1.7 2.5-2.4 2.6-2.2 5.7-3.6 8.8-5l1-.4c.8-.3 1.5-.7 2.3-1 .9-.4 1.8-.7 2.7-1.2.9-.4 1.5-1 1.7-1.8.2-.8.1-1.6-.3-2.5-.1-.2-.2-.3-.3-.4.8-.1 1.6-.1 2.5-.1.5 0 1 .1 1.5.1 1.5.1 2.9.2 4.1.7 2 .8 3.9 2.3 5.2 3.4 1.3 1.1 2.5 2.4 3.7 3.7 0 .1-.1.2 0 .4v.6c0 .5.1.9.1 1.4v.1c-.5-.2-1-.4-1.7-.6-7.3-1.7-13.1-1.4-18.5.9-2 .9-3.5 2-4.6 3.5-.9 1.2-1.3 2.8-1 4.3.3 1.4 1.1 2.6 2.3 3.4 3.9 2.5 8.1 3.9 12.2 5.3l.6.2c.5.2 1.1.3 1.6.5L73 53zm12.9-17c-.9 4-2.9 7.4-5.8 10.2-.4.4-.9.7-1.4 1.1-.1.1-.3.2-.4.3l-.6-.2c-.7-.2-1.4-.4-2-.6l-.6-.2c-4.2-1.4-8.1-2.7-11.8-5-.9-.6-1.3-1.5-1.4-2.1-.2-1 .1-2 .6-2.8.9-1.2 2.1-2.1 3.8-2.9 2.8-1.2 5.8-1.8 9.1-1.8 2.5 0 5.2.3 8.1 1 2.6.6 2.8 1.4 2.4 3zm-6.2 23.1c-.7.5-1.5.9-2.1 1.6-.4.5-1 1-1.6 1.5.1-1.1-.1-2.2-.3-3.2-.1-.6-.2-1.3-.3-1.9-.1-1.1-.5-1.9-1.2-2.5l3.8-4c1 1.3 1.4 2.8 1.4 4.9 0 .9.1 1.8.2 2.6 0 .3.1.7.1 1zm2-2.7v.1c0 .4 0 .7-.2.9-.1-.6-.1-1.3-.1-1.9.1-2.6-.6-4.7-1.9-6.4.1-.1.3-.2.4-.3.1 0 .1-.1.2-.2.6.4.8 1.1 1 2.2 0 .3.1.5.1.8.1.5.2 1.1.3 1.6l.1.8v.1c-.1.7-.1 1.4.1 2.3zm1.5-5.2c0-.2-.1-.4-.1-.7-.1-.7-.3-1.4-.6-2.1l.7-.7c1-1 2.1-2 3.1-3 .5-.5.9-.6 1.2-.5.5.3.7.9.4 1.7-.8 2.1-2.2 4.1-4.4 6.1-.2-.2-.2-.5-.3-.8zm4.5 5.4c-1.1.2-2.3.2-3.5.2h-.5v-.1l.1-.1c.2-.2.4-.5.6-.8.4-.5.7-1 1.1-1.3.9-.8 1.8-1.3 2.6-1.6.3-.1.5-.1.5-.1s.2.2.2.7c0 .4.1.8.2 1.1l.1.4c0 .1.1.2.1.3-.4.9-.9 1.2-1.5 1.3zm2.8-4.2c-.3-.6-.6-1-.9-1.2-.4-.3-1.2-.5-2.3-.1-.2.1-.3.1-.5.2 1.3-1.5 2.2-3.1 2.8-4.7.6-1.6.2-3.2-1.2-4-.5-.3-1.7-.8-3.3.4 1.2-2 2.1-4.2 2.7-6.6.2-1 .2-1.9 0-2.7.1-.2.2-.5.2-.7v-.6c0-.2-.1-.4-.1-.6.3.6.6 1.2.8 1.7.6 2.2 1 4.5 1.4 6.7l.3 1.8c.1.3.1.7.1 1.1.1.8.1 1.7.5 2.5.2.4.3.8.4 1.4v.3c.3 1.8-.3 3.4-.9 5.1z"/>
  <path fill="#111" d="M41.2 62.2c-.2 0-.4 0-.6.1-1.3.8-2.1 1.7-2.4 2.8-.2 1 0 2.1.6 3.1s1.8 1.7 3.2 2c.4.1.7.1 1 .1 1 0 1.8-.3 2.5-.8s1.2-1.5 1.4-2.5c.1-.9-.1-1.7-.6-2.3-.9-1-2.5-2.6-5.1-2.5zm3.3 5.8c-.5.3-1.2.5-2 .3s-1.5-.6-1.9-1.1c-.4-.6-.5-1.1-.4-1.6.1-.6.7-1.1 1.2-1.4 1.2 0 2.3.5 3.5 1.9.1.1.2.4.1.8 0 .5-.2.9-.5 1.1zm-13-15.9s-.1 0 0 0c-.2 0-.4 0-.6.1-1.7.7-2.9 2-3.2 3.5-.2 1.3.2 2.6 1.2 3.5.4.4.9.7 1.6.7.4 0 .9-.1 1.4-.5 1.3-.8 2.1-1.9 2.5-3.3.4-1.5.1-2.4-.3-3-.3-.3-1-1-2.6-1zm1.1 3.6c-.3.9-.8 1.6-1.7 2.2-.4.2-.4.2-.6 0-.5-.5-.7-1.1-.6-1.7.1-.8.8-1.5 1.8-2 .5 0 .9.1 1.1.4.2.1.2.5 0 1.1zm-13.4-6.1c-.1-.1-.2-.1-.3-.2-.2-.1-.4-.2-.7-.2-.3 0-.6.1-.8.3-2.1 2-2.4 4.4-1.1 6.8.4.7 1 1.5 1.9 1.5.9 0 1.7-1 2-1.6.7-1.8.7-3.7 0-5.5-.1-.6-.6-.9-1-1.1zm-.8 5.9s0 .1-.1.1c-.1-.1-.1-.2-.2-.3-.8-1.4-.7-2.7.3-3.9h.1c.5 1.4.4 2.7-.1 4.1z"/>
</svg>
